<svg width="28" height="28" viewBox="0 0 28 28" fill="none" xmlns="http://www.w3.org/2000/svg">
<circle cx="14" cy="14" r="14" fill="#F2F2F2"/>
<path d="M15.5677 9.43225L11.0049 13.9951L15.5677 18.5579C15.5986 18.5913 15.636 18.6182 15.6776 18.6369C15.7192 18.6555 15.7641 18.6656 15.8097 18.6665C15.8553 18.6674 15.9005 18.6591 15.9428 18.6421C15.9851 18.625 16.0235 18.5996 16.0557 18.5674C16.088 18.5352 16.1134 18.4968 16.1304 18.4545C16.1474 18.4122 16.1557 18.3669 16.1549 18.3213C16.154 18.2758 16.1439 18.2308 16.1252 18.1893C16.1065 18.1477 16.0797 18.1103 16.0462 18.0793L11.9619 13.9951L16.0462 9.91005C16.0776 9.87871 16.1025 9.84147 16.1195 9.80047C16.1365 9.75948 16.1452 9.71553 16.1452 9.67115C16.1452 9.62677 16.1365 9.58283 16.1195 9.54183C16.1025 9.50084 16.0776 9.4636 16.0462 9.43225C15.9827 9.36886 15.8967 9.33325 15.807 9.33325C15.7172 9.33325 15.6312 9.36886 15.5677 9.43225Z" fill="black"/>
<path d="M11 13.9999L15.5677 9.43225C15.6312 9.36886 15.7172 9.33325 15.807 9.33325C15.8967 9.33325 15.9827 9.36886 16.0462 9.43225C16.0776 9.4636 16.1025 9.50084 16.1195 9.54183C16.1365 9.58283 16.1452 9.62677 16.1452 9.67115C16.1452 9.71553 16.1365 9.75948 16.1195 9.80047C16.1025 9.84147 16.0776 9.87871 16.0462 9.91005L11.9619 13.9951L16.0462 18.0793C16.0797 18.1103 16.1065 18.1477 16.1252 18.1893C16.1439 18.2308 16.154 18.2758 16.1549 18.3213C16.1557 18.3669 16.1474 18.4122 16.1304 18.4545C16.1134 18.4968 16.088 18.5352 16.0557 18.5674C16.0235 18.5996 15.9851 18.625 15.9428 18.6421C15.9005 18.6591 15.8553 18.6674 15.8097 18.6665C15.7641 18.6656 15.7192 18.6555 15.6776 18.6369C15.636 18.6182 15.5986 18.5913 15.5677 18.5579L11.0049 13.9951" stroke="black" stroke-width="0.5" stroke-linecap="round"/>
</svg>
