<svg xmlns="http://www.w3.org/2000/svg" width="21.02" height="21.072" viewBox="0 0 21.02 21.072"><g transform="translate(0.012 0.002)"><path d="M7775.51,13114.311a2.079,2.079,0,0,1-.51-1.6l1.859-16.711a2.222,2.222,0,0,1,2.271-2H7791.9a2.24,2.24,0,0,1,2.222,1.922L7796,13112.7a2.137,2.137,0,0,1-.52,1.6,2.256,2.256,0,0,1-1.7.77h-16.562A2.3,2.3,0,0,1,7775.51,13114.311Zm2.841-18.179-1.85,16.736a.594.594,0,0,0,.148.451.629.629,0,0,0,.579.25h16.52a.8.8,0,0,0,.6-.26.555.555,0,0,0,.138-.447l-1.85-16.74a.761.761,0,0,0-.741-.593h-12.847A.709.709,0,0,0,7778.351,13096.132Zm3.512,10.374a4.513,4.513,0,0,1-1.3-3.347v-4.618a.749.749,0,0,1,.8-.7.738.738,0,0,1,.7.79,13.115,13.115,0,0,0-.06,1.659v2.859a3.076,3.076,0,0,0,3.209,3.189,4.087,4.087,0,0,0,2.7-.878,3.066,3.066,0,0,0,.839-2.312v-4.559a.75.75,0,0,1,1.5,0h.059v4.559a4.472,4.472,0,0,1-1.31,3.41,5.449,5.449,0,0,1-3.578,1.28h-.22c-.044,0-.088,0-.132,0A4.516,4.516,0,0,1,7781.863,13106.506Z" transform="translate(-7775 -13094)"/></g></svg>