<svg width="294" height="48" viewBox="0 0 294 48" fill="none" xmlns="http://www.w3.org/2000/svg">
<g clip-path="url(#clip0_1266_5767)">
<path d="M0 8C0 3.58172 3.58172 0 8 0H286C290.418 0 294 3.58172 294 8V40C294 44.4183 290.418 48 286 48H8C3.58172 48 0 44.4183 0 40V8Z" fill="#5E7360"/>
<g filter="url(#filter0_d_1266_5767)">
<mask id="mask0_1266_5767" style="mask-type:alpha" maskUnits="userSpaceOnUse" x="0" y="0" width="294" height="48">
<rect width="294" height="48" rx="8" fill="#C4C4C4"/>
</mask>
<g mask="url(#mask0_1266_5767)">
<rect width="294" height="48" rx="8" fill="url(#paint0_linear_1266_5767)"/>
<g opacity="0.67">
<g opacity="0.67">
<g opacity="0.67" filter="url(#filter1_d_1266_5767)">
<path opacity="0.67" d="M-18.5225 10.4426C-22.9234 5.20904 -19.2668 -2.74231 -12.4301 -2.6131C40.326 -1.61605 198.09 2.66421 239.459 18.6316C272.994 31.5752 291.929 52.7737 300.743 65.288C304.018 69.938 300.711 75.7421 295.03 76.0215L50.8474 88.0302C48.3508 88.153 45.9403 87.1017 44.3315 85.1886L-18.5225 10.4426Z" fill="url(#paint1_linear_1266_5767)"/>
</g>
<g opacity="0.67" filter="url(#filter2_d_1266_5767)">
<path opacity="0.67" d="M-29.8492 7.5504C-30.6314 2.54828 -26.6494 -1.90279 -21.5946 -1.61584C12.441 0.316296 126.021 7.83567 168.229 24.1263C199.414 36.1629 220.751 53.1922 232.37 64.2741C237.044 68.7322 233.989 75.8696 227.537 76.1869L-10.0479 87.8711C-14.1336 88.0721 -17.7127 85.1584 -18.3447 81.1168L-29.8492 7.5504Z" fill="url(#paint2_linear_1266_5767)"/>
</g>
<g opacity="0.67" filter="url(#filter3_d_1266_5767)">
<path opacity="0.67" d="M-23.4692 4.4593C-22.8467 -0.0294683 -18.6592 -3.10236 -14.207 -2.25742C6.62102 1.69527 62.4667 12.9907 93.4885 25.945C117.866 36.1246 127.34 48.5203 131.012 56.286C132.884 60.2431 129.814 64.0294 125.447 64.3261L-23.4491 74.445C-28.5128 74.7891 -32.6129 70.3917 -31.9157 65.3645L-23.4692 4.4593Z" fill="url(#paint3_linear_1266_5767)"/>
</g>
<g opacity="0.67" filter="url(#filter4_d_1266_5767)">
<path opacity="0.67" d="M199.692 -18.4741C194.771 -19.2403 191.243 -15.2953 194.406 -11.4484C197.684 -7.46298 203.564 -2.60387 214.112 1.90774C236.832 11.6256 281.212 19.7305 284.123 20.2559C284.228 20.2749 284.311 20.2884 284.417 20.3017C286.758 20.5955 316.686 23.9937 304.588 3.94761C303.771 2.59273 302.498 1.58895 300.997 1.08507C281.921 -5.32286 222.816 -14.8736 199.692 -18.4741Z" fill="url(#paint4_linear_1266_5767)"/>
</g>
<g opacity="0.67" filter="url(#filter5_d_1266_5767)">
<path opacity="0.702" d="M174.412 69.2006C160.056 87.5977 104.99 98.5116 51.419 93.578C-2.15201 88.6444 -33.942 69.7311 -19.5856 51.334C-5.2292 32.9368 49.836 22.025 103.408 26.9565C156.979 31.888 188.773 50.8044 174.412 69.2006Z" fill="url(#paint5_linear_1266_5767)"/>
</g>
</g>
</g>
<g opacity="0.17">
<path d="M291.987 35.9171L292.74 35.6471L292.726 35.609L292.709 35.5725L291.987 35.9171ZM285.268 21.8424L284.733 21.2478L284.289 21.6476L284.546 22.187L285.268 21.8424ZM286.111 21.2047L286.537 21.8818L286.552 21.8723L286.566 21.8623L286.111 21.2047ZM286.439 20.9769L286.016 20.2981L286 20.3083L285.984 20.3193L286.439 20.9769ZM288.967 12.3453L288.212 12.6102L288.219 12.6312L288.228 12.6517L288.967 12.3453ZM288.823 11.9354L289.578 11.6706L289.57 11.6483L289.561 11.6265L288.823 11.9354ZM288.823 6.35562L289.561 6.66456L289.567 6.6495L289.573 6.63419L288.823 6.35562ZM288.967 5.96845L288.222 5.6762L288.219 5.68301L288.217 5.68988L288.967 5.96845ZM286.378 -2.68591L286.807 -3.36132L286.801 -3.36476L286.378 -2.68591ZM286.049 -2.89089L285.621 -2.21504L285.626 -2.21204L286.049 -2.89089ZM283.07 -7.44582H282.27V-7.37218L282.283 -7.29978L283.07 -7.44582ZM283.07 -7.85576H283.87V-7.9332L283.855 -8.0092L283.07 -7.85576ZM276.434 -13.2078V-12.4078H276.478L276.522 -12.4127L276.434 -13.2078ZM276.043 -13.2078V-14.0078H275.995L275.947 -14.002L276.043 -13.2078ZM271.256 -14.9159L270.682 -14.3584L270.692 -14.3489L271.256 -14.9159ZM270.969 -15.212L271.543 -15.7694L271.542 -15.7696L270.969 -15.212ZM266.86 -17V-17.8V-17ZM262.751 -15.212L262.177 -15.7696L262.177 -15.7694L262.751 -15.212ZM262.463 -14.9159L263.036 -14.3573L263.037 -14.3584L262.463 -14.9159ZM257.614 -13.1395L257.71 -13.9338L257.662 -13.9395H257.614V-13.1395ZM257.224 -13.1395L257.146 -12.3433L257.185 -12.3395H257.224V-13.1395ZM250.67 -7.83298L249.886 -7.9921L249.87 -7.91334V-7.83298H250.67ZM250.67 -7.42304L251.457 -7.27859L251.47 -7.35022V-7.42304H250.67ZM247.711 -2.86811L248.065 -2.15048L248.105 -2.1702L248.143 -2.19425L247.711 -2.86811ZM247.342 -2.68591L246.988 -3.40355L246.946 -3.38274L246.906 -3.35713L247.342 -2.68591ZM244.814 5.96845L244.071 6.26419L244.074 6.27267L244.078 6.28107L244.814 5.96845ZM244.979 6.35562L245.721 6.05624L245.718 6.0496L245.715 6.043L244.979 6.35562ZM244.979 11.9354L244.237 11.636L244.236 11.6377L244.979 11.9354ZM244.814 12.3453L245.554 12.6517L245.557 12.6431L244.814 12.3453ZM247.342 20.9769L247.803 20.3232L247.784 20.3101L247.765 20.2981L247.342 20.9769ZM247.568 21.1364L248.288 21.4831L248.582 20.8729L248.029 20.4826L247.568 21.1364ZM240.459 35.9171L239.738 35.5704L239.722 35.6027L239.71 35.6363L240.459 35.9171ZM243.993 40.6315L243.829 39.8484L243.819 39.8505L243.809 39.8528L243.993 40.6315ZM253.279 45.7557L254.038 45.5038L254.034 45.4914L254.03 45.4792L253.279 45.7557ZM258.703 46.3934L259.398 46.7898L259.442 46.7127L259.468 46.6278L258.703 46.3934ZM273.845 46.3934L273.084 46.6396L273.115 46.7346L273.168 46.8191L273.845 46.3934ZM279.166 45.7102L278.416 45.4336L278.413 45.4405L279.166 45.7102ZM288.453 40.5859L288.631 39.806L288.618 39.8032L288.453 40.5859ZM282.844 16.9003L282.102 16.6002L282.099 16.6084L282.844 16.9003ZM267.209 28.5153V29.3153H267.218L267.226 29.3152L267.209 28.5153ZM266.86 28.5153V27.7153H266.835L266.811 27.7169L266.86 28.5153ZM265.195 28.5153L265.109 29.3107L265.128 29.3127L265.146 29.3138L265.195 28.5153ZM250.567 16.1032L251.324 15.8446L251.322 15.8384L250.567 16.1032ZM249.396 9.27077H248.596L248.596 9.27421L249.396 9.27077ZM266.86 -10.0877V-10.8877V-10.0877ZM284.323 9.27077L285.123 9.27203V9.27077H284.323ZM292.709 35.5725L285.99 21.4978L284.546 22.187L291.265 36.2617L292.709 35.5725ZM285.804 22.437C286.035 22.229 286.28 22.0434 286.537 21.8818L285.685 20.5276C285.349 20.7387 285.031 20.9797 284.733 21.2478L285.804 22.437ZM286.566 21.8623L286.895 21.6345L285.984 20.3193L285.655 20.5471L286.566 21.8623ZM286.863 21.6558C288.364 20.7199 289.472 19.2062 289.991 17.4329L288.456 16.9833C288.038 18.4082 287.159 19.5853 286.016 20.2981L286.863 21.6558ZM289.991 17.4329C290.51 15.66 290.409 13.7367 289.706 12.039L288.228 12.6517C288.79 14.0094 288.873 15.5578 288.456 16.9833L289.991 17.4329ZM289.721 12.0805L289.578 11.6706L288.068 12.2002L288.212 12.6102L289.721 12.0805ZM289.561 11.6265C289.236 10.8519 289.067 10.005 289.067 9.14551H287.467C287.467 10.2134 287.677 11.2707 288.085 12.2444L289.561 11.6265ZM289.067 9.14551C289.067 8.28607 289.236 7.43916 289.561 6.66456L288.085 6.04667C287.677 7.02034 287.467 8.07759 287.467 9.14551H289.067ZM289.573 6.63419L289.716 6.24702L288.217 5.68988L288.073 6.07705L289.573 6.63419ZM289.711 6.2607C290.382 4.55037 290.46 2.63057 289.931 0.863325L288.398 1.32185C288.825 2.74847 288.762 4.30098 288.222 5.6762L289.711 6.2607ZM289.931 0.863325C289.403 -0.904411 288.298 -2.41452 286.807 -3.3613L285.949 -2.01053C287.092 -1.28501 287.972 -0.104279 288.398 1.32185L289.931 0.863325ZM286.801 -3.36476L286.472 -3.56973L285.626 -2.21204L285.955 -2.00707L286.801 -3.36476ZM286.477 -3.56671C285.818 -3.98418 285.24 -4.55658 284.786 -5.25056L283.447 -4.37478C284.021 -3.49801 284.76 -2.76016 285.621 -2.21506L286.477 -3.56671ZM284.786 -5.25056C284.332 -5.94469 284.014 -6.7426 283.857 -7.59184L282.283 -7.29978C282.479 -6.24873 282.874 -5.2514 283.447 -4.37478L284.786 -5.25056ZM283.87 -7.44582V-7.85576H282.27V-7.44582H283.87ZM283.855 -8.0092C283.501 -9.82118 282.555 -11.4438 281.174 -12.5568L280.17 -11.3113C281.238 -10.4503 281.998 -9.16962 282.285 -7.70232L283.855 -8.0092ZM281.174 -12.5568C279.792 -13.672 278.072 -14.194 276.346 -14.0029L276.522 -12.4127C277.807 -12.5549 279.105 -12.1702 280.17 -11.3113L281.174 -12.5568ZM276.434 -14.0078H276.043V-12.4078H276.434V-14.0078ZM275.947 -14.002C275.21 -13.9128 274.464 -13.9965 273.754 -14.2495L273.217 -12.7426C274.157 -12.4069 275.154 -12.2942 276.14 -12.4136L275.947 -14.002ZM273.754 -14.2495C273.045 -14.5027 272.385 -14.921 271.821 -15.4829L270.692 -14.3489C271.417 -13.6273 272.277 -13.078 273.217 -12.7426L273.754 -14.2495ZM271.83 -15.4733L271.543 -15.7694L270.395 -14.6545L270.683 -14.3584L271.83 -15.4733ZM271.542 -15.7696C270.283 -17.0649 268.612 -17.8 266.86 -17.8V-16.2C268.156 -16.2 269.42 -15.6577 270.395 -14.6544L271.542 -15.7696ZM266.86 -17.8C265.107 -17.8 263.436 -17.0649 262.177 -15.7696L263.324 -14.6544C264.299 -15.6577 265.564 -16.2 266.86 -16.2V-17.8ZM262.177 -15.7694L261.889 -15.4733L263.037 -14.3584L263.324 -14.6545L262.177 -15.7694ZM261.89 -15.4745C261.324 -14.8936 260.657 -14.4597 259.937 -14.196L260.488 -12.6937C261.441 -13.0429 262.309 -13.6122 263.036 -14.3573L261.89 -15.4745ZM259.937 -14.196C259.218 -13.9325 258.459 -13.8438 257.71 -13.9338L257.519 -12.3452C258.521 -12.2248 259.534 -12.3443 260.488 -12.6937L259.937 -14.196ZM257.614 -13.9395H257.224V-12.3395H257.614V-13.9395ZM257.302 -13.9357C255.597 -14.1021 253.906 -13.5751 252.544 -12.4725L253.551 -11.229C254.6 -12.0784 255.877 -12.4671 257.146 -12.3433L257.302 -13.9357ZM252.544 -12.4725C251.185 -11.3721 250.248 -9.77628 249.886 -7.9921L251.454 -7.67387C251.747 -9.11819 252.5 -10.3776 253.551 -11.229L252.544 -12.4725ZM249.87 -7.83298V-7.42304H251.47V-7.83298H249.87ZM249.883 -7.56749C249.727 -6.71999 249.412 -5.92313 248.961 -5.22903L250.303 -4.3575C250.872 -5.23388 251.264 -6.22976 251.457 -7.27859L249.883 -7.56749ZM248.961 -5.22903C248.51 -4.53509 247.936 -3.96164 247.28 -3.54197L248.143 -2.19425C248.999 -2.74202 249.734 -3.48097 250.303 -4.3575L248.961 -5.22903ZM247.358 -3.58575L246.988 -3.40355L247.695 -1.96828L248.065 -2.15048L247.358 -3.58575ZM246.906 -3.35713C245.428 -2.39828 244.338 -0.883383 243.822 0.883089L245.358 1.33156C245.774 -0.0939426 246.643 -1.27937 247.777 -2.0147L246.906 -3.35713ZM243.822 0.883089C243.306 2.64909 243.394 4.56242 244.071 6.26419L245.558 5.67271C245.014 4.30474 244.941 2.75754 245.358 1.33156L243.822 0.883089ZM244.078 6.28107L244.242 6.66824L245.715 6.043L245.551 5.65583L244.078 6.28107ZM244.237 6.65499C244.552 7.43601 244.716 8.28493 244.716 9.14551H246.316C246.316 8.08307 246.114 7.03062 245.721 6.05624L244.237 6.65499ZM244.716 9.14551C244.716 10.0061 244.552 10.855 244.237 11.636L245.721 12.2348C246.114 11.2604 246.316 10.2079 246.316 9.14551H244.716ZM244.236 11.6377L244.072 12.0476L245.557 12.6431L245.721 12.2331L244.236 11.6377ZM244.075 12.039C243.372 13.7367 243.271 15.66 243.79 17.4329L245.325 16.9833C244.908 15.5578 244.991 14.0094 245.553 12.6517L244.075 12.039ZM243.79 17.4329C244.309 19.2062 245.417 20.7199 246.918 21.6558L247.765 20.2981C246.622 19.5853 245.743 18.4082 245.325 16.9833L243.79 17.4329ZM246.88 21.6307L247.106 21.7901L248.029 20.4826L247.803 20.3232L246.88 21.6307ZM246.847 20.7896L239.738 35.5704L241.18 36.2638L248.288 21.4831L246.847 20.7896ZM239.71 35.6363C239.444 36.3446 239.359 37.1162 239.462 37.8698L241.047 37.654C240.98 37.1595 241.036 36.6552 241.208 36.1979L239.71 35.6363ZM239.462 37.8698C239.565 38.6235 239.852 39.3391 240.301 39.9377L241.581 38.978C241.302 38.6058 241.115 38.1485 241.047 37.654L239.462 37.8698ZM240.301 39.9377C240.75 40.5369 241.346 40.999 242.032 41.2628L242.606 39.7694C242.216 39.6194 241.859 39.3497 241.581 38.978L240.301 39.9377ZM242.032 41.2628C242.719 41.5269 243.462 41.5787 244.176 41.4101L243.809 39.8528C243.41 39.947 242.995 39.9189 242.606 39.7694L242.032 41.2628ZM244.157 41.4145C246.662 40.8897 248.353 41.1082 249.583 41.8399C250.823 42.5776 251.754 43.9304 252.528 46.0323L254.03 45.4792C253.202 43.2311 252.099 41.4752 250.401 40.4649C248.693 39.4487 246.542 39.2801 243.829 39.8484L244.157 41.4145ZM252.52 46.0077C252.759 46.7277 253.178 47.3702 253.741 47.8562L254.787 46.6455C254.454 46.358 254.191 45.9647 254.038 45.5038L252.52 46.0077ZM253.741 47.8562C254.304 48.343 254.989 48.6528 255.719 48.7386L255.906 47.1496C255.507 47.1027 255.119 46.9322 254.787 46.6455L253.741 47.8562ZM255.719 48.7386C256.449 48.8245 257.183 48.6811 257.836 48.3313L257.079 46.9214C256.71 47.1197 256.304 47.1964 255.906 47.1496L255.719 48.7386ZM257.836 48.3313C258.487 47.9822 259.025 47.4445 259.398 46.7898L258.008 45.9971C257.775 46.4059 257.45 46.7224 257.079 46.9214L257.836 48.3313ZM258.703 46.3934C259.468 46.6278 259.468 46.6278 259.468 46.6278C259.468 46.6277 259.468 46.6276 259.468 46.6274C259.468 46.6271 259.468 46.6265 259.469 46.6258C259.469 46.6244 259.47 46.6221 259.471 46.6191C259.473 46.613 259.475 46.6039 259.479 46.5917C259.487 46.5673 259.498 46.5308 259.513 46.4831C259.543 46.3876 259.587 46.2471 259.644 46.068C259.757 45.7096 259.922 45.1971 260.127 44.5818C260.536 43.3502 261.102 41.7115 261.73 40.0757C262.361 38.4339 263.045 36.8208 263.689 35.6282C264.013 35.0281 264.308 34.5688 264.562 34.2703C264.689 34.1211 264.785 34.0366 264.847 33.9945C264.912 33.9506 264.892 33.9843 264.805 33.9843V32.3843C264.461 32.3843 264.169 32.5211 263.949 32.6707C263.726 32.8221 263.524 33.0214 263.344 33.2335C262.983 33.6573 262.625 34.2299 262.281 34.8682C261.588 36.1524 260.875 37.8416 260.237 39.502C259.597 41.1685 259.022 42.8321 258.608 44.0772C258.401 44.7003 258.234 45.2197 258.119 45.5838C258.061 45.7658 258.016 45.9091 257.985 46.0071C257.97 46.0561 257.958 46.0938 257.95 46.1194C257.946 46.1322 257.943 46.142 257.941 46.1486C257.94 46.1519 257.94 46.1545 257.939 46.1562C257.939 46.1571 257.939 46.1578 257.938 46.1582C257.938 46.1585 257.938 46.1587 257.938 46.1588C257.938 46.159 257.938 46.1591 258.703 46.3934ZM264.805 33.9843C265.339 33.9843 265.804 33.9635 266.206 33.945C266.616 33.9261 266.941 33.9107 267.231 33.9158C267.782 33.9256 268.116 34.0091 268.451 34.2467L269.377 32.9417C268.685 32.4506 267.992 32.3291 267.259 32.3161C266.907 32.3098 266.525 32.3286 266.132 32.3467C265.732 32.3652 265.299 32.3843 264.805 32.3843V33.9843ZM268.451 34.2467C268.387 34.2012 268.395 34.1837 268.472 34.2996C268.534 34.3938 268.613 34.5321 268.709 34.7185C268.9 35.0899 269.127 35.5981 269.379 36.2073C269.881 37.4225 270.46 38.9846 271.011 40.5349C271.561 42.083 272.079 43.6095 272.46 44.7496C272.651 45.3195 272.807 45.7925 272.915 46.1227C272.969 46.2879 273.012 46.4173 273.04 46.5054C273.055 46.5494 273.066 46.5831 273.073 46.6057C273.077 46.617 273.079 46.6255 273.081 46.6312C273.082 46.6341 273.083 46.6362 273.083 46.6376C273.083 46.6383 273.084 46.6388 273.084 46.6391C273.084 46.6393 273.084 46.6394 273.084 46.6395C273.084 46.6396 273.084 46.6396 273.845 46.3934C274.606 46.1473 274.606 46.1472 274.606 46.1471C274.606 46.147 274.606 46.1468 274.606 46.1466C274.606 46.1462 274.606 46.1456 274.606 46.1449C274.605 46.1434 274.604 46.1411 274.603 46.1381C274.601 46.1322 274.599 46.1234 274.595 46.1119C274.587 46.0888 274.576 46.0546 274.562 46.01C274.533 45.9209 274.49 45.7903 274.435 45.624C274.326 45.2913 274.169 44.8155 273.978 44.2424C273.595 43.0966 273.073 41.56 272.519 39.9993C271.965 38.441 271.375 36.8488 270.857 35.5958C270.599 34.9709 270.352 34.4165 270.133 33.9883C270.023 33.775 269.914 33.5792 269.806 33.4165C269.713 33.2755 269.569 33.0783 269.377 32.9417L268.451 34.2467ZM273.168 46.8191C273.555 47.436 274.094 47.9358 274.733 48.2552L275.448 46.824C275.086 46.6428 274.763 46.3504 274.522 45.9678L273.168 46.8191ZM274.733 48.2552C275.373 48.5752 276.086 48.6992 276.792 48.6085L276.588 47.0215C276.203 47.071 275.81 47.0047 275.448 46.824L274.733 48.2552ZM276.792 48.6085C277.498 48.5179 278.159 48.2179 278.708 47.7512L277.672 46.532C277.349 46.8066 276.974 46.972 276.588 47.0215L276.792 48.6085ZM278.708 47.7512C279.257 47.2851 279.672 46.671 279.92 45.9799L278.413 45.4405C278.255 45.8817 277.996 46.2569 277.672 46.532L278.708 47.7512ZM279.917 45.9867C280.69 43.8879 281.631 42.5337 282.877 41.795C284.113 41.0621 285.805 40.8445 288.288 41.3686L288.618 39.8032C285.923 39.2341 283.773 39.4037 282.061 40.4187C280.359 41.428 279.245 43.1825 278.416 45.4336L279.917 45.9867ZM288.274 41.3657C288.983 41.5279 289.718 41.474 290.397 41.2121L289.822 39.7191C289.437 39.8674 289.027 39.8966 288.631 39.8061L288.274 41.3657ZM290.397 41.2121C291.076 40.9506 291.668 40.4946 292.115 39.9036L290.839 38.938C290.562 39.3043 290.208 39.5704 289.822 39.7191L290.397 41.2121ZM292.115 39.9036C292.562 39.3131 292.851 38.6071 292.959 37.862L291.376 37.6317C291.305 38.1203 291.117 38.5711 290.839 38.938L292.115 39.9036ZM292.959 37.862C293.068 37.117 292.993 36.3524 292.74 35.6471L291.234 36.1871C291.397 36.6431 291.447 37.143 291.376 37.6317L292.959 37.862ZM282.099 16.6084C280.821 19.8693 278.731 22.6428 276.086 24.6074L277.04 25.8917C279.939 23.7383 282.208 20.716 283.589 17.1921L282.099 16.6084ZM276.086 24.6074C273.443 26.5711 270.355 27.646 267.191 27.7155L267.226 29.3152C270.734 29.2381 274.14 28.046 277.04 25.8917L276.086 24.6074ZM267.209 27.7153H266.86V29.3153H267.209V27.7153ZM266.811 27.7169C266.289 27.7489 265.766 27.7489 265.245 27.7169L265.146 29.3138C265.733 29.3499 266.322 29.3499 266.909 29.3138L266.811 27.7169ZM265.282 27.72C262.208 27.3859 259.27 26.1054 256.802 24.0113L255.767 25.2313C258.469 27.5236 261.704 28.9406 265.109 29.3107L265.282 27.72ZM256.802 24.0113C254.333 21.9164 252.433 19.09 251.324 15.8446L249.81 16.3617C251.007 19.8655 253.067 22.9398 255.767 25.2313L256.802 24.0113ZM251.322 15.8384C250.588 13.7446 250.206 11.5172 250.196 9.26734L248.596 9.27421C248.606 11.6998 249.018 14.104 249.812 16.3679L251.322 15.8384ZM250.196 9.27077C250.196 4.32369 251.97 -0.40629 255.105 -3.88185L253.917 -4.95358C250.502 -1.16832 248.596 3.9495 248.596 9.27077H250.196ZM255.105 -3.88185C258.238 -7.35468 262.468 -9.28767 266.86 -9.28767V-10.8877C261.988 -10.8877 257.334 -8.74157 253.917 -4.95358L255.105 -3.88185ZM266.86 -9.28767C271.251 -9.28767 275.481 -7.35468 278.614 -3.88185L279.802 -4.95358C276.385 -8.74157 271.732 -10.8877 266.86 -10.8877V-9.28767ZM278.614 -3.88185C281.75 -0.40629 283.523 4.32369 283.523 9.27077H285.123C285.123 3.9495 283.217 -1.16832 279.802 -4.95358L278.614 -3.88185ZM283.523 9.26952C283.519 11.7989 283.034 14.2969 282.102 16.6002L283.586 17.2004C284.596 14.7041 285.119 12.0029 285.123 9.27203L283.523 9.26952Z" fill="white"/>
<path d="M266.859 -10.2012C264.557 -10.2012 262.278 -9.69673 260.153 -8.71677C258.027 -7.7368 256.097 -6.30068 254.474 -4.491C252.851 -2.68132 251.567 -0.533805 250.696 1.82803C249.824 4.18986 249.382 6.71941 249.396 9.27116C249.406 11.6089 249.803 13.9247 250.567 16.1035C251.732 19.4611 253.717 22.3924 256.301 24.5688C258.885 26.7451 261.965 28.0803 265.195 28.4246C265.75 28.4587 266.305 28.4587 266.859 28.4246H267.209C270.545 28.3514 273.791 27.2178 276.563 25.1588C279.335 23.0998 281.515 20.2019 282.844 16.8096C283.804 14.4379 284.307 11.8706 284.323 9.27116C284.339 6.71857 283.899 4.18767 283.029 1.82447C282.158 -0.538728 280.874 -2.68745 279.251 -4.49773C277.627 -6.30802 275.696 -7.74403 273.569 -8.72293C271.443 -9.70182 269.162 -10.2042 266.859 -10.2012V-10.2012ZM274.81 7.10757L272.098 10.6832C272.025 10.7671 271.969 10.8674 271.934 10.9774C271.898 11.0874 271.884 11.2045 271.893 11.3209L272.201 15.8758C272.212 16.0305 272.186 16.1856 272.127 16.3263C272.068 16.467 271.978 16.5888 271.865 16.68C271.752 16.7713 271.62 16.829 271.481 16.8477C271.342 16.8663 271.201 16.8454 271.071 16.7868L267.168 15.0104C267.07 14.9653 266.965 14.942 266.859 14.942C266.754 14.942 266.649 14.9653 266.551 15.0104L262.648 16.7868C262.518 16.8454 262.377 16.8663 262.238 16.8477C262.099 16.829 261.967 16.7713 261.854 16.68C261.741 16.5888 261.65 16.467 261.592 16.3263C261.533 16.1856 261.507 16.0305 261.518 15.8758L261.826 11.3209C261.842 11.0897 261.775 10.8609 261.641 10.6832L258.929 7.10757C258.837 6.98918 258.774 6.84656 258.746 6.69342C258.718 6.54028 258.726 6.38177 258.77 6.2331C258.813 6.08444 258.89 5.95063 258.994 5.84453C259.097 5.73842 259.223 5.66359 259.36 5.62721L263.469 4.51126C263.572 4.48239 263.668 4.43131 263.753 4.36095C263.838 4.29059 263.909 4.20234 263.963 4.10131L266.161 0.161302C266.235 0.0294736 266.337 -0.0793137 266.46 -0.154755C266.582 -0.230195 266.719 -0.269791 266.859 -0.269791C266.999 -0.269791 267.137 -0.230195 267.259 -0.154755C267.381 -0.0793137 267.484 0.0294736 267.558 0.161302L269.777 4.12409C269.893 4.32955 270.078 4.47659 270.29 4.53403L274.4 5.64999C274.528 5.69573 274.645 5.77508 274.74 5.88135C274.835 5.98762 274.906 6.11768 274.946 6.26058C274.987 6.40348 274.995 6.55503 274.972 6.70244C274.948 6.84984 274.893 6.98879 274.81 7.10757V7.10757Z" stroke="white" stroke-width="1.6"/>
<path d="M272.099 10.6825C272.025 10.7664 271.969 10.8667 271.934 10.9767C271.898 11.0867 271.884 11.2038 271.893 11.3202L272.201 15.8751C272.212 16.0298 272.186 16.1848 272.127 16.3256C272.069 16.4663 271.978 16.5881 271.865 16.6793C271.752 16.7706 271.62 16.8283 271.481 16.8469C271.342 16.8656 271.201 16.8447 271.071 16.7861L267.168 15.0097C267.07 14.9646 266.965 14.9413 266.86 14.9413C266.754 14.9413 266.649 14.9646 266.551 15.0097L262.648 16.7861C262.518 16.8447 262.377 16.8656 262.238 16.8469C262.099 16.8283 261.967 16.7706 261.854 16.6793C261.741 16.5881 261.65 16.4663 261.592 16.3256C261.533 16.1848 261.507 16.0298 261.518 15.8751L261.826 11.3202C261.842 11.089 261.775 10.8601 261.641 10.6825L258.929 7.10685C258.837 6.98846 258.774 6.84584 258.746 6.6927C258.718 6.53957 258.726 6.38105 258.77 6.23239C258.813 6.08373 258.89 5.94992 258.994 5.84381C259.097 5.7377 259.223 5.66287 259.36 5.6265L263.47 4.51054C263.572 4.48168 263.668 4.43059 263.753 4.36023C263.838 4.28987 263.909 4.20163 263.963 4.1006L266.161 0.160586C266.235 0.0287571 266.338 -0.0800302 266.46 -0.155471C266.582 -0.230912 266.72 -0.270508 266.86 -0.270508C266.999 -0.270508 267.137 -0.230912 267.259 -0.155471C267.382 -0.0800302 267.484 0.0287571 267.558 0.160586L269.777 4.12337C269.894 4.32884 270.078 4.47588 270.291 4.53332L274.4 5.64927C274.533 5.69091 274.656 5.76857 274.756 5.87533C274.856 5.9821 274.931 6.11466 274.974 6.2612C275.016 6.40774 275.026 6.56372 275.001 6.71524C274.976 6.86676 274.918 7.00912 274.831 7.12963L272.099 10.6825Z" stroke="white" stroke-width="1.6"/>
</g>
</g>
</g>
<path d="M32.9108 31.3989L33.375 31.2132L33.3649 31.1879L33.3521 31.1639L32.9108 31.3989ZM30.197 26.3029L29.883 25.9137L29.5614 26.1732L29.7557 26.5379L30.197 26.3029ZM30.5372 26.072L30.7829 26.5075L30.7921 26.5023L30.801 26.4967L30.5372 26.072ZM30.67 25.9895L30.4261 25.5531L30.416 25.5587L30.4063 25.5648L30.67 25.9895ZM31.6908 22.8643L31.2252 23.0465L31.2307 23.0605L31.237 23.0742L31.6908 22.8643ZM31.6327 22.7159L32.0983 22.5336L32.0925 22.5188L32.0858 22.5043L31.6327 22.7159ZM31.6327 20.6956L32.0858 20.9072L32.0904 20.8972L32.0946 20.887L31.6327 20.6956ZM31.6908 20.5554L31.2327 20.3548L31.2289 20.364L31.6908 20.5554ZM30.6451 17.4219L30.8924 16.9874L30.8891 16.9855L30.6451 17.4219ZM30.5123 17.3477L30.2655 17.7825L30.2684 17.7842L30.5123 17.3477ZM29.309 15.6985H28.809V15.7498L28.8194 15.7999L29.309 15.6985ZM29.309 15.5501H29.809V15.4962L29.7975 15.4436L29.309 15.5501ZM26.6284 13.6123V14.1123H26.6531L26.6777 14.1099L26.6284 13.6123ZM26.4707 13.6123V13.1123H26.4436L26.4167 13.1152L26.4707 13.6123ZM24.537 12.9938L24.1979 13.3614L24.2041 13.367L24.537 12.9938ZM24.4208 12.8866L24.7598 12.5192L24.7597 12.5191L24.4208 12.8866ZM22.761 12.2393V11.7393V12.2393ZM21.1011 12.8866L20.7622 12.5191L20.7621 12.5192L21.1011 12.8866ZM20.9849 12.9938L21.3232 13.362L21.324 13.3613L20.9849 12.9938ZM19.0264 13.637L19.0799 13.1399L19.0532 13.137H19.0264V13.637ZM18.8687 13.637L18.8251 14.1351L18.8468 14.137H18.8687V13.637ZM16.2212 15.5584L15.7336 15.4479L15.7212 15.5025V15.5584H16.2212ZM16.2212 15.7068L16.7111 15.8071L16.7212 15.7575V15.7068H16.2212ZM15.0262 17.356L15.2282 17.8134L15.2522 17.8028L15.2749 17.7897L15.0262 17.356ZM14.8768 17.4219L14.6748 16.9646L14.6495 16.9757L14.6255 16.9897L14.8768 17.4219ZM13.856 20.5554L13.3989 20.7583L13.4041 20.7694L13.856 20.5554ZM13.9224 20.6956L14.3784 20.4903L14.3743 20.4816L13.9224 20.6956ZM13.9224 22.7159L13.4665 22.5106L13.466 22.5117L13.9224 22.7159ZM13.856 22.8643L14.3098 23.0742L14.3124 23.0685L13.856 22.8643ZM14.8768 25.9895L15.144 25.5669L15.1326 25.5597L15.1207 25.5531L14.8768 25.9895ZM14.9681 26.0472L15.4087 26.2837L15.6288 25.8734L15.2353 25.6246L14.9681 26.0472ZM12.0966 31.3989L11.656 31.1625L11.6446 31.1837L11.6353 31.206L12.0966 31.3989ZM13.524 33.1058L13.4317 32.6143L13.4206 32.6166L13.524 33.1058ZM17.2752 34.9612L17.7441 34.7876L17.7411 34.7793L17.7377 34.7711L17.2752 34.9612ZM19.4662 35.1921L19.8881 35.4605L19.92 35.4102L19.9393 35.3538L19.4662 35.1921ZM25.5827 35.1921L25.1123 35.3618L25.135 35.4245L25.1733 35.4791L25.5827 35.1921ZM27.7321 34.9447L27.2697 34.7546L27.2678 34.7592L27.7321 34.9447ZM31.4833 33.0893L31.5839 32.5995L31.5763 32.598L31.4833 33.0893ZM29.2177 24.5135L28.7619 24.3077L28.7595 24.3132L29.2177 24.5135ZM22.902 28.719V29.219L22.9119 29.2189L22.902 28.719ZM22.761 28.719V28.219H22.7472L22.7335 28.2197L22.761 28.719ZM22.0887 28.719L22.0403 29.2166L22.0507 29.2176L22.0612 29.2182L22.0887 28.719ZM16.1798 24.2249L16.647 24.0469L16.6454 24.0427L16.1798 24.2249ZM15.7067 21.7511H15.2067L15.2067 21.7535L15.7067 21.7511ZM22.761 14.742V14.242V14.742ZM29.8152 21.7511L30.3152 21.752V21.7511H29.8152ZM33.3521 31.1639L30.6383 26.0679L29.7557 26.5379L32.4695 31.6339L33.3521 31.1639ZM30.5109 26.692C30.5963 26.6232 30.6872 26.5614 30.7829 26.5075L30.2916 25.6365C30.148 25.7175 30.0113 25.8102 29.883 25.9137L30.5109 26.692ZM30.801 26.4967L30.9338 26.4143L30.4063 25.5648L30.2735 25.6472L30.801 26.4967ZM30.914 26.426C31.5571 26.0665 32.0415 25.4792 32.2698 24.7802L31.3193 24.4697C31.1693 24.9287 30.8509 25.3157 30.4261 25.5531L30.914 26.426ZM32.2698 24.7802C32.4982 24.0811 32.4534 23.3221 32.1446 22.6544L31.237 23.0742C31.4398 23.5127 31.4691 24.0108 31.3193 24.4697L32.2698 24.7802ZM32.1564 22.6821L32.0983 22.5336L31.1671 22.8981L31.2252 23.0465L32.1564 22.6821ZM32.0858 22.5043C31.9688 22.2539 31.9083 21.9814 31.9083 21.7057H30.9083C30.9083 22.1279 31.001 22.5448 31.1797 22.9275L32.0858 22.5043ZM31.9083 21.7057C31.9083 21.43 31.9688 21.1575 32.0858 20.9072L31.1797 20.484C31.001 20.8667 30.9083 21.2836 30.9083 21.7057H31.9083ZM32.0946 20.887L32.1527 20.7468L31.2289 20.364L31.1708 20.5042L32.0946 20.887ZM32.1488 20.756C32.4431 20.084 32.4774 19.3275 32.2453 18.6317L31.2967 18.9483C31.4504 19.409 31.4277 19.9097 31.2328 20.3549L32.1488 20.756ZM32.2453 18.6317C32.0131 17.9361 31.5311 17.3508 30.8924 16.9874L30.3978 17.8565C30.8232 18.0986 31.1429 18.4876 31.2967 18.9483L32.2453 18.6317ZM30.8891 16.9855L30.7563 16.9113L30.2684 17.7842L30.4012 17.8584L30.8891 16.9855ZM30.7592 16.9129C30.5138 16.7736 30.3014 16.5841 30.1358 16.3572L29.328 16.9466C29.5774 17.2885 29.897 17.5733 30.2655 17.7825L30.7592 16.9129ZM30.1358 16.3572C29.9702 16.1303 29.8553 15.8712 29.7986 15.5971L28.8194 15.7999C28.9051 16.2139 29.0786 16.6048 29.328 16.9466L30.1358 16.3572ZM29.809 15.6985V15.5501H28.809V15.6985H29.809ZM29.7975 15.4436C29.6417 14.7292 29.227 14.0974 28.6334 13.6683L28.0475 14.4787C28.4426 14.7643 28.7173 15.1837 28.8204 15.6566L29.7975 15.4436ZM28.6334 13.6683C28.0398 13.2392 27.3086 13.0424 26.579 13.1147L26.6777 14.1099C27.1648 14.0615 27.6524 14.193 28.0475 14.4787L28.6334 13.6683ZM26.6284 13.1123H26.4707V14.1123H26.6284V13.1123ZM26.4167 13.1152C26.1382 13.1454 25.8564 13.117 25.5898 13.0317L25.2851 13.9842C25.6849 14.112 26.1072 14.1547 26.5246 14.1094L26.4167 13.1152ZM25.5898 13.0317C25.3232 12.9464 25.0779 12.8063 24.8698 12.6207L24.2041 13.367C24.517 13.6461 24.8854 13.8563 25.2851 13.9842L25.5898 13.0317ZM24.876 12.6264L24.7598 12.5192L24.0817 13.2541L24.1979 13.3613L24.876 12.6264ZM24.7597 12.5191C24.2158 12.0175 23.5018 11.7393 22.761 11.7393V12.7393C23.2514 12.7393 23.7232 12.9235 24.0818 13.2542L24.7597 12.5191ZM22.761 11.7393C22.0201 11.7393 21.3061 12.0175 20.7622 12.5191L21.4401 13.2542C21.7987 12.9235 22.2705 12.7393 22.761 12.7393V11.7393ZM20.7621 12.5192L20.6459 12.6264L21.324 13.3613L21.4402 13.2541L20.7621 12.5192ZM20.6466 12.6257C20.438 12.8174 20.1902 12.9626 19.9198 13.0514L20.2318 14.0015C20.6372 13.8684 21.0094 13.6504 21.3232 13.362L20.6466 12.6257ZM19.9198 13.0514C19.6495 13.1402 19.3631 13.1704 19.0799 13.1399L18.9728 14.1342C19.3972 14.1798 19.8265 14.1346 20.2318 14.0015L19.9198 13.0514ZM19.0264 13.137H18.8687V14.137H19.0264V13.137ZM18.9122 13.1389C18.1919 13.0759 17.4727 13.2747 16.8881 13.699L17.4754 14.5083C17.8646 14.2259 18.3442 14.0931 18.8251 14.1351L18.9122 13.1389ZM16.8881 13.699C16.3034 14.1233 15.8928 14.7446 15.7336 15.4479L16.7089 15.6688C16.8143 15.2032 17.0864 14.7907 17.4754 14.5083L16.8881 13.699ZM15.7212 15.5584V15.7068H16.7212V15.5584H15.7212ZM15.7314 15.6065C15.6754 15.88 15.5615 16.1387 15.3971 16.3655L16.2069 16.9523C16.4546 16.6105 16.6265 16.2202 16.7111 15.8071L15.7314 15.6065ZM15.3971 16.3655C15.2328 16.5924 15.0216 16.7822 14.7774 16.9222L15.2749 17.7897C15.6415 17.5795 15.9592 17.2941 16.2069 16.9523L15.3971 16.3655ZM14.8242 16.8986L14.6748 16.9646L15.0788 17.8793L15.2282 17.8134L14.8242 16.8986ZM14.6255 16.9897C13.9921 17.3579 13.5164 17.9452 13.2899 18.6405L14.2407 18.9502C14.3907 18.4898 14.7062 18.0994 15.1281 17.8542L14.6255 16.9897ZM13.2899 18.6405C13.0634 19.3358 13.1022 20.0897 13.399 20.7583L14.313 20.3526C14.1164 19.9097 14.0907 19.4106 14.2407 18.9502L13.2899 18.6405ZM13.4041 20.7694L13.4705 20.9096L14.3743 20.4816L14.3079 20.3414L13.4041 20.7694ZM13.4665 20.9009C13.5805 21.1542 13.6394 21.4285 13.6394 21.7057H14.6394C14.6394 21.2868 14.5504 20.8726 14.3783 20.4903L13.4665 20.9009ZM13.6394 21.7057C13.6394 21.983 13.5805 22.2573 13.4665 22.5106L14.3783 22.9211C14.5504 22.5389 14.6394 22.1247 14.6394 21.7057H13.6394ZM13.466 22.5117L13.3996 22.6601L14.3124 23.0685L14.3788 22.92L13.466 22.5117ZM13.4022 22.6544C13.0934 23.3221 13.0486 24.0811 13.277 24.7802L14.2276 24.4697C14.0777 24.0108 14.107 23.5127 14.3098 23.0742L13.4022 22.6544ZM13.277 24.7802C13.5053 25.4792 13.9897 26.0665 14.6328 26.426L15.1207 25.5531C14.696 25.3157 14.3775 24.9287 14.2276 24.4697L13.277 24.7802ZM14.6096 26.4121L14.7009 26.4699L15.2353 25.6246L15.144 25.5669L14.6096 26.4121ZM14.5275 25.8108L11.656 31.1625L12.5372 31.6353L15.4087 26.2837L14.5275 25.8108ZM11.6353 31.206C11.5117 31.5015 11.4717 31.8252 11.5198 32.1419L12.5084 31.9918C12.4879 31.8566 12.505 31.7183 12.5579 31.5918L11.6353 31.206ZM11.5198 32.1419C11.5679 32.4586 11.7021 32.7559 11.9077 33.0017L12.6748 32.3601C12.5864 32.2544 12.529 32.127 12.5084 31.9918L11.5198 32.1419ZM11.9077 33.0017C12.1132 33.2474 12.3821 33.4323 12.6851 33.5368L13.011 32.5913C12.8794 32.546 12.7632 32.4659 12.6748 32.3601L11.9077 33.0017ZM12.6851 33.5368C12.9881 33.6412 13.3139 33.6613 13.6275 33.595L13.4206 32.6166C13.2843 32.6455 13.1426 32.6367 13.011 32.5913L12.6851 33.5368ZM13.6163 33.5972C14.6132 33.41 15.259 33.494 15.7121 33.7356C16.1618 33.9755 16.5117 34.4186 16.8128 35.1512L17.7377 34.7711C17.3915 33.9287 16.9197 33.2463 16.1826 32.8533C15.449 32.462 14.5428 32.4058 13.4318 32.6144L13.6163 33.5972ZM16.8063 35.1347C16.918 35.4365 17.1124 35.7008 17.3669 35.8978L17.9791 35.1072C17.872 35.0242 17.7907 34.9134 17.7441 34.7876L16.8063 35.1347ZM17.3669 35.8978C17.6213 36.0949 17.9259 36.217 18.2461 36.2507L18.3509 35.2563C18.2151 35.2419 18.0863 35.1902 17.9791 35.1072L17.3669 35.8978ZM18.2461 36.2507C18.5662 36.2845 18.8896 36.2285 19.1797 36.0891L18.7464 35.1878C18.6237 35.2468 18.4867 35.2706 18.3509 35.2563L18.2461 36.2507ZM19.1797 36.0891C19.4698 35.9496 19.7153 35.732 19.8881 35.4605L19.0444 34.9236C18.9721 35.0372 18.869 35.1289 18.7464 35.1878L19.1797 36.0891ZM19.4662 35.1921C19.9393 35.3538 19.9393 35.3538 19.9393 35.3538C19.9393 35.3538 19.9393 35.3538 19.9394 35.3537C19.9394 35.3536 19.9394 35.3534 19.9395 35.3532C19.9397 35.3527 19.94 35.3519 19.9403 35.3509C19.941 35.3488 19.9421 35.3456 19.9436 35.3412C19.9466 35.3326 19.9511 35.3196 19.957 35.3025C19.9689 35.2684 19.9866 35.2179 20.0094 35.1535C20.055 35.0247 20.1213 34.8402 20.2034 34.6186C20.368 34.1748 20.5951 33.5853 20.847 32.9977C21.1004 32.4063 21.372 31.8334 21.6241 31.4146C21.7513 31.2033 21.8616 31.0517 21.9495 30.9591C22.0609 30.8418 22.0496 30.9094 21.931 30.9094V29.9094C21.6049 29.9094 21.361 30.1265 21.2242 30.2707C21.0638 30.4397 20.9101 30.6617 20.7674 30.8988C20.4796 31.3768 20.1868 31.9996 19.9278 32.6038C19.6672 33.2119 19.4337 33.818 19.2658 34.271C19.1817 34.4977 19.1138 34.6869 19.0668 34.8196C19.0433 34.886 19.025 34.9383 19.0125 34.9742C19.0063 34.9921 19.0015 35.006 18.9982 35.0154C18.9966 35.0201 18.9953 35.0238 18.9945 35.0263C18.994 35.0275 18.9937 35.0285 18.9935 35.0292C18.9934 35.0295 18.9933 35.0298 18.9932 35.03C18.9932 35.0301 18.9931 35.0301 18.9931 35.0302C18.9931 35.0303 18.9931 35.0303 19.4662 35.1921ZM21.931 30.9094C22.1497 30.9094 22.3403 30.9018 22.5028 30.8951C22.6698 30.8882 22.7963 30.8828 22.9086 30.8846C23.1191 30.888 23.2229 30.9164 23.3225 30.9798L23.8591 30.1359C23.5438 29.9354 23.2326 29.8896 22.9245 29.8848C22.7774 29.8824 22.6186 29.8894 22.4615 29.8959C22.2997 29.9026 22.1272 29.9094 21.931 29.9094V30.9094ZM23.3225 30.9798C23.2669 30.9444 23.2523 30.9138 23.2794 30.9504C23.2978 30.9753 23.3252 31.0175 23.3616 31.0811C23.4338 31.2074 23.5225 31.3846 23.6231 31.6028C23.8235 32.0371 24.0556 32.598 24.2775 33.1581C24.4989 33.7167 24.7077 34.2678 24.8613 34.6798C24.9381 34.8856 25.0009 35.0564 25.0446 35.1756C25.0664 35.2352 25.0834 35.2819 25.0949 35.3136C25.1007 35.3295 25.105 35.3416 25.108 35.3497C25.1095 35.3538 25.1106 35.3568 25.1113 35.3588C25.1117 35.3598 25.1119 35.3606 25.1121 35.3611C25.1122 35.3613 25.1123 35.3615 25.1123 35.3616C25.1123 35.3617 25.1123 35.3617 25.1123 35.3617C25.1123 35.3618 25.1123 35.3618 25.5827 35.1921C26.053 35.0224 26.053 35.0223 26.053 35.0223C26.0529 35.0222 26.0529 35.0222 26.0529 35.0221C26.0528 35.0219 26.0528 35.0217 26.0527 35.0214C26.0524 35.0209 26.0521 35.02 26.0518 35.0189C26.051 35.0168 26.0498 35.0135 26.0483 35.0093C26.0452 35.0009 26.0407 34.9884 26.0348 34.9722C26.023 34.9398 26.0057 34.8923 25.9836 34.8319C25.9394 34.7111 25.8758 34.5384 25.7983 34.3304C25.6433 33.9146 25.4319 33.3567 25.2072 32.7897C24.9831 32.2242 24.7431 31.6431 24.5311 31.1838C24.4256 30.9551 24.3229 30.7476 24.2295 30.5844C24.1831 30.5032 24.1341 30.4244 24.0838 30.3563C24.0421 30.2999 23.9667 30.2043 23.8591 30.1359L23.3225 30.9798ZM25.1733 35.4791C25.3521 35.7342 25.5969 35.936 25.8813 36.0634L26.2901 35.1507C26.1698 35.0969 26.0669 35.0118 25.9921 34.905L25.1733 35.4791ZM25.8813 36.0634C26.1657 36.1908 26.4794 36.2391 26.789 36.2035L26.6747 35.21C26.5433 35.2252 26.4104 35.2046 26.2901 35.1507L25.8813 36.0634ZM26.789 36.2035C27.0986 36.1679 27.393 36.0495 27.6409 35.8607L27.0349 35.0652C26.9305 35.1448 26.806 35.1949 26.6747 35.21L26.789 36.2035ZM27.6409 35.8607C27.8888 35.6718 28.0809 35.4195 28.1965 35.1301L27.2678 34.7592C27.2196 34.8798 27.1393 34.9857 27.0349 35.0652L27.6409 35.8607ZM28.1946 35.1348C28.4949 34.404 28.8483 33.96 29.3009 33.7195C29.7567 33.4772 30.4031 33.3938 31.3904 33.5806L31.5763 32.598C30.4722 32.3891 29.5666 32.4458 28.8316 32.8364C28.0932 33.2288 27.6167 33.9103 27.2697 34.7546L28.1946 35.1348ZM31.3828 33.5791C31.6936 33.6429 32.016 33.6219 32.3159 33.5184L31.9895 32.5732C31.8592 32.6181 31.719 32.6273 31.5839 32.5995L31.3828 33.5791ZM32.3159 33.5184C32.6158 33.4148 32.8823 33.2324 33.0869 32.9901L32.3229 32.3449C32.2348 32.4492 32.1197 32.5282 31.9895 32.5732L32.3159 33.5184ZM33.0869 32.9901C33.2916 32.7477 33.4266 32.4545 33.4775 32.1415L32.4904 31.9813C32.4687 32.115 32.4109 32.2406 32.3229 32.3449L33.0869 32.9901ZM33.4775 32.1415C33.5283 31.8285 33.4928 31.5077 33.375 31.2132L32.4466 31.5846C32.497 31.7106 32.5121 31.8476 32.4904 31.9813L33.4775 32.1415ZM28.7595 24.3132C28.2612 25.4533 27.4435 26.4278 26.4035 27.1203L26.9577 27.9527C28.1568 27.1542 29.1004 26.0302 29.6758 24.7138L28.7595 24.3132ZM26.4035 27.1203C25.3633 27.8129 24.1446 28.1944 22.8922 28.219L22.9119 29.2189C24.3544 29.1905 25.7587 28.7511 26.9577 27.9527L26.4035 27.1203ZM22.902 28.219H22.761V29.219H22.902V28.219ZM22.7335 28.2197C22.5279 28.231 22.3218 28.231 22.1162 28.2197L22.0612 29.2182C22.3035 29.2315 22.5462 29.2315 22.7884 29.2182L22.7335 28.2197ZM22.1372 28.2213C20.9207 28.1028 19.7621 27.6489 18.792 26.9111L18.1867 27.707C19.3048 28.5574 20.6395 29.0801 22.0403 29.2166L22.1372 28.2213ZM18.792 26.9111C17.822 26.1733 17.0792 25.1811 16.647 24.0469L15.7125 24.4029C16.2114 25.7123 17.0685 26.8566 18.1867 27.707L18.792 26.9111ZM16.6454 24.0427C16.3591 23.3111 16.2105 22.5335 16.2067 21.7487L15.2067 21.7535C15.2111 22.6615 15.3831 23.5609 15.7141 24.4071L16.6454 24.0427ZM16.2067 21.7511C16.2067 20.0258 16.8965 18.3705 18.1253 17.1496L17.4204 16.4402C16.0034 17.8482 15.2067 19.7585 15.2067 21.7511H16.2067ZM18.1253 17.1496C19.3542 15.9285 21.0216 15.242 22.761 15.242V14.242C20.7585 14.242 18.8374 15.0324 17.4204 16.4402L18.1253 17.1496ZM22.761 15.242C24.5003 15.242 26.1677 15.9285 27.3967 17.1496L28.1015 16.4402C26.6846 15.0324 24.7634 14.242 22.761 14.242V15.242ZM27.3967 17.1496C28.6255 18.3705 29.3152 20.0258 29.3152 21.7511H30.3152C30.3152 19.7585 29.5185 17.8482 28.1015 16.4402L27.3967 17.1496ZM29.3152 21.7502C29.3137 22.6318 29.1252 23.5032 28.762 24.3078L29.6734 24.7192C30.0947 23.786 30.3134 22.775 30.3152 21.752L29.3152 21.7502Z" fill="white"/>
<path d="M22.7609 14.7012C21.831 14.7012 20.9103 14.8838 20.0518 15.2386C19.1932 15.5934 18.4137 16.1134 17.7581 16.7686C17.1025 17.4239 16.5837 18.2014 16.2317 19.0566C15.8796 19.9117 15.7012 20.8276 15.7067 21.7515C15.7107 22.5979 15.8711 23.4364 16.1797 24.2253C16.6502 25.441 17.4523 26.5023 18.4961 27.2903C19.5398 28.0783 20.7839 28.5617 22.0887 28.6864C22.3126 28.6987 22.537 28.6987 22.7609 28.6864H22.902C24.2495 28.6598 25.561 28.2494 26.6806 27.5039C27.8001 26.7584 28.6807 25.7092 29.2177 24.4809C29.6054 23.6222 29.8089 22.6927 29.8152 21.7515C29.8218 20.8273 29.6441 19.9109 29.2924 19.0553C28.9408 18.1996 28.4221 17.4217 27.7662 16.7662C27.1104 16.1108 26.3305 15.5908 25.4714 15.2364C24.6123 14.882 23.6911 14.7001 22.7609 14.7012V14.7012ZM25.9727 20.9681L24.8772 22.2627C24.8476 22.2931 24.8249 22.3295 24.8106 22.3693C24.7963 22.4091 24.7907 22.4515 24.7942 22.4936L24.9187 24.1428C24.9229 24.1988 24.9126 24.255 24.8888 24.3059C24.8651 24.3569 24.8286 24.401 24.7829 24.434C24.7372 24.4671 24.6837 24.4879 24.6276 24.4947C24.5715 24.5015 24.5146 24.4939 24.4622 24.4727L22.8854 23.8295C22.846 23.8132 22.8037 23.8047 22.7609 23.8047C22.7182 23.8047 22.6759 23.8132 22.6364 23.8295L21.0596 24.4727C21.0073 24.4939 20.9503 24.5015 20.8942 24.4947C20.8381 24.4879 20.7847 24.4671 20.739 24.434C20.6932 24.401 20.6568 24.3569 20.633 24.3059C20.6092 24.255 20.599 24.1988 20.6032 24.1428L20.7276 22.4936C20.734 22.4099 20.7072 22.3271 20.6529 22.2627L19.5575 20.9681C19.5203 20.9253 19.4949 20.8736 19.4836 20.8182C19.4724 20.7627 19.4756 20.7053 19.4931 20.6515C19.5106 20.5977 19.5418 20.5492 19.5836 20.5108C19.6254 20.4724 19.6764 20.4453 19.7317 20.4321L21.3916 20.0281C21.433 20.0176 21.4719 19.9991 21.5061 19.9737C21.5403 19.9482 21.5691 19.9162 21.5907 19.8797L22.4788 18.4531C22.5085 18.4054 22.5501 18.366 22.5995 18.3387C22.6488 18.3114 22.7044 18.297 22.7609 18.297C22.8174 18.297 22.873 18.3114 22.9224 18.3387C22.9718 18.366 23.0133 18.4054 23.0431 18.4531L23.9394 19.8879C23.9865 19.9623 24.0609 20.0155 24.1469 20.0363L25.8067 20.4404C25.8587 20.4569 25.9058 20.4857 25.9443 20.5242C25.9827 20.5626 26.0113 20.6097 26.0275 20.6615C26.0438 20.7132 26.0473 20.7681 26.0378 20.8214C26.0282 20.8748 26.0059 20.9251 25.9727 20.9681V20.9681Z" stroke="white"/>
<path d="M24.8772 22.2626C24.8476 22.293 24.8249 22.3293 24.8106 22.3691C24.7963 22.409 24.7907 22.4514 24.7942 22.4935L24.9187 24.1427C24.9229 24.1987 24.9126 24.2548 24.8888 24.3058C24.8651 24.3568 24.8286 24.4009 24.7829 24.4339C24.7372 24.4669 24.6837 24.4878 24.6276 24.4946C24.5715 24.5013 24.5146 24.4937 24.4622 24.4725L22.8854 23.8293C22.846 23.813 22.8036 23.8046 22.7609 23.8046C22.7182 23.8046 22.6759 23.813 22.6364 23.8293L21.0596 24.4725C21.0073 24.4937 20.9503 24.5013 20.8942 24.4946C20.8381 24.4878 20.7847 24.4669 20.7389 24.4339C20.6932 24.4009 20.6568 24.3568 20.633 24.3058C20.6092 24.2548 20.599 24.1987 20.6031 24.1427L20.7276 22.4935C20.734 22.4098 20.7072 22.3269 20.6529 22.2626L19.5575 20.968C19.5203 20.9251 19.4949 20.8735 19.4836 20.818C19.4723 20.7626 19.4756 20.7052 19.4931 20.6514C19.5106 20.5975 19.5418 20.5491 19.5836 20.5107C19.6253 20.4723 19.6764 20.4452 19.7317 20.432L21.3916 20.0279C21.433 20.0175 21.4719 19.999 21.5061 19.9735C21.5403 19.948 21.569 19.9161 21.5907 19.8795L22.4787 18.453C22.5085 18.4052 22.5501 18.3658 22.5994 18.3385C22.6488 18.3112 22.7044 18.2969 22.7609 18.2969C22.8174 18.2969 22.873 18.3112 22.9224 18.3385C22.9718 18.3658 23.0133 18.4052 23.0431 18.453L23.9394 19.8878C23.9865 19.9622 24.0609 20.0154 24.1469 20.0362L25.8067 20.4402C25.8607 20.4553 25.9102 20.4834 25.9506 20.5221C25.991 20.5607 26.0212 20.6087 26.0385 20.6618C26.0557 20.7149 26.0595 20.7713 26.0495 20.8262C26.0395 20.8811 26.0159 20.9326 25.981 20.9762L24.8772 22.2626Z" stroke="white"/>
<path d="M55 29C57.04 29 58.345 27.89 58.345 26.075C58.345 24.92 57.745 23.855 56.365 23.27C56.26 23.225 56.245 23.135 56.35 23.075C56.935 22.73 57.52 22.19 57.52 21.245C57.52 19.655 56.14 18.41 53.08 18.41C52.06 18.41 50.935 18.47 50.095 18.575C49.87 18.605 49.735 18.74 49.735 18.935V19.04C49.735 19.28 49.84 19.37 50.035 19.445L50.485 19.61C50.77 19.715 50.875 19.85 50.875 20.165V27.395C50.875 27.71 50.77 27.845 50.47 27.965L50.035 28.115C49.84 28.19 49.735 28.295 49.735 28.52V28.64C49.735 28.865 49.87 29 50.095 29H55ZM52.435 22.715C52.33 22.715 52.255 22.625 52.255 22.52V19.865C52.255 19.58 52.36 19.385 52.705 19.34C53.005 19.295 53.155 19.295 53.32 19.295C54.91 19.295 56.125 19.985 56.125 21.395C56.125 22.265 55.51 22.835 54.415 22.79L52.435 22.715ZM52.945 28.1C52.495 28.1 52.255 27.86 52.255 27.425V23.78C52.255 23.66 52.33 23.615 52.435 23.615L54.085 23.675C55.81 23.75 56.845 24.68 56.845 26.135C56.845 27.365 56.005 28.1 54.565 28.1H52.945ZM62.1702 29.15C63.0402 29.15 63.8052 28.82 64.2852 28.25C64.3752 28.145 64.4952 28.145 64.5702 28.265C64.8852 28.865 65.2152 29.12 65.8602 29.12C66.6252 29.12 67.1502 28.625 67.1502 27.995C67.1502 27.785 67.0302 27.635 66.8352 27.635C66.5502 27.635 66.4602 28.13 66.0402 28.13C65.7852 28.13 65.6502 27.995 65.6502 27.65L65.6202 24.17C65.6052 22.4 64.8102 21.47 62.8902 21.47C61.9302 21.47 60.8502 21.695 60.2202 22.025C59.9502 22.175 59.9202 22.355 60.0402 22.61L60.4152 23.435C60.5052 23.6 60.5802 23.705 60.7602 23.705C60.9252 23.705 61.0302 23.645 61.1802 23.435C61.7052 22.685 62.2452 22.31 62.9202 22.31C63.8202 22.31 64.3302 22.775 64.3302 23.84V24.485C64.3302 24.605 64.2552 24.65 64.1202 24.635C63.8202 24.605 63.4002 24.575 63.0402 24.575C60.9102 24.575 59.6652 25.475 59.6652 26.975C59.6652 28.415 60.6102 29.15 62.1702 29.15ZM62.5152 28.13C61.5852 28.13 61.0602 27.68 61.0602 26.855C61.0602 26 61.5852 25.4 63.1452 25.4C63.5202 25.4 63.8652 25.43 64.1502 25.49C64.2852 25.52 64.3302 25.58 64.3302 25.715V26.795C64.3302 27.08 64.2702 27.23 64.1352 27.395C63.8802 27.71 63.3552 28.13 62.5152 28.13ZM70.8684 29C71.0934 29 71.2284 28.865 71.2284 28.64V28.535C71.2284 28.325 71.1234 28.22 70.9134 28.16L70.6134 28.07C70.3134 27.98 70.2084 27.83 70.2084 27.5V23.69C70.2084 23.405 70.2834 23.255 70.5534 23.105C70.9884 22.835 71.7834 22.535 72.5484 22.535C73.3134 22.535 73.5384 22.985 73.5384 23.87V28.64C73.5384 28.865 73.6734 29 73.8984 29H75.5034C75.7284 29 75.8634 28.865 75.8634 28.64V28.535C75.8634 28.325 75.7584 28.22 75.5484 28.16L75.2634 28.07C74.9484 27.98 74.8434 27.83 74.8434 27.5V23.57C74.8434 22.235 74.1834 21.47 72.9534 21.47C72.1434 21.47 71.3334 21.755 70.6134 22.205L70.3734 22.34C70.2534 22.415 70.1334 22.37 70.1334 22.22V21.89C70.1334 21.515 69.9084 21.38 69.5484 21.515L68.2134 22.04C67.9884 22.115 67.8984 22.235 67.8984 22.4V22.49C67.8984 22.7 67.9884 22.79 68.2284 22.85C68.7984 22.985 68.9184 23.165 68.9184 23.615V27.5C68.9184 27.83 68.8134 27.98 68.5134 28.07L68.2134 28.16C68.0034 28.22 67.8984 28.325 67.8984 28.535V28.64C67.8984 28.865 68.0334 29 68.2584 29H70.8684ZM78.4786 20.195C79.0636 20.195 79.4836 19.79 79.4836 19.265C79.4836 18.74 79.0636 18.335 78.4786 18.335C77.8936 18.335 77.4736 18.74 77.4736 19.265C77.4736 19.775 77.8936 20.195 78.4786 20.195ZM77.0686 32.39C78.2536 32.39 79.2736 31.52 79.2736 29.975V21.89C79.2736 21.515 79.0486 21.38 78.6736 21.515L77.2786 22.07C77.0536 22.145 76.9636 22.265 76.9636 22.43V22.52C76.9636 22.73 77.0536 22.82 77.2936 22.88C77.8636 23.03 77.9986 23.195 77.9986 23.645V29.87C77.9986 30.8 77.6836 31.325 76.7086 31.655C76.5136 31.73 76.4386 31.805 76.4386 31.97C76.4386 32.24 76.7086 32.39 77.0686 32.39ZM84.9742 29.15C87.0142 29.15 88.5742 27.59 88.5742 25.31C88.5742 23.03 87.0142 21.47 84.9742 21.47C82.9342 21.47 81.3742 23.03 81.3742 25.31C81.3742 27.59 82.9342 29.15 84.9742 29.15ZM85.1992 28.055C83.5792 28.055 82.6792 26.63 82.6792 24.95C82.6792 23.435 83.5492 22.565 84.7492 22.565C86.3842 22.565 87.2692 23.99 87.2692 25.655C87.2692 27.185 86.3992 28.055 85.1992 28.055ZM89.5443 21.455C90.7293 21.29 91.5693 20.645 91.5693 19.295C91.5693 18.305 91.0143 17.87 90.4143 17.87C89.8143 17.87 89.3943 18.305 89.3943 18.845C89.3943 19.4 89.7993 19.745 90.2343 19.745C90.3243 19.745 90.3693 19.73 90.4293 19.73C90.4893 19.73 90.5493 19.79 90.5493 19.88C90.5493 20.24 90.2643 20.57 89.4243 20.795C89.2143 20.855 89.1393 20.975 89.1543 21.155C89.1543 21.35 89.2893 21.485 89.5443 21.455ZM95.8848 29.15C97.3848 29.15 98.4798 28.37 98.4648 26.96C98.4498 25.775 97.6998 25.16 96.3948 24.755L95.1648 24.395C94.1748 24.095 93.7548 23.795 93.7548 23.24C93.7548 22.73 94.1298 22.34 94.9848 22.34C95.7648 22.34 96.3948 22.79 97.2648 23.69C97.4298 23.885 97.5948 23.885 97.7898 23.795L97.8348 23.765C98.0148 23.675 98.0748 23.495 97.9698 23.3L97.1448 21.695C97.0698 21.545 97.0098 21.485 96.8448 21.485C96.6948 21.485 96.5298 21.62 96.1998 21.62C95.7798 21.62 95.4498 21.5 94.9698 21.5C93.4248 21.5 92.5398 22.325 92.5398 23.465C92.5398 24.59 93.2898 25.13 94.5198 25.505L95.7498 25.88C96.6948 26.165 97.1598 26.54 97.1598 27.155C97.1598 27.815 96.7248 28.235 95.7948 28.235C94.7748 28.235 93.8748 27.68 93.1248 26.6C92.9748 26.375 92.7648 26.345 92.5848 26.435L92.4798 26.495C92.2848 26.585 92.2248 26.81 92.3448 27.035L93.2898 28.865C93.3798 29.03 93.4698 29.135 93.6798 29.135C93.9048 29.135 94.0548 28.97 94.3998 28.97C94.7748 28.97 95.1948 29.15 95.8848 29.15ZM107.298 29C107.508 29 107.643 28.895 107.718 28.7L110.838 20.285C110.988 19.865 111.183 19.655 111.588 19.475L111.843 19.34C112.038 19.25 112.113 19.175 112.113 18.965V18.86C112.113 18.635 111.978 18.5 111.753 18.5H109.143C108.918 18.5 108.783 18.635 108.783 18.86V18.965C108.783 19.13 108.858 19.22 109.053 19.31L109.323 19.43C109.743 19.61 109.848 19.79 109.713 20.165L107.328 26.795C107.268 26.96 107.148 26.96 107.088 26.795L104.613 20.09C104.478 19.745 104.508 19.625 104.898 19.46L105.183 19.34C105.378 19.25 105.453 19.145 105.453 18.98V18.86C105.453 18.635 105.303 18.5 105.078 18.5H102.303C102.078 18.5 101.943 18.635 101.943 18.86V18.98C101.943 19.145 102.018 19.235 102.213 19.34L102.468 19.49C102.813 19.685 103.053 19.88 103.248 20.39L106.338 28.7C106.428 28.91 106.548 29 106.758 29H107.298ZM114.296 20.195C114.881 20.195 115.301 19.79 115.301 19.265C115.301 18.74 114.881 18.335 114.296 18.335C113.711 18.335 113.291 18.74 113.291 19.265C113.291 19.775 113.711 20.195 114.296 20.195ZM115.766 29C115.991 29 116.126 28.865 116.126 28.64V28.535C116.126 28.325 116.021 28.22 115.811 28.16L115.511 28.07C115.211 27.98 115.106 27.83 115.106 27.5V21.89C115.106 21.515 114.881 21.38 114.506 21.515L113.111 22.07C112.886 22.145 112.796 22.265 112.796 22.43V22.52C112.796 22.73 112.886 22.82 113.126 22.88C113.696 23.015 113.816 23.195 113.816 23.645V27.5C113.816 27.83 113.711 27.98 113.411 28.07L113.111 28.16C112.901 28.22 112.796 28.325 112.796 28.535V28.64C112.796 28.865 112.931 29 113.156 29H115.766ZM120.892 29C121.117 29 121.252 28.865 121.252 28.64V28.52C121.252 28.295 121.147 28.16 120.952 28.115L120.307 27.935C119.992 27.86 119.887 27.71 119.887 27.395V24.815C119.887 24.695 119.947 24.62 120.082 24.635C120.622 24.71 121.312 24.815 122.032 24.815C124.252 24.815 125.272 23.645 125.272 22.055C125.272 19.715 123.547 18.38 120.397 18.38C119.692 18.38 118.747 18.44 117.727 18.575C117.502 18.605 117.367 18.74 117.367 18.935V19.04C117.367 19.28 117.472 19.37 117.667 19.445L118.117 19.61C118.402 19.715 118.507 19.85 118.507 20.165V27.395C118.507 27.71 118.402 27.845 118.102 27.965L117.667 28.115C117.472 28.19 117.367 28.295 117.367 28.52V28.64C117.367 28.865 117.502 29 117.727 29H120.892ZM121.642 23.87C121.072 23.87 120.442 23.795 120.067 23.705C119.962 23.675 119.887 23.615 119.887 23.51V19.925C119.887 19.475 120.112 19.295 120.682 19.295C122.527 19.295 123.832 20.24 123.832 21.965C123.832 23.225 123.067 23.87 121.642 23.87Z" fill="white"/>
<path d="M213.048 32.34C213.318 32.34 213.48 32.178 213.48 31.908V30.396C213.48 30.27 213.552 30.18 213.714 30.18C216.036 30.144 217.692 28.812 217.656 26.598C217.638 24.33 215.91 23.448 214.164 22.872L212.058 22.188C210.69 21.72 209.844 21.144 209.844 20.154C209.844 19.056 210.618 18.354 212.112 18.354C213.498 18.354 214.524 19.11 215.982 20.856C216.144 21.072 216.414 21.108 216.648 20.964L216.738 20.892C216.972 20.748 217.044 20.55 216.936 20.352L215.64 17.634C215.514 17.346 215.424 17.22 215.154 17.22H215.046C214.794 17.22 214.56 17.454 214.02 17.454C213.786 17.454 213.588 17.418 213.39 17.364C213.246 17.346 213.192 17.256 213.192 17.13V15.492C213.192 15.222 213.03 15.06 212.76 15.06H212.364C212.094 15.06 211.932 15.222 211.932 15.492V17.004C211.932 17.13 211.878 17.202 211.662 17.22C209.376 17.4 208.152 18.714 208.152 20.406C208.152 22.332 209.52 23.16 211.284 23.754L213.408 24.456C214.938 24.978 215.874 25.644 215.874 26.94C215.874 28.218 214.992 29.01 213.336 29.01C211.662 29.01 209.97 27.966 208.854 26.13C208.656 25.824 208.44 25.77 208.116 25.914L207.972 26.004C207.648 26.148 207.612 26.4 207.756 26.706L209.196 29.712C209.358 30.036 209.538 30.162 209.772 30.162H209.898C210.258 30.162 210.564 29.874 211.05 29.874C211.356 29.874 211.662 29.928 212.004 30C212.166 30.036 212.22 30.108 212.22 30.234V31.908C212.22 32.178 212.382 32.34 212.652 32.34H213.048ZM223.354 30.18C226.054 30.18 227.746 28.704 227.746 26.184C227.746 24.258 226.666 22.746 224.488 22.278C224.308 22.242 224.272 22.134 224.398 22.008L227.35 18.75C227.494 18.588 227.584 18.444 227.584 18.21V17.832C227.584 17.562 227.422 17.4 227.152 17.4H222.328C221.932 17.4 221.734 17.346 221.536 17.22C221.356 17.094 221.248 17.04 221.05 17.04H220.96C220.744 17.04 220.618 17.166 220.528 17.382L219.484 20.046C219.358 20.37 219.484 20.514 219.718 20.64L219.808 20.694C220.096 20.82 220.276 20.766 220.492 20.478C221.446 19.056 221.914 18.696 223.264 18.696H225.352C225.532 18.696 225.586 18.858 225.46 18.966L221.716 23.016C221.518 23.214 221.482 23.43 221.68 23.628L221.86 23.808C222.058 24.006 222.238 24.006 222.436 23.826L222.994 23.34C223.138 23.214 223.264 23.178 223.408 23.214C225.046 23.61 225.928 24.564 225.928 26.112C225.928 27.75 224.92 28.794 223.156 28.794C221.716 28.794 220.888 28.254 220.24 27.516C220.024 27.282 219.736 27.246 219.484 27.408C219.232 27.552 219.124 27.84 219.286 28.218C219.7 29.1 221.122 30.18 223.354 30.18ZM237.509 30C237.779 30 237.941 29.838 237.941 29.568V29.424C237.941 29.154 237.815 29.028 237.581 28.938L237.059 28.758C236.699 28.614 236.573 28.452 236.573 28.074V26.508C236.573 26.382 236.663 26.292 236.789 26.292H238.211C238.481 26.292 238.643 26.13 238.643 25.842V25.554C238.643 25.284 238.481 25.122 238.211 25.122H236.789C236.663 25.122 236.573 25.032 236.573 24.906V19.308C236.573 18.93 236.699 18.768 237.059 18.642L237.527 18.462C237.761 18.372 237.887 18.246 237.887 17.976V17.832C237.887 17.562 237.725 17.4 237.455 17.4H235.511C235.259 17.4 235.115 17.472 234.953 17.688L229.355 25.122C229.229 25.284 229.175 25.41 229.175 25.608V25.896C229.175 26.148 229.355 26.292 229.625 26.292H234.719C234.845 26.292 234.935 26.382 234.935 26.508V28.074C234.935 28.452 234.809 28.614 234.449 28.758L233.909 28.938C233.675 29.028 233.549 29.154 233.549 29.424V29.568C233.549 29.838 233.711 30 233.999 30H237.509ZM231.227 25.122C231.065 25.122 230.975 24.996 231.083 24.852L234.665 20.064C234.791 19.92 234.935 19.938 234.935 20.136V24.906C234.935 25.032 234.845 25.122 234.719 25.122H231.227ZM241.497 30.18C242.217 30.18 242.721 29.676 242.721 29.028C242.721 28.362 242.217 27.858 241.497 27.858C240.795 27.858 240.291 28.362 240.291 29.028C240.291 29.676 240.795 30.18 241.497 30.18ZM249.349 30.18C252.139 30.18 254.443 27.912 254.443 23.7C254.443 19.488 252.139 17.22 249.349 17.22C246.559 17.22 244.255 19.488 244.255 23.7C244.255 27.912 246.559 30.18 249.349 30.18ZM249.655 28.794C247.657 28.794 246.001 26.634 246.001 22.962C246.001 19.956 247.315 18.606 249.043 18.606C251.041 18.606 252.697 20.766 252.697 24.438C252.697 27.444 251.383 28.794 249.655 28.794ZM261.583 30.18C264.373 30.18 266.677 27.912 266.677 23.7C266.677 19.488 264.373 17.22 261.583 17.22C258.793 17.22 256.489 19.488 256.489 23.7C256.489 27.912 258.793 30.18 261.583 30.18ZM261.889 28.794C259.891 28.794 258.235 26.634 258.235 22.962C258.235 19.956 259.549 18.606 261.277 18.606C263.275 18.606 264.931 20.766 264.931 24.438C264.931 27.444 263.617 28.794 261.889 28.794Z" fill="white"/>
<path d="M281.25 23.567C281.583 23.7594 281.583 24.2406 281.25 24.433L275.25 27.8971C274.917 28.0896 274.5 27.849 274.5 27.4641L274.5 20.5359C274.5 20.151 274.917 19.9104 275.25 20.1029L281.25 23.567Z" fill="white"/>
</g>
<defs>
<filter id="filter0_d_1266_5767" x="-6" y="-2" width="306" height="60" filterUnits="userSpaceOnUse" color-interpolation-filters="sRGB">
<feFlood flood-opacity="0" result="BackgroundImageFix"/>
<feColorMatrix in="SourceAlpha" type="matrix" values="0 0 0 0 0 0 0 0 0 0 0 0 0 0 0 0 0 0 127 0" result="hardAlpha"/>
<feOffset dy="4"/>
<feGaussianBlur stdDeviation="3"/>
<feComposite in2="hardAlpha" operator="out"/>
<feColorMatrix type="matrix" values="0 0 0 0 0 0 0 0 0 0 0 0 0 0 0 0 0 0 0.16 0"/>
<feBlend mode="normal" in2="BackgroundImageFix" result="effect1_dropShadow_1266_5767"/>
<feBlend mode="normal" in="SourceGraphic" in2="effect1_dropShadow_1266_5767" result="shape"/>
</filter>
<filter id="filter1_d_1266_5767" x="-80.4395" y="-59.6143" width="442.479" height="210.654" filterUnits="userSpaceOnUse" color-interpolation-filters="sRGB">
<feFlood flood-opacity="0" result="BackgroundImageFix"/>
<feColorMatrix in="SourceAlpha" type="matrix" values="0 0 0 0 0 0 0 0 0 0 0 0 0 0 0 0 0 0 127 0" result="hardAlpha"/>
<feOffset dy="3"/>
<feGaussianBlur stdDeviation="30"/>
<feColorMatrix type="matrix" values="0 0 0 0 0 0 0 0 0 0 0 0 0 0 0 0 0 0 0.251 0"/>
<feBlend mode="normal" in2="BackgroundImageFix" result="effect1_dropShadow_1266_5767"/>
<feBlend mode="normal" in="SourceGraphic" in2="effect1_dropShadow_1266_5767" result="shape"/>
</filter>
<filter id="filter2_d_1266_5767" x="-89.9478" y="-58.6289" width="384.576" height="209.51" filterUnits="userSpaceOnUse" color-interpolation-filters="sRGB">
<feFlood flood-opacity="0" result="BackgroundImageFix"/>
<feColorMatrix in="SourceAlpha" type="matrix" values="0 0 0 0 0 0 0 0 0 0 0 0 0 0 0 0 0 0 127 0" result="hardAlpha"/>
<feOffset dy="3"/>
<feGaussianBlur stdDeviation="30"/>
<feColorMatrix type="matrix" values="0 0 0 0 0 0 0 0 0 0 0 0 0 0 0 0 0 0 0.251 0"/>
<feBlend mode="normal" in2="BackgroundImageFix" result="effect1_dropShadow_1266_5767"/>
<feBlend mode="normal" in="SourceGraphic" in2="effect1_dropShadow_1266_5767" result="shape"/>
</filter>
<filter id="filter3_d_1266_5767" x="-91.9932" y="-59.3975" width="283.565" height="196.861" filterUnits="userSpaceOnUse" color-interpolation-filters="sRGB">
<feFlood flood-opacity="0" result="BackgroundImageFix"/>
<feColorMatrix in="SourceAlpha" type="matrix" values="0 0 0 0 0 0 0 0 0 0 0 0 0 0 0 0 0 0 127 0" result="hardAlpha"/>
<feOffset dy="3"/>
<feGaussianBlur stdDeviation="30"/>
<feColorMatrix type="matrix" values="0 0 0 0 0 0 0 0 0 0 0 0 0 0 0 0 0 0 0.251 0"/>
<feBlend mode="normal" in2="BackgroundImageFix" result="effect1_dropShadow_1266_5767"/>
<feBlend mode="normal" in="SourceGraphic" in2="effect1_dropShadow_1266_5767" result="shape"/>
</filter>
<filter id="filter4_d_1266_5767" x="164.202" y="-47.5703" width="172.255" height="97.2666" filterUnits="userSpaceOnUse" color-interpolation-filters="sRGB">
<feFlood flood-opacity="0" result="BackgroundImageFix"/>
<feColorMatrix in="SourceAlpha" type="matrix" values="0 0 0 0 0 0 0 0 0 0 0 0 0 0 0 0 0 0 127 0" result="hardAlpha"/>
<feOffset/>
<feGaussianBlur stdDeviation="14.5"/>
<feColorMatrix type="matrix" values="0 0 0 0 0 0 0 0 0 0 0 0 0 0 0 0 0 0 0.161 0"/>
<feBlend mode="normal" in2="BackgroundImageFix" result="effect1_dropShadow_1266_5767"/>
<feBlend mode="normal" in="SourceGraphic" in2="effect1_dropShadow_1266_5767" result="shape"/>
</filter>
<filter id="filter5_d_1266_5767" x="-97.0332" y="-45.2285" width="348.895" height="216.992" filterUnits="userSpaceOnUse" color-interpolation-filters="sRGB">
<feFlood flood-opacity="0" result="BackgroundImageFix"/>
<feColorMatrix in="SourceAlpha" type="matrix" values="0 0 0 0 0 0 0 0 0 0 0 0 0 0 0 0 0 0 127 0" result="hardAlpha"/>
<feOffset dy="3"/>
<feGaussianBlur stdDeviation="37"/>
<feColorMatrix type="matrix" values="0 0 0 0 0 0 0 0 0 0 0 0 0 0 0 0 0 0 0.251 0"/>
<feBlend mode="normal" in2="BackgroundImageFix" result="effect1_dropShadow_1266_5767"/>
<feBlend mode="normal" in="SourceGraphic" in2="effect1_dropShadow_1266_5767" result="shape"/>
</filter>
<linearGradient id="paint0_linear_1266_5767" x1="0" y1="0" x2="288.18" y2="71.4678" gradientUnits="userSpaceOnUse">
<stop stop-color="#6D846F"/>
<stop offset="1" stop-color="#5E7360"/>
</linearGradient>
<linearGradient id="paint1_linear_1266_5767" x1="-29.7295" y1="31.737" x2="281.775" y2="-112.795" gradientUnits="userSpaceOnUse">
<stop stop-color="#5E7360"/>
<stop offset="1" stop-color="#719A75"/>
</linearGradient>
<linearGradient id="paint2_linear_1266_5767" x1="-31.3638" y1="32.2018" x2="237.859" y2="-70.3738" gradientUnits="userSpaceOnUse">
<stop stop-color="#5E7360"/>
<stop offset="1" stop-color="#719A75"/>
</linearGradient>
<linearGradient id="paint3_linear_1266_5767" x1="50.0284" y1="-3.75684" x2="50.0284" y2="75.1123" gradientUnits="userSpaceOnUse">
<stop stop-color="#618064"/>
<stop offset="1" stop-color="#6D846F"/>
</linearGradient>
<linearGradient id="paint4_linear_1266_5767" x1="251.193" y1="-24.0576" x2="249.391" y2="41.7495" gradientUnits="userSpaceOnUse">
<stop stop-color="#647B66"/>
<stop offset="1" stop-color="#618064"/>
</linearGradient>
<linearGradient id="paint5_linear_1266_5767" x1="177.411" y1="99.9616" x2="35.2539" y2="-22.1608" gradientUnits="userSpaceOnUse">
<stop stop-color="#618064"/>
<stop offset="1" stop-color="#8DB491"/>
</linearGradient>
<clipPath id="clip0_1266_5767">
<path d="M0 8C0 3.58172 3.58172 0 8 0H286C290.418 0 294 3.58172 294 8V40C294 44.4183 290.418 48 286 48H8C3.58172 48 0 44.4183 0 40V8Z" fill="white"/>
</clipPath>
</defs>
</svg>
