<svg width="24" height="24" viewBox="0 0 24 24" fill="none" xmlns="http://www.w3.org/2000/svg">
<path d="M4 20L6 4H19L21 20H4Z" fill="#E8FAE8"/>
<path d="M5.17117 20.9999C4.85467 21.0032 4.54042 20.9408 4.2515 20.8187C3.96257 20.6966 3.70582 20.5177 3.49746 20.2926L3.48983 20.2843C3.30909 20.0849 3.17442 19.8535 3.09211 19.6028C3.00979 19.352 2.98189 19.0875 3.01147 18.8265L4.66121 4.79041C4.72177 4.29368 4.97671 3.83571 5.37602 3.50758C5.77533 3.17945 6.28968 3.00424 6.81872 3.01647H9.17347C9.49705 2.99961 10.2768 3 12.4817 3C13.3419 3 14.1434 3 14.7449 3C15.3251 3 15.6159 2.99975 15.7855 3.0103H18.186C18.7049 3.01128 19.2061 3.18672 19.6004 3.50552C19.9946 3.82431 20.2558 4.266 20.337 4.75026V4.76673L21.9878 18.8203C22.018 19.0811 21.9922 19.3448 21.9104 19.5956C21.8287 19.8463 21.693 20.0786 21.5127 20.2782L21.5018 20.2854C21.2951 20.5102 21.0396 20.6903 20.7521 20.8125C20.4647 20.9346 20.152 20.9957 19.8368 20.9927L5.17117 20.9999ZM6.33492 4.91705V4.94897L4.67973 19.0159C4.68016 19.1082 4.7148 19.1976 4.7778 19.2681C4.82882 19.3182 4.89039 19.3576 4.95868 19.3835C5.02697 19.4093 5.10095 19.4215 5.17444 19.4185H19.8444C19.9177 19.4219 19.9911 19.4103 20.0591 19.3845C20.1271 19.3586 20.1886 19.3185 20.2389 19.2681C20.3032 19.1984 20.338 19.1084 20.337 19.0159V19.0056L18.6851 4.95823C18.6583 4.85509 18.5958 4.76434 18.5074 4.69878C18.419 4.63322 18.3104 4.59688 18.198 4.59686H15.646H15.6351C15.2803 4.59686 14.1718 4.58965 12.4936 4.58965C10.8155 4.58965 9.68375 4.58948 9.34454 4.59686H9.33038H6.83071C6.72127 4.58564 6.61115 4.61141 6.52016 4.66995C6.42916 4.7285 6.36399 4.81673 6.33492 4.91705ZM12.2822 14.9244C11.5561 14.9063 10.8427 14.7409 10.1901 14.4395C9.48471 14.1143 8.89597 13.5998 8.49897 12.96C8.10197 12.3203 7.91439 11.5837 7.9585 10.8432C7.91945 7.58552 7.9585 7.00423 7.9585 6.94941C7.9733 6.7397 8.0755 6.5442 8.2429 6.4058C8.4103 6.2674 8.62898 6.19723 8.85093 6.21121C9.07288 6.22519 9.27979 6.32176 9.42627 6.47993C9.57274 6.6381 9.64701 6.84472 9.63221 7.05443C9.63221 7.07973 9.60097 7.66491 9.63221 10.8298C9.59302 11.269 9.69103 11.7099 9.91552 12.0962C10.14 12.4825 10.4808 12.7977 10.894 13.0022C11.334 13.211 11.8154 13.328 12.3073 13.3471H12.3596C13.1672 13.3742 13.9584 13.129 14.5912 12.6542C14.8362 12.4148 15.0253 12.1284 15.1448 11.8151C15.2642 11.5018 15.3113 11.168 15.2842 10.836V7.00398C15.2842 6.79427 15.3725 6.59321 15.5294 6.44492C15.6864 6.29664 15.8992 6.21327 16.1211 6.21327C16.343 6.21327 16.5558 6.29664 16.7128 6.44492C16.8697 6.59321 16.958 6.79427 16.958 7.00398V10.836C16.9871 11.3857 16.8927 11.9355 16.6812 12.4483C16.4696 12.9611 16.1461 13.4254 15.731 13.8115C14.811 14.5485 13.6398 14.9457 12.4337 14.9306C12.3634 14.9285 12.3146 14.9254 12.2822 14.9254V14.9244Z" fill="#5E7360"/>
</svg>
