<svg width="24" height="24" viewBox="0 0 24 24" fill="none" xmlns="http://www.w3.org/2000/svg">
<circle cx="12" cy="12" r="12" fill="black" fill-opacity="0.36"/>
<path d="M7.67212 7.33338C7.7165 7.33335 7.76044 7.34208 7.80144 7.35906C7.84244 7.37605 7.87968 7.40097 7.91102 7.43238L11.9953 11.5167L16.0796 7.43238C16.1431 7.36899 16.2291 7.33338 16.3189 7.33338C16.4086 7.33338 16.4946 7.36899 16.5581 7.43238C16.5895 7.46373 16.6144 7.50097 16.6314 7.54196C16.6484 7.58296 16.6572 7.6269 16.6571 7.67128C16.6572 7.71566 16.6484 7.7596 16.6314 7.8006C16.6144 7.8416 16.5895 7.87884 16.5581 7.91018L12.4738 11.9952L16.5581 16.0795C16.5916 16.1104 16.6185 16.1478 16.6371 16.1894C16.6558 16.231 16.6659 16.2759 16.6668 16.3215C16.6677 16.367 16.6593 16.4123 16.6423 16.4546C16.6253 16.4969 16.5999 16.5353 16.5676 16.5675C16.5354 16.5998 16.497 16.6252 16.4547 16.6422C16.4125 16.6592 16.3672 16.6675 16.3216 16.6666C16.276 16.6658 16.2311 16.6557 16.1895 16.637C16.1479 16.6183 16.1105 16.5915 16.0796 16.558L11.9953 12.4737L7.91102 16.558C7.84753 16.6214 7.76148 16.657 7.67176 16.657C7.58204 16.657 7.49599 16.6214 7.4325 16.558C7.40109 16.5267 7.37618 16.4894 7.35919 16.4484C7.3422 16.4074 7.33347 16.3635 7.3335 16.3191C7.33347 16.2747 7.3422 16.2308 7.35919 16.1898C7.37618 16.1488 7.40109 16.1115 7.4325 16.0802L11.5168 11.9952L7.4325 7.9109C7.40109 7.87955 7.37618 7.84231 7.35919 7.80132C7.3422 7.76032 7.33347 7.71638 7.3335 7.672C7.33337 7.6275 7.34206 7.58342 7.35905 7.54229C7.37604 7.50117 7.401 7.46381 7.4325 7.43238C7.46393 7.40088 7.50129 7.37592 7.54242 7.35893C7.58354 7.34193 7.62762 7.33325 7.67212 7.33338Z" fill="white" stroke="white" stroke-width="0.5" stroke-linecap="round"/>
</svg>
