<svg width="24" height="24" viewBox="0 0 24 24" fill="none" xmlns="http://www.w3.org/2000/svg">
<circle cx="12" cy="12" r="12" fill="#F2F2F2"/>
<path d="M7.67188 7.33331C7.71625 7.33328 7.7602 7.34201 7.8012 7.359C7.84219 7.37599 7.87943 7.40091 7.91078 7.43232L11.9951 11.5166L16.0794 7.43232C16.1428 7.36893 16.2289 7.33332 16.3186 7.33332C16.4083 7.33332 16.4944 7.36893 16.5579 7.43232C16.5893 7.46367 16.6142 7.50091 16.6312 7.5419C16.6482 7.5829 16.6569 7.62684 16.6569 7.67122C16.6569 7.7156 16.6482 7.75954 16.6312 7.80054C16.6142 7.84154 16.5893 7.87878 16.5579 7.91012L12.4736 11.9951L16.5579 16.0794C16.5913 16.1104 16.6182 16.1477 16.6369 16.1893C16.6556 16.2309 16.6656 16.2758 16.6665 16.3214C16.6674 16.367 16.6591 16.4123 16.6421 16.4545C16.625 16.4968 16.5996 16.5352 16.5674 16.5675C16.5352 16.5997 16.4968 16.6251 16.4545 16.6421C16.4122 16.6592 16.3669 16.6675 16.3214 16.6666C16.2758 16.6657 16.2309 16.6556 16.1893 16.6369C16.1477 16.6183 16.1103 16.5914 16.0794 16.5579L11.9951 12.4736L7.91078 16.5579C7.84729 16.6213 7.76124 16.6569 7.67152 16.6569C7.5818 16.6569 7.49575 16.6213 7.43226 16.5579C7.40085 16.5266 7.37593 16.4894 7.35894 16.4484C7.34195 16.4074 7.33322 16.3634 7.33325 16.319C7.33322 16.2747 7.34195 16.2307 7.35894 16.1897C7.37593 16.1487 7.40085 16.1115 7.43226 16.0801L11.5165 11.9951L7.43226 7.91084C7.40085 7.87949 7.37593 7.84225 7.35894 7.80126C7.34195 7.76026 7.33322 7.71631 7.33325 7.67194C7.33313 7.62744 7.34181 7.58336 7.3588 7.54223C7.3758 7.50111 7.40076 7.46375 7.43226 7.43232C7.46369 7.40082 7.50105 7.37586 7.54217 7.35887C7.5833 7.34187 7.62738 7.33319 7.67188 7.33331Z" fill="black" stroke="black" stroke-width="0.5" stroke-linecap="round"/>
</svg>
