<svg width="28" height="28" viewBox="0 0 28 28" fill="none" xmlns="http://www.w3.org/2000/svg">
<circle cx="14" cy="14" r="14" fill="#F2F2F2"/>
<path d="M9.67212 9.3335C9.7165 9.33347 9.76044 9.3422 9.80144 9.35919C9.84244 9.37618 9.87968 9.40109 9.91102 9.4325L13.9953 13.5168L18.0796 9.4325C18.1431 9.36911 18.2291 9.3335 18.3189 9.3335C18.4086 9.3335 18.4946 9.36911 18.5581 9.4325C18.5895 9.46385 18.6144 9.50109 18.6314 9.54208C18.6484 9.58308 18.6572 9.62703 18.6571 9.6714C18.6572 9.71578 18.6484 9.75973 18.6314 9.80072C18.6144 9.84172 18.5895 9.87896 18.5581 9.91031L14.4738 13.9953L18.5581 18.0796C18.5916 18.1105 18.6185 18.1479 18.6371 18.1895C18.6558 18.2311 18.6659 18.276 18.6668 18.3216C18.6677 18.3672 18.6593 18.4125 18.6423 18.4547C18.6253 18.497 18.5999 18.5354 18.5676 18.5676C18.5354 18.5999 18.497 18.6253 18.4547 18.6423C18.4125 18.6593 18.3672 18.6677 18.3216 18.6668C18.276 18.6659 18.2311 18.6558 18.1895 18.6371C18.1479 18.6185 18.1105 18.5916 18.0796 18.5581L13.9953 14.4738L9.91102 18.5581C9.84753 18.6215 9.76148 18.6571 9.67176 18.6571C9.58204 18.6571 9.49599 18.6215 9.4325 18.5581C9.40109 18.5268 9.37618 18.4895 9.35919 18.4485C9.3422 18.4075 9.33347 18.3636 9.3335 18.3192C9.33347 18.2748 9.3422 18.2309 9.35919 18.1899C9.37618 18.1489 9.40109 18.1117 9.4325 18.0803L13.5168 13.9953L9.4325 9.91102C9.40109 9.87968 9.37618 9.84244 9.35919 9.80144C9.3422 9.76044 9.33347 9.7165 9.3335 9.67212C9.33337 9.62762 9.34206 9.58354 9.35905 9.54242C9.37604 9.50129 9.401 9.46393 9.4325 9.4325C9.46393 9.401 9.50129 9.37604 9.54242 9.35905C9.58354 9.34206 9.62762 9.33337 9.67212 9.3335Z" fill="black" stroke="black" stroke-width="0.5" stroke-linecap="round"/>
</svg>
