<svg width="15" height="18" viewBox="0 0 15 18" fill="none" xmlns="http://www.w3.org/2000/svg">
<g clip-path="url(#clip0)">
<path d="M13.99 14.74C14.0805 14.74 14.1672 14.7041 14.2312 14.6401C14.2951 14.5762 14.331 14.4894 14.331 14.399V10.49C14.331 10.413 14.3049 10.3383 14.257 10.278L12.829 8.478V6.96C12.8285 6.54386 12.6629 6.14494 12.3685 5.85078C12.0742 5.55662 11.6752 5.39126 11.259 5.391H11.059V5.074C11.0588 4.78234 10.9975 4.49396 10.8792 4.22737C10.7609 3.96078 10.5881 3.72188 10.372 3.526C10.2758 3.43884 10.1989 3.33252 10.1462 3.21386C10.0935 3.0952 10.0662 2.96683 10.066 2.837V2.525H10.339C10.4295 2.525 10.5162 2.48907 10.5802 2.42512C10.6441 2.36117 10.68 2.27444 10.68 2.184V0.341C10.68 0.296219 10.6712 0.251877 10.6541 0.210505C10.6369 0.169133 10.6118 0.131541 10.5802 0.0998766C10.5485 0.0682118 10.5109 0.0430939 10.4695 0.0259571C10.4282 0.00882022 10.3838 0 10.339 0L4.33303 0C4.24259 0 4.15585 0.0359267 4.0919 0.0998766C4.02795 0.163826 3.99203 0.250561 3.99203 0.341V2.183C3.99203 2.27344 4.02795 2.36017 4.0919 2.42412C4.15585 2.48807 4.24259 2.524 4.33303 2.524H4.60603V2.8C4.60638 2.94009 4.57488 3.07843 4.51389 3.20455C4.45291 3.33067 4.36405 3.44128 4.25403 3.528L3.92903 3.786C3.68692 3.97733 3.49048 4.22021 3.354 4.49698C3.21752 4.77374 3.14442 5.07744 3.14003 5.386H3.07103C2.86447 5.386 2.65994 5.42673 2.46914 5.50587C2.27834 5.58501 2.10502 5.701 1.9591 5.8472C1.81318 5.99339 1.69753 6.16693 1.61875 6.35788C1.53998 6.54883 1.49963 6.75344 1.50003 6.96V8.476L0.0720283 10.276C0.0244234 10.3371 -0.000969333 10.4126 2.83142e-05 10.49V17.129C2.83142e-05 17.1738 0.00884854 17.2181 0.0259854 17.2595C0.0431222 17.3009 0.0682401 17.3385 0.0999049 17.3701C0.13157 17.4018 0.169161 17.4269 0.210533 17.444C0.251905 17.4612 0.296248 17.47 0.341028 17.47H13.99C14.0805 17.47 14.1672 17.4341 14.2312 17.3701C14.2951 17.3062 14.331 17.2194 14.331 17.129C14.331 17.0386 14.2951 16.9518 14.2312 16.8879C14.1672 16.8239 14.0805 16.788 13.99 16.788H0.682028V10.609L2.00003 8.94H12.327L13.649 10.609V14.4C13.649 14.4904 13.685 14.5772 13.7489 14.6411C13.8129 14.7051 13.8996 14.741 13.99 14.741V14.74ZM4.67503 0.682H10V1.842H4.67503V0.682ZM3.82203 5.424C3.82179 5.21236 3.86954 5.00342 3.96169 4.8129C4.05383 4.62237 4.18798 4.45522 4.35403 4.324L4.67903 4.066C4.87035 3.91532 5.02475 3.72295 5.13046 3.50355C5.23617 3.28416 5.2904 3.04353 5.28903 2.8V2.525H9.38303V2.837C9.3832 3.06213 9.43044 3.28473 9.52171 3.49052C9.61299 3.69632 9.74628 3.88075 9.91303 4.032C10.0587 4.16395 10.1751 4.3249 10.2548 4.50453C10.3346 4.68415 10.3759 4.87847 10.376 5.075V5.392H9.14503C9.05459 5.392 8.96785 5.42793 8.9039 5.49188C8.83996 5.55583 8.80403 5.64256 8.80403 5.733V6.677C8.80403 6.73429 8.78127 6.78923 8.74076 6.82974C8.70026 6.87024 8.64532 6.893 8.58803 6.893H8.06403V6.063C8.06403 5.97256 8.0281 5.88583 7.96415 5.82188C7.9002 5.75793 7.81347 5.722 7.72303 5.722C7.63259 5.722 7.54585 5.75793 7.4819 5.82188C7.41795 5.88583 7.38203 5.97256 7.38203 6.063V6.893H6.60003V6.063C6.60003 5.97256 6.5641 5.88583 6.50015 5.82188C6.4362 5.75793 6.34947 5.722 6.25903 5.722C6.16859 5.722 6.08185 5.75793 6.0179 5.82188C5.95395 5.88583 5.91803 5.97256 5.91803 6.063V6.893H5.14403V6.063C5.14403 5.97256 5.1081 5.88583 5.04415 5.82188C4.9802 5.75793 4.89347 5.722 4.80303 5.722C4.71259 5.722 4.62585 5.75793 4.5619 5.82188C4.49795 5.88583 4.46203 5.97256 4.46203 6.063V6.893H4.03803C3.98074 6.893 3.9258 6.87024 3.88529 6.82974C3.84479 6.78923 3.82203 6.73429 3.82203 6.677V5.424ZM12.148 8.257H2.18403V6.96C2.18429 6.72483 2.27783 6.49938 2.44412 6.33309C2.6104 6.1668 2.83586 6.07326 3.07103 6.073H3.14003V6.673C3.13998 6.76423 3.15381 6.85493 3.18103 6.942C3.1183 6.98129 3.07005 7.03992 3.04358 7.10904C3.01711 7.17816 3.01384 7.25402 3.03428 7.32516C3.05472 7.3963 3.09775 7.45886 3.15688 7.50339C3.216 7.54792 3.28801 7.572 3.36203 7.572H10.97C11.0605 7.572 11.1472 7.53607 11.2112 7.47212C11.2751 7.40817 11.311 7.32144 11.311 7.231C11.311 7.14056 11.2751 7.05383 11.2112 6.98988C11.1472 6.92593 11.0605 6.89 10.97 6.89H9.45903C9.4764 6.81932 9.48513 6.74679 9.48503 6.674V6.074H11.26C11.4952 6.07426 11.7207 6.1678 11.8869 6.33409C12.0532 6.50038 12.1468 6.72583 12.147 6.961L12.148 8.257Z" fill="black"/>
<path d="M7.16624 9.54907C7.0758 9.54907 6.98906 9.58498 6.92511 9.64893C6.86116 9.71288 6.82523 9.79964 6.82523 9.89008V9.99005C5.82298 10.0739 4.88525 10.5187 4.18632 11.2419C3.48739 11.9652 3.0748 12.9175 3.02523 13.9221H2.45623C2.3658 13.9221 2.27906 13.958 2.21511 14.0219C2.15116 14.0859 2.11523 14.1726 2.11523 14.2631C2.11576 14.7517 2.31011 15.2202 2.65562 15.5657C3.00114 15.9112 3.4696 16.1055 3.95823 16.106H10.3732C10.8619 16.1055 11.3303 15.9112 11.6758 15.5657C12.0214 15.2202 12.2157 14.7517 12.2162 14.2631C12.2162 14.1726 12.1803 14.0859 12.1164 14.0219C12.0524 13.958 11.9657 13.9221 11.8752 13.9221H11.3062C11.2567 12.9175 10.8441 11.9652 10.1451 11.2419C9.44622 10.5187 8.50849 10.0739 7.50623 9.99005V9.89008C7.50623 9.79981 7.47044 9.71321 7.40671 9.64929C7.34297 9.58537 7.2565 9.54934 7.16624 9.54907ZM10.3732 15.4231H3.95823C3.71017 15.4228 3.4687 15.3432 3.26915 15.1958C3.06961 15.0484 2.92246 14.8411 2.84924 14.6041H11.4822C11.409 14.8411 11.2619 15.0484 11.0623 15.1958C10.8628 15.3432 10.6213 15.4228 10.3732 15.4231ZM10.6232 13.9231H3.70923C3.7612 13.0414 4.14805 12.213 4.79066 11.6071C5.43326 11.0013 6.28307 10.6638 7.16624 10.6638C8.04941 10.6638 8.8992 11.0013 9.54181 11.6071C10.1844 12.213 10.5713 13.0414 10.6232 13.9231Z" fill="#050505"/>
<path d="M13.9902 15.4231C13.9113 15.423 13.8348 15.4503 13.7738 15.5003C13.7128 15.5503 13.671 15.62 13.6555 15.6974C13.6401 15.7747 13.6519 15.855 13.6891 15.9247C13.7262 15.9943 13.7864 16.0488 13.8592 16.0791C13.9321 16.1093 14.0132 16.1133 14.0887 16.0905C14.1642 16.0676 14.2295 16.0193 14.2734 15.9537C14.3172 15.8881 14.337 15.8094 14.3293 15.7309C14.3216 15.6523 14.2869 15.5789 14.2312 15.5231C14.1671 15.4594 14.0805 15.4235 13.9902 15.4231Z" fill="black"/>
</g>
<defs>
<clipPath id="clip0">
<rect width="14.331" height="17.47" fill="white"/>
</clipPath>
</defs>
</svg>
