<svg width="21" height="20" viewBox="0 0 21 20" fill="none" xmlns="http://www.w3.org/2000/svg">
<path d="M9.19132 15.2051C9.12046 15.205 9.05176 15.2295 8.99694 15.2744C8.94213 15.3194 8.90458 15.3819 8.8907 15.4514C8.87682 15.5209 8.88747 15.593 8.92082 15.6555C8.95418 15.718 9.00818 15.7671 9.07362 15.7942C9.13907 15.8214 9.21192 15.825 9.27974 15.8045C9.34757 15.784 9.40618 15.7406 9.44559 15.6817C9.485 15.6228 9.50277 15.552 9.49587 15.4815C9.48897 15.411 9.45783 15.345 9.40776 15.2949C9.35022 15.2377 9.27247 15.2054 9.19132 15.2051Z" fill="black"/>
<path d="M15.2902 10.0643L14.5764 6.84064C14.7645 6.81481 14.9363 6.7199 15.0583 6.57438C15.2039 6.66575 15.3723 6.71416 15.5442 6.71405H16.1568C16.238 6.71405 16.3159 6.68178 16.3734 6.62434C16.4308 6.5669 16.4631 6.489 16.4631 6.40777V5.18265C16.4631 5.10142 16.4308 5.02351 16.3734 4.96608C16.3159 4.90864 16.238 4.87637 16.1568 4.87637H15.5442C15.3674 4.8763 15.1943 4.92766 15.046 5.0242C14.9745 4.94296 14.8866 4.87786 14.788 4.83322C14.6895 4.78859 14.5825 4.76543 14.4743 4.76529H12.666C12.5116 4.76562 12.361 4.81258 12.2337 4.90003C12.1065 4.98747 12.0086 5.11132 11.953 5.25534H11.2269C11.0157 5.25534 10.8132 5.33924 10.6638 5.48858C10.5145 5.63792 10.4306 5.84047 10.4306 6.05167C10.4306 6.26286 10.5145 6.46541 10.6638 6.61475C10.8132 6.76409 11.0157 6.84799 11.2269 6.84799H12.8032V7.46545C12.8032 7.54668 12.8355 7.62459 12.893 7.68202C12.9504 7.73946 13.0283 7.77173 13.1095 7.77173C13.1908 7.77173 13.2687 7.73946 13.3261 7.68202C13.3835 7.62459 13.4158 7.54668 13.4158 7.46545V6.84799H13.9516L14.7201 10.3208L13.2647 12.9115C13.1865 13.0503 13.0729 13.1657 12.9354 13.2461C12.7979 13.3265 12.6415 13.3688 12.4823 13.3689H8.85101C8.77469 12.745 8.47292 12.1706 8.00252 11.7537C7.53213 11.3369 6.92556 11.1064 6.29705 11.1057C5.72005 11.1018 5.15882 11.2938 4.70521 11.6505C4.43898 11.8584 4.2166 12.1171 4.0509 12.4114C3.8852 12.7058 3.77947 13.0301 3.73982 13.3656H3.11338C3.13537 12.3047 3.57194 11.2945 4.32959 10.5515C5.08724 9.80855 6.10572 9.39179 7.16688 9.39052H9.33861C9.42114 9.39052 9.50029 9.42331 9.55865 9.48166C9.61701 9.54002 9.64979 9.61917 9.64979 9.7017V12.4517C9.64979 12.5329 9.68206 12.6108 9.7395 12.6683C9.79694 12.7257 9.87484 12.758 9.95607 12.758H11.5855C12.0697 12.758 12.5341 12.5657 12.8765 12.2234C13.219 11.881 13.4115 11.4167 13.4117 10.9325V9.91487C13.4117 9.83378 13.3796 9.756 13.3223 9.69859C13.265 9.64117 13.1873 9.60881 13.1063 9.60859C13.0252 9.60859 12.9474 9.64075 12.89 9.69801C12.8326 9.75527 12.8002 9.83297 12.8 9.91405V10.9317C12.7998 11.2535 12.6718 11.562 12.4442 11.7894C12.2166 12.0168 11.908 12.1446 11.5863 12.1446H10.2591V9.70007C10.2593 9.54848 10.222 9.39921 10.1505 9.26556C10.3265 9.16502 10.4643 9.00906 10.5423 8.822C10.6204 8.63495 10.6344 8.42731 10.5821 8.23148C10.5297 8.03565 10.4141 7.86264 10.2531 7.73943C10.0922 7.61623 9.89496 7.54976 9.69226 7.55039H8.57822C8.47389 7.55021 8.3703 7.56789 8.27194 7.60266V4.91802C8.27151 4.67454 8.17454 4.44116 8.00229 4.26907C7.83005 4.09698 7.59659 4.00022 7.3531 4H5.3774C4.69334 4.00093 4.03192 4.24512 3.51137 4.68891C2.99081 5.13271 2.64507 5.74718 2.53594 6.42247C2.52662 6.45234 2.52194 6.48347 2.52205 6.51476C2.52205 6.51476 2.52205 6.51476 2.52205 6.52048C2.50735 6.63888 2.49998 6.75808 2.5 6.87739V8.47005C2.50024 8.68986 2.57921 8.90232 2.7226 9.06893C2.86598 9.23554 3.0643 9.34528 3.28163 9.37827L3.95952 10.0562C3.49827 10.4916 3.13087 11.0168 2.87989 11.5994C2.62891 12.182 2.49963 12.8097 2.5 13.444V13.6752C2.5 13.7564 2.53227 13.8343 2.58971 13.8917C2.64715 13.9492 2.72505 13.9814 2.80628 13.9814H4.52716C4.52325 14.0016 4.52133 14.0221 4.52145 14.0427C4.52129 14.47 4.67594 14.8829 4.95677 15.2049H2.80628C2.72505 15.2049 2.64715 15.2372 2.58971 15.2946C2.53227 15.3521 2.5 15.43 2.5 15.5112C2.5 15.5924 2.53227 15.6703 2.58971 15.7278C2.64715 15.7852 2.72505 15.8175 2.80628 15.8175H6.29705C6.76707 15.8168 7.21771 15.6301 7.55044 15.2982C7.88317 14.9662 8.07093 14.516 8.07266 14.046C8.07277 14.0254 8.07085 14.0049 8.06694 13.9847H12.4831C12.7195 13.9846 12.9526 13.929 13.1636 13.8225C13.3747 13.716 13.5579 13.5614 13.6984 13.3713H14.0864C13.9611 13.6753 13.923 14.0081 13.9762 14.3326C14.0294 14.657 14.1719 14.9602 14.3877 15.2082H10.4159C10.3347 15.2082 10.2568 15.2405 10.1993 15.2979C10.1419 15.3553 10.1096 15.4332 10.1096 15.5145C10.1096 15.5957 10.1419 15.6736 10.1993 15.7311C10.2568 15.7885 10.3347 15.8208 10.4159 15.8208H15.7247C16.0163 15.8208 16.3034 15.749 16.5606 15.6117C16.8178 15.4745 17.0373 15.276 17.1997 15.0338C17.362 14.7916 17.4622 14.5132 17.4914 14.2231C17.5207 13.933 17.478 13.6402 17.3672 13.3705H17.8679C17.9491 13.3705 18.027 13.3383 18.0845 13.2808C18.1419 13.2234 18.1742 13.1455 18.1742 13.0642C18.1733 12.2884 17.8722 11.5431 17.334 10.9843C16.7958 10.4255 16.0622 10.0967 15.287 10.0668L15.2902 10.0643ZM8.57822 8.1654H9.69553C9.77676 8.1654 9.85466 8.19767 9.9121 8.25511C9.96954 8.31255 10.0018 8.39045 10.0018 8.47168C10.0018 8.55291 9.96954 8.63082 9.9121 8.68825C9.85466 8.74569 9.77676 8.77796 9.69553 8.77796H8.57822C8.538 8.77796 8.49817 8.77004 8.46101 8.75465C8.42385 8.73926 8.39009 8.7167 8.36165 8.68825C8.33321 8.65981 8.31065 8.62605 8.29526 8.58889C8.27986 8.55173 8.27194 8.5119 8.27194 8.47168C8.27194 8.43146 8.27986 8.39163 8.29526 8.35447C8.31065 8.31731 8.33321 8.28355 8.36165 8.25511C8.39009 8.22667 8.42385 8.20411 8.46101 8.18872C8.49817 8.17332 8.538 8.1654 8.57822 8.1654ZM3.11256 6.87739C3.11256 6.85861 3.11256 6.83982 3.11256 6.82104H6.46122C6.54245 6.82104 6.62035 6.78877 6.67779 6.73133C6.73523 6.67389 6.7675 6.59599 6.7675 6.51476C6.7675 6.43353 6.73523 6.35563 6.67779 6.29819C6.62035 6.24075 6.54245 6.20848 6.46122 6.20848H3.21302C3.35663 5.74654 3.64407 5.34257 4.03342 5.05548C4.42276 4.76839 4.89365 4.61321 5.3774 4.61256H7.3531C7.43433 4.61256 7.51224 4.64483 7.56967 4.70227C7.62711 4.7597 7.65938 4.83761 7.65938 4.91884V8.47005C7.65938 8.55128 7.62711 8.62918 7.56967 8.68662C7.51224 8.74406 7.43433 8.77633 7.3531 8.77633H3.41802C3.33693 8.77611 3.25924 8.74375 3.20198 8.68633C3.14472 8.62892 3.11256 8.55114 3.11256 8.47005V6.87739ZM4.15799 9.39052H4.85876C4.71204 9.47449 4.56999 9.56637 4.43324 9.66576L4.15799 9.39052ZM7.46091 14.046C7.4605 14.3523 7.3394 14.6462 7.12385 14.8639C6.90829 15.0816 6.61564 15.2056 6.3093 15.209H6.26111C5.95892 15.1995 5.67228 15.0728 5.46179 14.8558C5.2513 14.6387 5.13346 14.3483 5.13319 14.046C5.1333 14.0254 5.13139 14.0049 5.12747 13.9847H7.46663C7.46272 14.0049 7.4608 14.0254 7.46091 14.046ZM4.35728 13.3722C4.43347 12.8829 4.69309 12.4411 5.08337 12.1364C5.42746 11.8652 5.8532 11.7184 6.29133 11.7199C6.75845 11.7182 7.21081 11.8835 7.5669 12.1858C7.92298 12.4881 8.1594 12.9077 8.23355 13.3689L4.35728 13.3722ZM15.5442 5.48893H15.8505V6.10149H15.5442C15.463 6.10149 15.3851 6.06922 15.3277 6.01178C15.2702 5.95434 15.238 5.87644 15.238 5.79521C15.238 5.71398 15.2702 5.63607 15.3277 5.57863C15.3851 5.5212 15.463 5.48893 15.5442 5.48893ZM11.0432 6.05167C11.0432 6.00293 11.0625 5.95618 11.097 5.92172C11.1314 5.88726 11.1782 5.8679 11.2269 5.8679H11.9016V6.08352C11.9017 6.13455 11.9069 6.18544 11.9171 6.23543H11.2269C11.1782 6.23543 11.1314 6.21607 11.097 6.18161C11.0625 6.14715 11.0432 6.1004 11.0432 6.05167ZM13.1095 6.23543H12.666C12.6257 6.23543 12.5871 6.21943 12.5586 6.19094C12.5301 6.16245 12.5141 6.12381 12.5141 6.08352V5.52976C12.5143 5.48954 12.5304 5.45102 12.5588 5.42258C12.5873 5.39414 12.6258 5.37806 12.666 5.37785H14.4735C14.5137 5.37806 14.5522 5.39414 14.5807 5.42258C14.6091 5.45102 14.6252 5.48954 14.6254 5.52976V6.0827C14.6254 6.12299 14.6094 6.16163 14.5809 6.19012C14.5524 6.21861 14.5138 6.23462 14.4735 6.23462L13.1095 6.23543ZM16.8911 14.046C16.8906 14.3523 16.7695 14.6462 16.554 14.8639C16.3384 15.0816 16.0458 15.2056 15.7394 15.209H15.6921C15.4816 15.2028 15.2767 15.1395 15.0994 15.0259C14.922 14.9124 14.7788 14.7528 14.6851 14.5642C14.5914 14.3756 14.5506 14.1651 14.5671 13.9552C14.5836 13.7453 14.6569 13.5437 14.779 13.3722H16.6746C16.815 13.5691 16.8904 13.8049 16.8902 14.0468L16.8911 14.046ZM14.0545 12.7555L15.2224 10.6761C15.7944 10.6873 16.3434 10.9033 16.7696 11.2849C17.1959 11.6664 17.4711 12.1883 17.5453 12.7555H14.0545Z" fill="black"/>
<path d="M13.109 8.99513C13.1902 8.99513 13.2681 8.96286 13.3256 8.90542C13.383 8.84798 13.4153 8.77008 13.4153 8.68885C13.4153 8.60762 13.383 8.52971 13.3256 8.47227C13.2681 8.41484 13.1902 8.38257 13.109 8.38257C13.0278 8.38257 12.9499 8.41484 12.8924 8.47227C12.835 8.52971 12.8027 8.60762 12.8027 8.68885C12.8027 8.77008 12.835 8.84798 12.8924 8.90542C12.9499 8.96286 13.0278 8.99513 13.109 8.99513Z" fill="black"/>
</svg>
