<svg width="20" height="21" viewBox="0 0 20 21" fill="none" xmlns="http://www.w3.org/2000/svg">
<path d="M3.80167 4.02783C3.45719 4.0302 3.12749 4.16647 2.8839 4.40716C2.6403 4.64786 2.5024 4.97363 2.5 5.31402V13.0293C2.5 13.1999 2.56857 13.3634 2.69063 13.484C2.81268 13.6046 2.97822 13.6724 3.15084 13.6724C3.32345 13.6724 3.48899 13.6046 3.61105 13.484C3.7331 13.3634 3.80167 13.1999 3.80167 13.0293V5.31402H13.5619C13.7345 5.31402 13.9001 5.24626 14.0221 5.12566C14.1442 5.00505 14.2127 4.84148 14.2127 4.67092C14.2127 4.50037 14.1442 4.33679 14.0221 4.21619C13.9001 4.09559 13.7345 4.02783 13.5619 4.02783H3.80167ZM6.4041 6.59929C6.1193 6.59992 5.8426 6.69296 5.61651 6.86409C5.39043 7.03523 5.22749 7.27499 5.15274 7.54653L10.9567 11.1005L16.7507 7.51309C16.6701 7.24994 16.5062 7.01928 16.2831 6.85497C16.06 6.69065 15.7895 6.60136 15.5112 6.6002L6.4041 6.59929ZM16.8147 8.7577L11.3016 12.1734C11.1985 12.2371 11.0793 12.2709 10.9577 12.2709C10.836 12.2709 10.7168 12.2371 10.6137 12.1734L5.10243 8.80108V14.3146C5.10315 14.6551 5.24064 14.9815 5.4847 15.222C5.72876 15.4625 6.05943 15.5974 6.4041 15.5972H11.1104C11.0334 15.3913 10.9928 15.1739 10.9906 14.9545C10.9913 14.4432 11.1972 13.953 11.5631 13.5914C11.9291 13.2299 12.4251 13.0264 12.9426 13.0257H13.593V12.8766C13.594 12.4485 13.7667 12.0383 14.0733 11.7358C14.3799 11.4334 14.7953 11.2634 15.2286 11.2632C15.4426 11.2626 15.6546 11.304 15.8523 11.385C16.05 11.4659 16.2294 11.5849 16.3802 11.735L16.8147 12.1643V8.7577ZM15.2834 12.5539C15.2357 12.5457 15.1868 12.5479 15.14 12.5604C15.0933 12.5729 15.0499 12.5954 15.0128 12.6262C14.9758 12.6571 14.946 12.6955 14.9256 12.7389C14.9052 12.7823 14.8946 12.8296 14.8947 12.8775V14.3128H12.9426C12.77 14.3128 12.6045 14.3805 12.4824 14.5011C12.3604 14.6217 12.2918 14.7853 12.2918 14.9559C12.2918 15.1264 12.3604 15.29 12.4824 15.4106C12.6045 15.5312 12.77 15.599 12.9426 15.599H14.8947V17.0343C14.8949 17.0989 14.9145 17.162 14.9509 17.2157C14.9872 17.2693 15.0389 17.3112 15.0992 17.336C15.1596 17.3608 15.226 17.3675 15.2902 17.3551C15.3544 17.3428 15.4135 17.312 15.46 17.2666L17.2895 15.4589C17.4244 15.3236 17.5 15.1413 17.5 14.9514C17.5 14.7614 17.4244 14.5791 17.2895 14.4438L15.46 12.6407C15.4114 12.5951 15.3497 12.5654 15.2834 12.5557V12.5539Z" fill="#5E7360"/>
</svg>


