<svg width="19" height="19" viewBox="0 0 19 19" fill="none" xmlns="http://www.w3.org/2000/svg">
<path d="M13.4755 0.89473H13.433C12.6138 0.89765 11.8083 1.1049 11.0894 1.49772C10.3706 1.89053 9.76106 2.45649 9.31613 3.14432C8.87172 2.45727 8.26309 1.89181 7.54527 1.49903C6.82745 1.10626 6.02305 0.89857 5.20481 0.89473H5.16418C3.87492 0.90641 2.64238 1.42652 1.73451 2.342C0.826647 3.25748 0.316838 4.49431 0.315918 5.78362C0.423308 7.85995 1.14309 9.858 2.38451 11.5258C4.38799 14.0496 6.71908 16.295 9.31613 18.2026C11.9125 16.2948 14.243 14.0495 16.2459 11.5258C17.4873 9.858 18.2071 7.85995 18.3145 5.78362C18.3136 4.49589 17.8051 3.26044 16.8992 2.34522C15.9933 1.43 14.7631 0.908827 13.4755 0.89473Z" fill="#5E7360"/>
</svg>
