<svg width="18" height="18" viewBox="0 0 18 18" fill="none" xmlns="http://www.w3.org/2000/svg">
<path d="M12.9821 1.30811H12.9421C12.1911 1.31123 11.4527 1.50138 10.7936 1.86139C10.1345 2.22139 9.57553 2.73991 9.16706 3.37011C8.7586 2.73991 8.19958 2.22139 7.5405 1.86139C6.88143 1.50138 6.14305 1.31123 5.39206 1.30811H5.35206C4.16826 1.31917 3.03666 1.79701 2.2032 2.63777C1.36975 3.47852 0.901801 4.61425 0.901062 5.79811C1.00013 7.70476 1.66122 9.53946 2.80106 11.0711C4.64111 13.3887 6.78198 15.4505 9.16706 17.2021C11.5522 15.4502 13.6931 13.388 15.5331 11.0701C16.6729 9.53846 17.334 7.70376 17.4331 5.79711C17.4321 4.61342 16.964 3.47795 16.1306 2.63741C15.2971 1.79687 14.1657 1.31917 12.9821 1.30811Z" fill="white" stroke="#81824E"/>
</svg>
