<svg width="15" height="15" viewBox="0 0 15 15" fill="none" xmlns="http://www.w3.org/2000/svg">
<path d="M10.5804 0.315796H10.5464C9.89105 0.318132 9.24664 0.483936 8.67155 0.798186C8.09645 1.11244 7.60885 1.5652 7.25291 2.11547C6.89738 1.56583 6.41047 1.11346 5.83622 0.79924C5.26196 0.485023 4.61844 0.318868 3.96385 0.315796H3.93134C2.89993 0.325141 1.91391 0.741231 1.18761 1.47361C0.461317 2.20599 0.0534708 3.19546 0.0527344 4.22691C0.138646 5.88798 0.714474 7.48641 1.70761 8.82066C3.31039 10.8397 5.17526 12.636 7.25291 14.1621C9.33003 12.6359 11.1944 10.8396 12.7967 8.82066C13.7899 7.48641 14.3657 5.88798 14.4516 4.22691C14.4509 3.19673 14.0441 2.20836 13.3193 1.47619C12.5946 0.744016 11.6105 0.327074 10.5804 0.315796Z" fill="#5E7360"/>
</svg>

