<svg width="24" height="25" viewBox="0 0 24 25" fill="none" xmlns="http://www.w3.org/2000/svg">
<path d="M9.33333 11.5H7.55556V13.5H9.33333V11.5ZM12.8889 11.5H11.1111V13.5H12.8889V11.5ZM16.4444 11.5H14.6667V13.5H16.4444V11.5ZM18.2222 4.5H17.3333V2.5H15.5556V4.5H8.44444V2.5H6.66667V4.5H5.77778C5.54481 4.50017 5.31416 4.5521 5.09907 4.6528C4.88398 4.7535 4.68869 4.901 4.52439 5.08682C4.3601 5.27264 4.23004 5.49314 4.14167 5.73565C4.05331 5.97816 4.00839 6.23791 4.00948 6.5L4 20.5C4 21.0304 4.1873 21.5391 4.5207 21.9142C4.8541 22.2893 5.30628 22.5 5.77778 22.5H18.2222C18.6937 22.5 19.1459 22.2893 19.4793 21.9142C19.8127 21.5391 20 21.0304 20 20.5V6.5C20 5.96957 19.8127 5.46086 19.4793 5.08579C19.1459 4.71071 18.6937 4.5 18.2222 4.5ZM18.2222 20.5H5.77778V9.5H18.2222V20.5Z" fill="black"/>
</svg>
