<svg width="24" height="25" viewBox="0 0 24 25" fill="none" xmlns="http://www.w3.org/2000/svg">
<path d="M11.4911 2.5C9.61259 2.50176 7.77674 3.06041 6.21564 4.10535C4.65454 5.15029 3.43828 6.6346 2.72061 8.37065C2.00293 10.1067 1.81607 12.0166 2.18363 13.8588C2.55119 15.701 3.45667 17.3929 4.78562 18.7206C6.11457 20.0484 7.80733 20.9523 9.6499 21.3181C11.4925 21.6839 13.4022 21.4953 15.1375 20.776C16.8729 20.0567 18.3561 18.8391 19.3996 17.277C20.4431 15.7149 21 13.8785 21 12C21 10.7517 20.754 9.51563 20.276 8.36246C19.798 7.20929 19.0975 6.16162 18.2144 5.27935C17.3313 4.39708 16.283 3.6975 15.1293 3.2206C13.9757 2.7437 12.7394 2.49884 11.4911 2.5ZM11.5 19.6C9.99686 19.6 8.52748 19.1543 7.27767 18.3192C6.02786 17.4841 5.05375 16.2971 4.47852 14.9084C3.90329 13.5197 3.75279 11.9916 4.04604 10.5173C4.33928 9.04306 5.06311 7.68887 6.12599 6.62599C7.18887 5.56311 8.54306 4.83928 10.0173 4.54604C11.4916 4.25279 13.0197 4.40329 14.4084 4.97852C15.7971 5.55374 16.9841 6.52786 17.8192 7.77767C18.6543 9.02748 19.1 10.4969 19.1 12C19.1 14.0156 18.2993 15.9487 16.874 17.374C15.4487 18.7993 13.5156 19.6 11.5 19.6Z" fill="black"/>
<path d="M11.9758 7.25H10.5508V12.95L15.5389 15.9419L16.252 14.7727L11.977 12.2394L11.9758 7.25Z" fill="black"/>
</svg>
