<svg width="24" height="24" viewBox="0 0 24 24" fill="none" xmlns="http://www.w3.org/2000/svg">
<path d="M9.87506 4L9.06306 4.813H5.81306C5.70467 4.80645 5.59613 4.82295 5.49459 4.86143C5.39305 4.8999 5.30082 4.95947 5.22399 5.03621C5.14717 5.11294 5.08748 5.2051 5.04888 5.30659C5.01028 5.40808 4.99364 5.5166 5.00006 5.625C4.99349 5.73348 5.01002 5.84211 5.04856 5.94372C5.08709 6.04534 5.14675 6.13762 5.2236 6.21446C5.30044 6.29131 5.39272 6.35097 5.49434 6.3895C5.59595 6.42804 5.70458 6.44457 5.81306 6.438H17.1881C17.2965 6.44442 17.405 6.42778 17.5065 6.38918C17.608 6.35058 17.7001 6.2909 17.7769 6.21407C17.8536 6.13724 17.9132 6.04501 17.9516 5.94347C17.9901 5.84193 18.0066 5.73339 18.0001 5.625C18.0065 5.51669 17.9898 5.40826 17.9513 5.30684C17.9128 5.20542 17.8532 5.11332 17.7765 5.0366C17.6997 4.95988 17.6076 4.90029 17.5062 4.86175C17.4048 4.82321 17.2964 4.80659 17.1881 4.813H13.9381L13.1251 4H9.87506ZM5.81306 8.063V18.625C5.81438 19.0556 5.98601 19.4681 6.29047 19.7726C6.59493 20.0771 7.00749 20.2487 7.43806 20.25H15.5631C15.9936 20.2487 16.4062 20.0771 16.7107 19.7726C17.0151 19.4681 17.1867 19.0556 17.1881 18.625V8.063H5.81306ZM9.06306 9.688C9.17154 9.68143 9.28017 9.69796 9.38178 9.7365C9.4834 9.77503 9.57568 9.83469 9.65252 9.91154C9.72937 9.98838 9.78903 10.0807 9.82756 10.1823C9.8661 10.2839 9.88263 10.3925 9.87606 10.501V17.814C9.88261 17.9224 9.86611 18.0309 9.82763 18.1325C9.78916 18.234 9.72959 18.3262 9.65285 18.4031C9.57612 18.4799 9.48396 18.5396 9.38247 18.5782C9.28098 18.6168 9.17246 18.6334 9.06406 18.627C8.95575 18.6334 8.84732 18.6168 8.7459 18.5782C8.64448 18.5397 8.55238 18.4801 8.47566 18.4034C8.39895 18.3267 8.33935 18.2346 8.30081 18.1332C8.26227 18.0317 8.24566 17.9233 8.25206 17.815V10.5C8.24567 10.3918 8.26226 10.2834 8.30074 10.1821C8.33922 10.0807 8.39873 9.9887 8.47533 9.912C8.55194 9.83529 8.64392 9.77568 8.74521 9.73707C8.84651 9.69847 8.95484 9.68174 9.06306 9.688ZM13.9381 9.688C14.0465 9.68143 14.1552 9.69796 14.2568 9.7365C14.3584 9.77503 14.4507 9.83469 14.5275 9.91154C14.6044 9.98838 14.664 10.0807 14.7026 10.1823C14.7411 10.2839 14.7576 10.3925 14.7511 10.501V17.814C14.7437 18.0246 14.6548 18.224 14.5033 18.3704C14.3517 18.5167 14.1492 18.5985 13.9386 18.5985C13.7279 18.5985 13.5254 18.5167 13.3739 18.3704C13.2223 18.224 13.1334 18.0246 13.1261 17.814V10.5C13.1197 10.3917 13.1363 10.2833 13.1748 10.1818C13.2134 10.0804 13.2729 9.98832 13.3497 9.9116C13.4264 9.83488 13.5185 9.77529 13.6199 9.73675C13.7213 9.69821 13.8298 9.6816 13.9381 9.688Z" fill="black"/>
</svg>
