<svg width="7" height="11" viewBox="0 0 7 11" fill="none" xmlns="http://www.w3.org/2000/svg">
<path d="M5.86935 5.0864C6.00751 5.22469 6.08511 5.41217 6.08511 5.60765C6.08511 5.80313 6.00751 5.99061 5.86935 6.1289L1.44601 10.5522C1.30639 10.6836 1.1211 10.7555 0.929409 10.7525C0.737718 10.7496 0.554696 10.6722 0.419134 10.5366C0.283572 10.4011 0.206126 10.218 0.20321 10.0263C0.200295 9.83465 0.272138 9.64936 0.403514 9.50974L4.30518 5.60807L0.403514 1.70557C0.272138 1.56595 0.200295 1.38065 0.20321 1.18896C0.206126 0.997272 0.283572 0.81425 0.419134 0.678688C0.554696 0.543126 0.737718 0.465681 0.929409 0.462765C1.1211 0.459849 1.30639 0.531693 1.44601 0.663069L5.86935 5.0864Z" fill="black"/>
</svg>
