<svg width="25" height="24" viewBox="0 0 25 24" fill="none" xmlns="http://www.w3.org/2000/svg">
<circle cx="11.625" cy="11" r="7" fill="#E8FAE8"/>
<path fill-rule="evenodd" clip-rule="evenodd" d="M8.18703 5.84009C9.213 5.15469 10.4192 4.78893 11.653 4.78909C13.3074 4.78929 14.8939 5.44666 16.0636 6.61659C17.2333 7.78652 17.8905 9.3732 17.8905 11.0276C17.8905 12.2615 17.5246 13.4677 16.8391 14.4937C16.1536 15.5196 15.1793 16.3192 14.0393 16.7914C12.8994 17.2635 11.645 17.387 10.4349 17.1462C9.22481 16.9055 8.11326 16.3112 7.24086 15.4387C6.36846 14.5661 5.77439 13.4544 5.53377 12.2442C5.29316 11.034 5.41681 9.77963 5.88908 8.6397C6.36136 7.49977 7.16105 6.5255 8.18703 5.84009ZM11.6532 3C10.0656 2.9998 8.51348 3.47044 7.19328 4.35241C5.87307 5.23438 4.84405 6.48805 4.23633 7.95489C3.62861 9.42173 3.4695 11.0359 3.77912 12.5931C4.08874 14.1504 4.85318 15.5809 5.97577 16.7037C7.09836 17.8265 8.52867 18.5911 10.0858 18.9009C11.643 19.2108 13.257 19.0519 14.7239 18.4443C15.3947 18.1664 16.021 17.8005 16.5875 17.3588L20.1102 20.7499C20.4661 21.0926 21.0323 21.0818 21.3749 20.7258C21.7175 20.3699 21.7068 19.8036 21.3508 19.461L17.8676 16.1078C18.03 15.9091 18.1832 15.7022 18.3266 15.4876C19.2086 14.1675 19.6795 12.6154 19.6795 11.0276C19.6795 8.89875 18.8339 6.85704 17.3287 5.35159C15.8235 3.84615 13.782 3.00027 11.6532 3Z" fill="#5E7360"/>
</svg>
