<svg width="7" height="6" viewBox="0 0 7 6" fill="none" xmlns="http://www.w3.org/2000/svg">
<path d="M6.57682 0.826729C6.47008 0.829712 6.36876 0.87135 6.29429 0.942838L2.05866 4.89901L0.70254 3.63236C0.664325 3.59666 0.618958 3.56835 0.569028 3.54903C0.519097 3.52972 0.465583 3.51977 0.411539 3.51977C0.357495 3.51977 0.30398 3.52972 0.25405 3.54903C0.204119 3.56835 0.158752 3.59666 0.120537 3.63236C0.0823218 3.66805 0.0520082 3.71042 0.0313264 3.75706C0.0106447 3.8037 -4.02658e-10 3.85368 0 3.90416C4.0266e-10 3.95464 0.0106447 4.00462 0.0313264 4.05126C0.0520082 4.09789 0.0823218 4.14027 0.120537 4.17596L1.7671 5.71388C1.8053 5.7496 1.85066 5.77793 1.9006 5.79726C1.95053 5.81659 2.00405 5.82654 2.0581 5.82654C2.11215 5.82654 2.16567 5.81659 2.2156 5.79726C2.26553 5.77793 2.3109 5.7496 2.3491 5.71388L6.87517 1.48644C6.93471 1.43246 6.97538 1.36291 6.99183 1.28694C7.00829 1.21097 6.99976 1.13213 6.96736 1.06077C6.93497 0.989413 6.88023 0.928874 6.81033 0.887104C6.74042 0.845335 6.65863 0.824288 6.57569 0.826729H6.57682Z" fill="white"/>
</svg>
