<svg width="20" height="20" viewBox="0 0 25 24" fill="none" xmlns="http://www.w3.org/2000/svg">
<path fill-rule="evenodd" clip-rule="evenodd" d="M5.67117 20.9999C5.35467 21.0032 5.04042 20.9408 4.7515 20.8187C4.46257 20.6966 4.20582 20.5177 3.99746 20.2926L3.98983 20.2843C3.80909 20.0849 3.67442 19.8535 3.59211 19.6028C3.50979 19.352 3.48189 19.0875 3.51147 18.8265L5.16121 4.79041C5.22177 4.29368 5.47671 3.83571 5.87602 3.50758C6.27533 3.17945 6.78968 3.00424 7.31872 3.01647H9.67347C9.98971 2.99999 10.7417 2.99999 12.8339 3H12.9817H15.2449H15.2837H15.2837C15.8382 3 16.1197 2.99999 16.2855 3.0103H18.686C19.2049 3.01128 19.7061 3.18672 20.1004 3.50552C20.4946 3.82431 20.7558 4.266 20.837 4.75026V4.76673L22.4878 18.8203C22.518 19.0811 22.4922 19.3448 22.4104 19.5956C22.3287 19.8463 22.193 20.0786 22.0127 20.2782L22.0018 20.2854C21.7951 20.5102 21.5396 20.6903 21.2521 20.8125C20.9647 20.9346 20.652 20.9957 20.3368 20.9927L5.67117 20.9999ZM10.6901 15.23C11.3427 15.5315 12.0562 15.6968 12.7823 15.715V15.716C12.8005 15.716 12.8241 15.717 12.8538 15.7182C12.8766 15.7191 12.9031 15.7202 12.9337 15.7211C14.1398 15.7363 15.3111 15.3391 16.231 14.602C16.6462 14.216 16.9697 13.7516 17.1812 13.2389C17.3927 12.7261 17.4871 12.1762 17.458 11.6266V7.79452C17.458 7.58481 17.3697 7.38375 17.2128 7.23546C17.0559 7.08718 16.8431 7.00381 16.6211 7.00381C16.3992 7.00381 16.1864 7.08718 16.0294 7.23546C15.8725 7.38375 15.7843 7.58481 15.7843 7.79452V11.6266C15.8113 11.9586 15.7642 12.2924 15.6448 12.6057C15.5253 12.919 15.3362 13.2053 15.0912 13.4448C14.4584 13.9195 13.6672 14.1647 12.8596 14.1377H12.8073C12.3155 14.1185 11.834 14.0015 11.394 13.7928C10.9808 13.5883 10.64 13.2731 10.4155 12.8867C10.1911 12.5004 10.093 12.0595 10.1322 11.6204C10.1033 8.68673 10.128 7.96957 10.1318 7.86027C10.1321 7.85165 10.1322 7.84681 10.1322 7.84497C10.147 7.63526 10.0728 7.42864 9.92628 7.27047C9.77981 7.1123 9.57289 7.01573 9.35095 7.00175C9.129 6.98777 8.91032 7.05794 8.74292 7.19634C8.57552 7.33474 8.47332 7.53024 8.45852 7.73995C8.45852 7.7455 8.45812 7.75643 8.45744 7.77499C8.45142 7.93981 8.42342 8.70568 8.45852 11.6338C8.41441 12.3742 8.60199 13.1108 8.99899 13.7505C9.39599 14.3903 9.98473 14.9048 10.6901 15.23Z" fill="#999999"/>
</svg>

