<svg xmlns="http://www.w3.org/2000/svg" width="16.077" height="16.113" viewBox="0 0 16.077 16.113">
  <g id="Group_742" data-name="Group 742" transform="translate(0 0)">
    <path id="Union_2" data-name="Union 2" d="M1.234,16.113a1.247,1.247,0,0,1-.959-.421,1.127,1.127,0,0,1-.268-.844l1.534-13.8A1.184,1.184,0,0,1,2.768.012H4.953C5,0,11.041,0,11.086.012h2.223a1.24,1.24,0,0,1,1.227,1.036l1.534,13.8a1.123,1.123,0,0,1-.268.844,1.247,1.247,0,0,1-.958.421Z" transform="translate(0 0)" fill="#fff"/>
    <path id="Path_79" data-name="Path 79" d="M2177.26,854.11s-.034.5,0,3.764a3.184,3.184,0,0,0,3.259,3.239s3.533.219,3.533-3.239V854.11" transform="translate(-2172.668 -851.963)" fill="none" stroke="#5E7360" stroke-linecap="round" stroke-width="1"/>
  </g>
</svg>
