<svg width="104" height="104" viewBox="0 0 104 104" fill="none" xmlns="http://www.w3.org/2000/svg">
<path d="M52 104C62.2846 104 72.3383 100.95 80.8897 95.2365C89.441 89.5226 96.106 81.4013 100.042 71.8996C103.978 62.3978 105.007 51.9423 103.001 41.8553C100.994 31.7683 96.0419 22.5028 88.7696 15.2305C81.4972 7.95814 72.2317 3.00562 62.1447 0.999189C52.0577 -1.00724 41.6022 0.022531 32.1005 3.95829C22.5987 7.89404 14.4774 14.559 8.76358 23.1104C3.04975 31.6617 0 41.7154 0 52C0.00130367 65.7909 5.48028 79.0165 15.2319 88.7681C24.9835 98.5198 38.2091 103.999 52 104Z" fill="#5E7360"/>
<path d="M61.5425 18.5886C70.7115 19.2376 66.7735 25.442 66.9898 25.2994C67.9288 24.6701 68.2533 22.4578 68.2435 22.0694C68.1697 18.8099 64.0204 17.7234 61.4639 17.4235C61.5905 17.7985 61.6176 18.2 61.5425 18.5886Z" fill="#FFFCEB"/>
<path d="M67.8946 30.5206C67.7201 30.8491 67.5054 31.1546 67.2555 31.4301C67.219 29.9463 66.9003 28.4831 66.3164 27.1185C66.7277 27.006 67.1662 27.0516 67.5455 27.2463C68.5288 27.7822 68.6173 29.1735 67.8946 30.5206ZM62.2506 38.4408C59.8367 39.3552 57.1721 38.7063 54.3403 33.9227C56.5384 34.1756 58.7637 33.8166 60.7708 32.8853C62.7374 32.0201 64.8563 30.2207 65.5446 28.6327C65.7463 28.1852 65.8694 27.7062 65.9084 27.2168C67.3341 32.5756 66.4738 36.8479 62.2506 38.4408ZM68.1011 26.3958C67.7691 26.237 67.4027 26.1637 67.0352 26.1826C66.6677 26.2015 66.3108 26.312 65.9969 26.5039C65.9428 26.4154 65.8838 26.3319 65.8248 26.2483C65.7342 25.8804 65.5209 25.5544 65.2201 25.324C63.9714 24.4194 63.4502 24.5472 63.4502 24.5472C63.4502 24.5472 65.2201 25.4715 65.3823 25.8943C65.6036 26.4794 65.9035 27.502 64.8465 29.026C63.7894 30.5501 61.169 32.1774 58.996 32.8165C56.2576 33.6179 53.8191 33.6179 52.6048 32.4429C51.1889 31.1056 52.2852 28.3918 53.0964 27.8314C51.7985 28.323 50.7956 30.7811 51.0955 31.9611C51.1825 32.3057 51.3511 32.6244 51.5871 32.8903C52.2464 34.3887 53.1954 35.7421 54.3796 36.8725C54.2176 36.8392 54.0532 36.8195 53.888 36.8135C41.6955 41.2972 36.6317 36.548 36.4055 33.372C36.2138 30.8106 38.0279 29.1243 38.0574 29.2276C38.8096 31.9807 42.0642 32.4478 42.0642 32.4478C41.4678 30.6973 41.0832 28.8817 40.9187 27.0398C41.1006 26.3663 42.8852 24.6554 43.3375 24.5817C44.3503 27.9788 48.013 28.2689 48.013 28.2689C48.013 28.2689 45.7613 25.0979 46.7052 22.9445C46.8232 22.6741 50.2401 20.2651 50.2941 20.4864C50.4023 20.9042 50.7612 23.3132 52.3836 24.1589C51.2184 22.4726 50.9431 19.5867 50.9431 19.5867C47.5705 20.0783 45.4909 22.0448 45.4515 22.2317C45.348 24.0141 45.8372 25.7808 46.8429 27.2561C46.0599 26.9617 45.3717 26.4598 44.8521 25.8042C44.3325 25.1486 44.001 24.364 43.8931 23.5345C41.5382 23.6672 39.9256 26.6072 39.9256 26.6072C39.9121 28.2348 40.2756 29.8435 40.9875 31.3072C40.9875 31.3072 39.0947 30.8156 38.3819 27.4774C37.3824 28.14 36.5451 29.0193 35.9323 30.0501C35.3195 31.0808 34.9468 32.2365 34.8421 33.431C34.6061 35.2698 35.3337 36.7348 36.5481 38.0032C38.0574 39.5814 41.8085 43.0916 53.2636 38.0917C54.2469 37.664 54.6254 37.3789 54.6942 37.192C57.2114 39.3995 60.4365 40.3188 63.1012 39.1586C65.7658 37.9983 67.1817 35.1419 67.2653 32.0004C67.8746 31.6193 68.3717 31.0832 68.7058 30.4468C69.5661 28.8441 69.3006 27.0054 68.1109 26.3958" fill="#FFFCEB"/>
<path d="M58.2536 20.3438C61.0805 22.9347 60.3185 26.3466 60.3873 27.5904C61.6852 24.4243 61.6803 22.2267 60.579 20.0783C59.8563 18.6673 58.1209 18.2396 56.9213 17.0351C56.4377 16.5463 56.0879 15.9414 55.9054 15.2785C55.7229 14.6156 55.7138 13.9169 55.879 13.2495C54.7089 14.8031 55.1072 17.4579 58.2536 20.3438Z" fill="#FFFCEB"/>
<path d="M55.5889 24.4785C58.4158 27.0694 57.6538 30.4764 57.7226 31.7202C59.0205 28.5541 59.0156 26.3565 57.9143 24.213C57.1916 22.802 55.6037 22.1678 54.2566 21.1599C52.6145 19.9358 53.2291 17.3203 53.2143 17.3793C52.7227 19.2622 52.4375 21.5926 55.5889 24.4785Z" fill="#FFFCEB"/>
<path d="M18.2198 62.929C21.0614 62.929 24.7388 61.9457 24.7388 58.3716C24.7388 55.7757 22.7723 54.6155 19.6799 54.3648C22.3446 54.0649 23.908 52.5801 23.908 50.6136C23.908 47.7916 21.5432 46.4101 17.5168 46.4101H9.75879V47.4426L10.4372 47.6441C11.3418 47.8949 11.3959 48.2243 11.3959 49.2272V60.107C11.3959 61.0903 11.3418 61.4393 10.4372 61.695L9.75879 61.8966V62.929H18.2198ZM15.4961 47.89H16.6072C18.6967 47.89 20.0044 48.7208 20.0044 50.7857C20.0044 52.6981 19.0212 53.7355 16.9317 53.7355H15.4961V47.89ZM15.4961 55.1907L17.2119 55.2694C19.149 55.3431 20.7124 56.0461 20.7124 58.3666C20.7124 60.6871 18.9474 61.4541 17.0841 61.4541H15.4961V55.1907ZM29.2963 63.1748C31.4398 63.1748 32.7377 62.3194 33.5047 61.11V61.2329C33.5047 62.3685 34.3601 63.1994 36.0218 63.1994C36.6142 63.2335 37.2052 63.1116 37.7357 62.8459C38.2663 62.5802 38.7178 62.1799 39.0454 61.6852L38.6914 60.9625C38.5135 61.1073 38.2915 61.187 38.0621 61.1886C37.5311 61.1886 37.3836 60.9625 37.3836 60.2594V55.3431C37.3836 52.0688 35.7957 50.4809 31.666 50.4809C28.8194 50.4809 26.1744 51.6657 26.1744 53.706C26.1744 54.8662 26.8578 55.5693 28.1409 55.5693C28.383 55.598 28.6285 55.5731 28.8598 55.4961C29.0911 55.4191 29.3026 55.2921 29.4791 55.124C29.6557 54.9559 29.793 54.7509 29.8812 54.5236C29.9694 54.2963 30.0064 54.0524 29.9895 53.8092C30.0036 53.5714 29.9578 53.3339 29.8565 53.1184C29.7552 52.9028 29.6014 52.7161 29.4094 52.5752C29.9625 52.1892 30.6227 51.9863 31.2972 51.9951C32.6836 51.9951 33.4112 52.7227 33.4112 54.0354C33.4112 55.4709 32.659 56.0707 30.0386 56.7C26.666 57.5358 25.7565 58.5928 25.7565 60.2545C25.7565 62.221 27.2708 63.1748 29.3061 63.1748H29.2963ZM31.2726 61.0313C30.3385 61.0313 29.7092 60.6036 29.7092 59.5564C29.7092 58.5092 30.4418 58.0815 31.5234 57.6931C32.2309 57.4946 32.8736 57.1131 33.3867 56.5869V60.2152C32.8004 60.7263 32.0504 61.0106 31.2726 61.0165V61.0313ZM55.0628 61.7884C54.1581 61.5377 54.109 61.2083 54.109 60.2004V54.94C54.109 51.6165 52.167 50.4809 49.9055 50.4809C48.9832 50.477 48.074 50.699 47.2573 51.1275C46.4406 51.556 45.7412 52.1779 45.2203 52.939L45.471 50.4809H44.8958L39.9795 51.5428V52.4965L40.6333 52.6735C41.2626 52.8259 41.415 53.1013 41.415 53.9813V60.2004C41.415 61.1837 41.3609 61.5377 40.4809 61.7884L39.9254 61.9408V62.9241H46.9361V61.9408L46.41 61.7884C45.5251 61.5377 45.4759 61.2083 45.4759 60.2004V53.7551C46.1892 53.2328 47.05 52.9505 47.9341 52.9488C49.4434 52.9488 50.0973 53.5536 50.0973 55.4955V60.2004C50.0973 61.1837 50.0481 61.5377 49.1435 61.7884L48.6125 61.9408V62.9241H55.6134V61.9408L55.0628 61.7884ZM59.276 49.2764C59.6968 49.2581 60.103 49.1168 60.4444 48.87C60.7857 48.6232 61.0471 48.2817 61.1963 47.8878C61.3455 47.4939 61.3759 47.0649 61.2838 46.6539C61.1916 46.2429 60.9809 45.868 60.6779 45.5755C60.3748 45.283 59.9926 45.0859 59.5785 45.0084C59.1645 44.9309 58.7369 44.9766 58.3486 45.1398C57.9602 45.3029 57.6283 45.5763 57.3938 45.9262C57.1593 46.2761 57.0326 46.6871 57.0293 47.1083C57.0212 47.4015 57.0743 47.6932 57.1851 47.9648C57.2959 48.2364 57.462 48.482 57.6729 48.6859C57.8837 48.8898 58.1347 49.0476 58.4099 49.1493C58.685 49.2509 58.9783 49.2942 59.2711 49.2764H59.276ZM55.8297 52.4965L56.4836 52.6735C57.1129 52.8259 57.2653 53.1013 57.2653 53.9813V65.4412C57.2653 66.9161 56.8621 67.3783 56.0559 67.3783C55.9171 67.3946 55.7767 67.3689 55.6527 67.3045C55.7983 67.1714 55.9123 67.0074 55.9863 66.8245C56.0604 66.6416 56.0925 66.4444 56.0804 66.2475C56.0804 65.4167 55.5544 64.8365 54.5465 64.8365C54.3208 64.8196 54.094 64.8516 53.8817 64.9304C53.6695 65.0092 53.4767 65.1328 53.3166 65.2929C53.1565 65.453 53.0329 65.6458 52.9541 65.858C52.8754 66.0703 52.8433 66.2971 52.8602 66.5228C52.8602 67.8551 53.9418 68.7106 56.3361 68.7106C59.5809 68.7106 61.3212 67.1029 61.3212 63.2485V50.4661H60.7657L55.8494 51.528L55.8297 52.4965ZM70.1559 63.1748C74.3348 63.1748 77.2551 60.756 77.2551 56.7836C77.2551 52.8112 74.5363 50.4612 70.1559 50.4612C65.977 50.4612 63.0518 52.8309 63.0518 56.8082C63.0518 60.7855 65.7754 63.1551 70.1559 63.1551V63.1748ZM70.205 61.6802C68.5187 61.6802 67.4077 60.0431 67.4077 56.5427C67.4077 53.47 68.4401 51.9607 70.1018 51.9607C71.7635 51.9607 72.9238 53.5437 72.9238 57.0687C72.9238 60.0923 71.8913 61.6802 70.205 61.6802ZM80.0082 45.2597C79.7282 45.2395 79.4471 45.2785 79.1832 45.3741C78.9193 45.4696 78.6784 45.6197 78.4762 45.8144C78.2741 46.0092 78.1152 46.2443 78.0098 46.5044C77.9044 46.7646 77.855 47.044 77.8647 47.3246C77.8488 47.5702 77.8855 47.8163 77.9722 48.0466C78.059 48.2769 78.1939 48.486 78.3679 48.66C78.542 48.834 78.7511 48.9689 78.9814 49.0557C79.2117 49.1425 79.4578 49.1792 79.7034 49.1633C79.901 49.1647 80.0974 49.1314 80.2835 49.065C80.2098 49.8417 79.5805 51.0315 77.7909 51.8574L78.1941 52.7915C80.8882 51.9852 82.25 49.7926 82.25 47.9784C82.25 46.3462 81.4684 45.2597 80.0082 45.2597ZM86.1979 63.165C89.7229 63.165 91.9647 61.6507 91.9647 59.109C91.9647 56.9458 90.9077 55.8347 87.9087 55.1759C85.721 54.6843 85.0425 54.2468 85.0425 53.3372C85.0425 52.4277 85.8193 51.9558 87.0779 51.9558C88.3365 51.9558 88.8674 52.2802 89.6983 53.4306L90.2538 54.1828H91.3846L91.2076 51.1642C89.8441 50.7133 88.4156 50.4907 86.9796 50.5054C83.8085 50.5054 81.5421 52.0197 81.5421 54.5122C81.5421 56.7 82.7466 57.6587 85.8734 58.4453C87.7612 58.9369 88.4397 59.3499 88.4397 60.284C88.4397 61.2181 87.7613 61.7589 86.2224 61.7589C85.013 61.7589 84.2559 61.4295 83.076 60.0431L82.5204 59.3647H81.3897L81.5667 62.5357C83.0613 63.0209 84.6268 63.2519 86.1979 63.2191" fill="#FFFCEB"/>
<path d="M64.2812 69.6447C64.5476 69.6482 64.8099 69.5779 65.0389 69.4417C65.268 69.3055 65.4549 69.1086 65.5791 68.8728C65.7097 68.6021 65.7801 68.3063 65.7852 68.0058C65.7903 67.7053 65.73 67.4073 65.6086 67.1324C65.5022 66.9098 65.3308 66.7246 65.1169 66.6014C64.8985 66.4771 64.6504 66.4142 64.3991 66.4195C64.2674 66.4188 64.1363 66.4387 64.0108 66.4785C63.899 66.5132 63.7917 66.5611 63.6912 66.6211C63.6751 66.6255 63.6581 66.6255 63.642 66.6211C63.6125 66.6211 63.5978 66.6211 63.5978 66.567V65.0036C63.6008 64.9561 63.5868 64.9091 63.5585 64.8709C63.5458 64.8546 63.5293 64.8416 63.5104 64.833C63.4916 64.8244 63.471 64.8206 63.4503 64.8217C63.4129 64.8222 63.3761 64.8306 63.3421 64.8463L62.7473 65.0823C62.7109 65.093 62.6774 65.1114 62.6489 65.1364C62.6399 65.1685 62.6399 65.2026 62.6489 65.2347V65.2642C62.6392 65.2946 62.6392 65.3272 62.6489 65.3576C62.6806 65.3862 62.7199 65.4049 62.762 65.4117C62.8511 65.4221 62.9341 65.4619 62.998 65.5248C63.0381 65.5858 63.0571 65.6584 63.0521 65.7313V69.4824C63.0506 69.4996 63.0528 69.5169 63.0587 69.5331C63.0646 69.5492 63.074 69.5639 63.0862 69.5761C63.0984 69.5883 63.1131 69.5977 63.1293 69.6036C63.1454 69.6095 63.1627 69.6117 63.1799 69.6102C63.206 69.6098 63.2318 69.6039 63.2555 69.5929C63.2792 69.5819 63.3004 69.566 63.3176 69.5463L63.4454 69.4332C63.4638 69.418 63.4858 69.4079 63.5093 69.4038C63.5344 69.4075 63.5581 69.4177 63.5781 69.4332C63.6715 69.5009 63.7765 69.5509 63.8878 69.5807C64.0149 69.612 64.1454 69.6269 64.2762 69.625L64.2812 69.6447ZM64.1189 69.212C64.0442 69.2113 63.9699 69.2013 63.8977 69.1825C63.8329 69.1628 63.7703 69.1364 63.7109 69.1039C63.6713 69.0749 63.64 69.036 63.6202 68.9911C63.6003 68.9463 63.5926 68.897 63.5978 68.8482V67.2553C63.5851 67.1937 63.5851 67.1301 63.5978 67.0685C63.6259 67.021 63.6646 66.9806 63.7109 66.9505C63.8475 66.8703 64.005 66.8326 64.1632 66.8424C64.3013 66.8378 64.4388 66.8641 64.5655 66.9193C64.6923 66.9746 64.8051 67.0575 64.8957 67.1619C65.0779 67.421 65.1756 67.7301 65.1756 68.0468C65.1756 68.3636 65.0779 68.6727 64.8957 68.9318C64.7924 69.0349 64.6685 69.1149 64.5321 69.1666C64.3956 69.2183 64.2498 69.2405 64.1042 69.2317L64.1189 69.212ZM66.5623 69.4087C66.4667 69.3236 66.3917 69.2178 66.3432 69.0994C66.2946 68.981 66.2737 68.853 66.2821 68.7253C66.2781 68.5798 66.3106 68.4356 66.3767 68.3059C66.4429 68.1762 66.5405 68.0651 66.6607 67.9829C66.972 67.7882 67.3363 67.6954 67.7029 67.7175C67.8552 67.7086 68.0079 67.7086 68.1601 67.7175C68.2044 67.7175 68.229 67.7175 68.229 67.6535V67.3831C68.229 66.9505 68.0274 66.7391 67.6341 66.7391C67.498 66.7386 67.3647 66.7779 67.2506 66.8522C67.1129 66.949 66.9946 67.0708 66.9016 67.2111C66.88 67.2476 66.8496 67.278 66.8131 67.2996C66.7863 67.3156 66.7558 67.3241 66.7246 67.3241C66.6939 67.3256 66.664 67.315 66.641 67.2947C66.6153 67.2704 66.5938 67.2422 66.5771 67.2111L66.4198 66.862C66.4041 66.8298 66.3958 66.7946 66.3952 66.7588C66.3962 66.7274 66.4066 66.6971 66.425 66.6717C66.4434 66.6463 66.469 66.627 66.4984 66.6162C66.6538 66.5381 66.8193 66.4818 66.99 66.449C67.1904 66.4062 67.3948 66.3847 67.5997 66.3851C67.7565 66.3706 67.9147 66.3883 68.0644 66.4374C68.214 66.4864 68.3521 66.5657 68.4699 66.6703C68.6691 66.9072 68.7695 67.2118 68.7501 67.5208V68.9957C68.7501 69.1334 68.8042 69.1973 68.9123 69.1973C68.9506 69.1987 68.9883 69.1884 69.0205 69.1678C69.0554 69.1425 69.0868 69.1127 69.1139 69.0793L69.1729 69.0203C69.1933 69.0022 69.2194 68.9918 69.2466 68.9908C69.2649 68.9899 69.2831 68.993 69.3001 68.9998C69.317 69.0066 69.3323 69.0169 69.345 69.0301C69.3703 69.0621 69.3825 69.1025 69.3794 69.1432C69.3808 69.2068 69.3678 69.2699 69.3414 69.3278C69.315 69.3856 69.2759 69.4368 69.227 69.4775C69.1205 69.5724 68.9811 69.6218 68.8386 69.6152C68.7245 69.6207 68.6113 69.5916 68.5141 69.5316C68.4201 69.4581 68.3444 69.3639 68.2929 69.2563C68.288 69.2457 68.2804 69.2365 68.2709 69.2296C68.2615 69.2227 68.2504 69.2183 68.2388 69.2169C68.2267 69.2172 68.2148 69.22 68.2038 69.2251C68.1928 69.2301 68.183 69.2374 68.1749 69.2464C68.0696 69.3706 67.9365 69.4683 67.7865 69.5316C67.6305 69.5959 67.4636 69.6293 67.2949 69.6299C67.0159 69.6478 66.7399 69.564 66.5181 69.3939L66.5623 69.4087ZM67.8504 69.1088C67.9535 69.0524 68.0451 68.9774 68.1208 68.8875C68.1474 68.8549 68.169 68.8184 68.1847 68.7794C68.1913 68.7321 68.1913 68.6841 68.1847 68.6368V68.1796C68.1861 68.1682 68.1851 68.1567 68.1818 68.1457C68.1785 68.1348 68.173 68.1246 68.1657 68.1158C68.1583 68.107 68.1492 68.0999 68.1389 68.0948C68.1287 68.0897 68.1175 68.0868 68.1061 68.0862C67.9669 68.0585 67.8252 68.0454 67.6833 68.0468C67.0982 68.0468 66.8081 68.2533 66.8081 68.6614C66.8026 68.7353 66.8139 68.8096 66.8412 68.8785C66.8684 68.9475 66.9109 69.0094 66.9655 69.0596C67.0938 69.1603 67.2551 69.2094 67.4178 69.1973C67.5606 69.2015 67.7022 69.1712 67.8307 69.1088H67.8504ZM69.699 69.566H70.7904C70.8113 69.5671 70.8322 69.5637 70.8517 69.556C70.8712 69.5484 70.8888 69.5367 70.9034 69.5217C70.9293 69.4898 70.9432 69.4498 70.9428 69.4087V69.3693C70.945 69.3326 70.9346 69.2962 70.9133 69.2661C70.9014 69.2509 70.8866 69.2383 70.8697 69.229C70.8528 69.2197 70.8341 69.2139 70.815 69.212L70.6822 69.1727C70.6296 69.1612 70.5826 69.1316 70.5495 69.0891C70.5239 69.0408 70.512 68.9864 70.5151 68.9318V68.5139C70.5154 68.4954 70.5196 68.4771 70.5272 68.4602C70.5348 68.4433 70.5457 68.4281 70.5593 68.4156L70.9379 68.0665C70.9553 68.0601 70.9745 68.0601 70.9919 68.0665C71.005 68.0675 71.0174 68.0722 71.0279 68.0801C71.0383 68.0879 71.0463 68.0985 71.0509 68.1108L71.9654 69.4775C71.9897 69.5118 72.0196 69.5417 72.0539 69.566C72.0892 69.5827 72.1279 69.5911 72.1669 69.5906H72.6881C72.7089 69.5911 72.7296 69.5874 72.7491 69.5798C72.7685 69.5722 72.7862 69.5608 72.8012 69.5463C72.8164 69.5319 72.8283 69.5143 72.8359 69.4947C72.8436 69.4752 72.8468 69.4542 72.8454 69.4332V69.3939C72.8442 69.3547 72.83 69.3171 72.8051 69.2868C72.7802 69.2566 72.746 69.2355 72.7077 69.2268L72.5553 69.1825C72.4845 69.1629 72.419 69.1276 72.3636 69.0793C72.2895 68.9928 72.2221 68.9007 72.162 68.804L71.4492 67.7371C71.435 67.7217 71.4271 67.7015 71.4271 67.6806C71.4271 67.6596 71.435 67.6395 71.4492 67.624L71.8375 67.275C71.9555 67.1767 72.0539 67.0931 72.1424 67.0292C72.2241 66.9665 72.3178 66.9214 72.4177 66.8964L72.6291 66.8276C72.6629 66.8211 72.6929 66.8017 72.7127 66.7735C72.7222 66.7414 72.7222 66.7073 72.7127 66.6752V66.6309C72.7132 66.5913 72.6992 66.5528 72.6733 66.5228C72.6574 66.5086 72.6387 66.4977 72.6184 66.491C72.5981 66.4842 72.5766 66.4816 72.5553 66.4835H71.4541C71.4335 66.482 71.4129 66.4848 71.3935 66.4916C71.3741 66.4983 71.3562 66.5089 71.341 66.5228C71.3264 66.5367 71.3149 66.5535 71.3073 66.5721C71.2997 66.5908 71.2961 66.6108 71.2968 66.6309V66.6752C71.2957 66.7039 71.3043 66.7321 71.3213 66.7553C71.3382 66.7785 71.3625 66.7953 71.3902 66.803L71.5377 66.862C71.5542 66.8644 71.5692 66.8727 71.5801 66.8853C71.5909 66.898 71.5968 66.9142 71.5967 66.9308C71.5923 66.9578 71.5783 66.9822 71.5573 66.9997L70.5741 67.8699C70.5675 67.8777 70.5592 67.884 70.5498 67.8883C70.5404 67.8925 70.5303 67.8946 70.52 67.8944C70.5073 67.8994 70.4933 67.8994 70.4806 67.8944C70.475 67.8769 70.475 67.8579 70.4806 67.8404V65.0479C70.4836 65.0004 70.4697 64.9534 70.4413 64.9151C70.4289 64.8985 70.4125 64.8852 70.3936 64.8766C70.3747 64.868 70.3539 64.8644 70.3332 64.866C70.2958 64.8665 70.2589 64.8748 70.225 64.8906L69.635 65.1265C69.5982 65.136 69.5644 65.1546 69.5367 65.1806C69.5154 65.2088 69.505 65.2437 69.5072 65.279V65.3085C69.5055 65.3252 69.5072 65.3422 69.5123 65.3582C69.5173 65.3743 69.5257 65.3891 69.5367 65.4019C69.5664 65.4305 69.6041 65.4494 69.6449 65.4559C69.7345 65.4677 69.8177 65.5093 69.8809 65.5739C69.9224 65.638 69.9414 65.7141 69.9349 65.7903V68.9711C69.9394 69.0258 69.9274 69.0806 69.9005 69.1284C69.8674 69.1709 69.8204 69.2005 69.7678 69.212L69.6399 69.2513C69.6026 69.2573 69.5687 69.2764 69.5443 69.3053C69.5199 69.3342 69.5068 69.3709 69.5072 69.4087V69.448C69.5058 69.4689 69.509 69.4899 69.5167 69.5095C69.5243 69.529 69.5362 69.5467 69.5515 69.5611C69.5664 69.5756 69.5841 69.587 69.6036 69.5946C69.623 69.6021 69.6437 69.6058 69.6645 69.6053L69.699 69.566ZM75.9771 68.8285C75.9726 68.878 75.9593 68.9263 75.9378 68.9711C75.8485 69.1778 75.6951 69.3502 75.5002 69.4627C75.2543 69.6002 74.9756 69.6682 74.6939 69.6594C74.4162 69.6642 74.1424 69.5928 73.9024 69.4529C73.668 69.3218 73.4767 69.1254 73.3518 68.8875C73.2145 68.6271 73.1452 68.3363 73.1502 68.0419C73.1444 67.7471 73.2102 67.4552 73.3419 67.1914C73.4565 66.9567 73.6359 66.7597 73.859 66.6237C74.0821 66.4878 74.3394 66.4187 74.6005 66.4245C74.892 66.4161 75.1777 66.5062 75.4117 66.6801C75.6401 66.8582 75.7956 67.1134 75.8493 67.3979C75.8522 67.4174 75.8522 67.4373 75.8493 67.4569C75.85 67.4914 75.8385 67.525 75.817 67.552C75.7954 67.5789 75.7651 67.5975 75.7313 67.6044L73.8532 68.2976C73.8344 68.3062 73.8194 68.3216 73.8112 68.3407C73.803 68.3597 73.8022 68.3812 73.809 68.4008C73.8787 68.612 74.0107 68.7971 74.1876 68.9318C74.37 69.0688 74.5936 69.1399 74.8218 69.1334C74.9904 69.1368 75.1578 69.105 75.3134 69.0399C75.4411 68.9827 75.555 68.8989 75.6477 68.7941C75.6909 68.7411 75.7522 68.7061 75.8198 68.6958C75.8494 68.6957 75.8785 68.7042 75.9034 68.7204C75.9232 68.733 75.9395 68.7504 75.9507 68.7711C75.9618 68.7917 75.9676 68.8149 75.9673 68.8384L75.9771 68.8285ZM73.9368 67.098C73.7629 67.2915 73.6727 67.5461 73.6861 67.8059C73.6835 67.8321 73.6835 67.8585 73.6861 67.8846C73.6861 67.9289 73.7205 67.9387 73.7697 67.9141L75.1315 67.3979C75.1649 67.3927 75.1958 67.3772 75.22 67.3536C75.2274 67.3419 75.2313 67.3282 75.2313 67.3143C75.2313 67.3004 75.2274 67.2868 75.22 67.275C75.1762 67.1413 75.0899 67.0256 74.9742 66.9456C74.8588 66.8701 74.7236 66.8308 74.5858 66.8325C74.4672 66.8283 74.349 66.8498 74.2395 66.8957C74.1301 66.9415 74.0318 67.0105 73.9516 67.098H73.9368ZM76.4343 69.5955H77.5995C77.6196 69.5962 77.6397 69.5926 77.6583 69.585C77.6769 69.5773 77.6938 69.5658 77.7076 69.5512C77.7219 69.5373 77.7328 69.5204 77.7396 69.5017C77.7464 69.4829 77.749 69.4629 77.747 69.4431V69.3988C77.747 69.3054 77.7076 69.2513 77.6241 69.2415L77.4274 69.2022C77.4008 69.1978 77.3754 69.1882 77.3526 69.1738C77.3298 69.1595 77.3101 69.1407 77.2947 69.1186C77.2661 69.0713 77.2524 69.0165 77.2553 68.9613V67.452C77.2553 67.1668 77.3832 67.0243 77.6437 67.0243C77.7741 67.0308 77.8994 67.0771 78.0026 67.157L78.0567 67.1865L78.1255 67.2209C78.1532 67.2256 78.1814 67.2256 78.2091 67.2209C78.2282 67.2229 78.2475 67.2203 78.2654 67.2135C78.2833 67.2067 78.2994 67.1957 78.3124 67.1816C78.3281 67.1654 78.3402 67.1461 78.3478 67.1249C78.3555 67.1037 78.3585 67.0811 78.3566 67.0587V66.6309C78.3611 66.5741 78.3435 66.5178 78.3074 66.4736C78.2873 66.4543 78.2633 66.4395 78.237 66.4302C78.2108 66.4209 78.1828 66.4172 78.155 66.4195C78.0121 66.4239 77.8716 66.4574 77.7421 66.5179C77.5996 66.5821 77.4671 66.6665 77.3488 66.7686C77.3306 66.7871 77.3059 66.7977 77.2799 66.7981C77.2673 66.803 77.2532 66.803 77.2406 66.7981C77.2364 66.7837 77.2364 66.7683 77.2406 66.7539V66.6014C77.2406 66.4835 77.1914 66.4245 77.0931 66.4245C77.0606 66.418 77.0272 66.418 76.9948 66.4245L76.4294 66.6457C76.3409 66.6752 76.2967 66.7244 76.2967 66.7932V66.862C76.2952 66.8799 76.2975 66.8979 76.3034 66.9148C76.3093 66.9318 76.3188 66.9473 76.3311 66.9603C76.3594 66.9881 76.3953 67.007 76.4343 67.0144C76.5212 67.0287 76.6027 67.066 76.6703 67.1226C76.7143 67.1839 76.7352 67.2588 76.7293 67.334V68.9711C76.733 69.0279 76.7193 69.0845 76.69 69.1334C76.6566 69.1747 76.6095 69.2026 76.5572 69.212L76.4294 69.2513C76.3921 69.2573 76.3581 69.2764 76.3337 69.3053C76.3094 69.3342 76.2962 69.3709 76.2967 69.4087V69.4529C76.2967 69.4933 76.3127 69.5321 76.3413 69.5607C76.3699 69.5893 76.4086 69.6053 76.4491 69.6053L76.4343 69.5955ZM79.3104 70.9622H79.6447C79.6814 70.9644 79.7179 70.954 79.7479 70.9327C79.7769 70.9085 79.8004 70.8783 79.8168 70.8442L80.3969 69.4382L81.3015 67.2799C81.3369 67.185 81.3797 67.0929 81.4293 67.0046C81.4643 66.9541 81.5117 66.9135 81.567 66.8866L81.6751 66.8374C81.7051 66.8212 81.7317 66.7995 81.7538 66.7735C81.7621 66.7463 81.7621 66.7172 81.7538 66.6899V66.6457C81.7538 66.5474 81.7046 66.4982 81.6014 66.4982H80.7656C80.7451 66.4965 80.7244 66.4991 80.7049 66.5059C80.6854 66.5127 80.6676 66.5234 80.6525 66.5375C80.6388 66.5518 80.6282 66.5688 80.6215 66.5875C80.6147 66.6061 80.6119 66.6259 80.6132 66.6457V66.6899C80.61 66.7196 80.6177 66.7495 80.6349 66.7739C80.6521 66.7984 80.6776 66.8157 80.7066 66.8227L80.8639 66.8817C80.8843 66.8872 80.9021 66.8994 80.9146 66.9164C80.9271 66.9334 80.9335 66.954 80.9328 66.9751C80.9363 66.9979 80.9363 67.0211 80.9328 67.0439L80.2494 68.7696C80.2494 68.7696 80.2494 68.804 80.2101 68.804C80.1707 68.804 80.1806 68.804 80.1707 68.7696L79.4087 66.6162C79.3967 66.5795 79.3727 66.548 79.3406 66.5266C79.3085 66.5052 79.2702 66.4952 79.2317 66.4982H78.7401C78.7197 66.4961 78.6992 66.4983 78.6798 66.5049C78.6604 66.5114 78.6426 66.522 78.6277 66.536C78.6128 66.55 78.601 66.567 78.5933 66.5859C78.5855 66.6049 78.5819 66.6253 78.5828 66.6457V66.6899C78.5706 66.7216 78.5706 66.7566 78.5828 66.7883C78.6047 66.8195 78.6356 66.8435 78.6712 66.8571L78.7745 66.9013C78.8322 66.9217 78.881 66.9617 78.9121 67.0144C78.9632 67.1003 79.006 67.1909 79.04 67.2848L79.7922 69.2808C79.8232 69.3525 79.8415 69.4291 79.8463 69.507C79.8408 69.614 79.8069 69.7175 79.7479 69.8069L79.1924 70.7902C79.188 70.8145 79.188 70.8395 79.1924 70.8639C79.1928 70.8779 79.1961 70.8916 79.202 70.9043C79.2079 70.917 79.2164 70.9283 79.2268 70.9376C79.2535 70.9582 79.2866 70.9687 79.3202 70.9671L79.3104 70.9622ZM83.5974 69.4923C83.3634 69.3622 83.1734 69.1654 83.0517 68.9269C82.9188 68.6652 82.853 68.3746 82.86 68.0813C82.8527 67.7905 82.9151 67.5023 83.0419 67.2406C83.1526 67.0045 83.3296 66.8058 83.5514 66.6688C83.7731 66.5317 84.03 66.4622 84.2906 66.4687C84.3829 66.4725 84.4749 66.4823 84.5659 66.4982C84.6272 66.5137 84.6897 66.5236 84.7527 66.5277C84.8114 66.5282 84.8697 66.5182 84.9248 66.4982C84.9609 66.4831 84.999 66.4732 85.0379 66.4687C85.0667 66.4596 85.0976 66.4596 85.1264 66.4687C85.1507 66.4959 85.1721 66.5255 85.1903 66.5572L85.5 67.2406C85.5046 67.2699 85.5046 67.2997 85.5 67.3291C85.5015 67.3546 85.4946 67.3799 85.4804 67.4012C85.4662 67.4225 85.4455 67.4386 85.4214 67.4471C85.3954 67.4607 85.367 67.4691 85.3378 67.4716C85.3114 67.4707 85.2856 67.4635 85.2626 67.4507C85.2395 67.4379 85.2198 67.4198 85.205 67.3979C85.0616 67.2263 84.8963 67.0743 84.7134 66.9456C84.5834 66.8563 84.4287 66.8099 84.2709 66.8128C84.11 66.8122 83.9522 66.8582 83.8169 66.9455C83.6817 67.0328 83.5746 67.1575 83.5089 67.3045C83.4253 67.4758 83.3832 67.6645 83.386 67.8551C83.3827 68.0843 83.4314 68.3112 83.5286 68.5188C83.6189 68.7064 83.7582 68.866 83.9317 68.9809C84.1136 69.0919 84.3235 69.1482 84.5364 69.1432C84.6764 69.1473 84.8161 69.1273 84.9494 69.0842C85.0606 69.0451 85.1615 68.9812 85.2444 68.8974C85.2897 68.8479 85.3503 68.815 85.4165 68.804C85.4407 68.7981 85.466 68.7981 85.4902 68.804C85.5113 68.8143 85.5289 68.8304 85.5411 68.8504C85.5533 68.8705 85.5595 68.8936 85.559 68.917C85.5579 68.9731 85.5409 69.0277 85.5099 69.0744C85.4137 69.2548 85.262 69.3996 85.0772 69.4873C84.8688 69.5935 84.6376 69.6475 84.4037 69.6447C84.1148 69.6513 83.8295 69.58 83.5777 69.4382L83.5974 69.4923ZM86.9454 69.6447C87.1141 69.6434 87.2809 69.61 87.4371 69.5463C87.5849 69.4817 87.716 69.3841 87.8205 69.2612C87.8286 69.2522 87.8384 69.2449 87.8494 69.2398C87.8604 69.2347 87.8723 69.232 87.8844 69.2317C87.8961 69.2331 87.9071 69.2375 87.9166 69.2443C87.926 69.2512 87.9336 69.2604 87.9385 69.271C87.99 69.3786 88.0657 69.4729 88.1598 69.5463C88.2572 69.6058 88.3702 69.6349 88.4842 69.6299C88.6267 69.6365 88.7661 69.5871 88.8726 69.4923C88.9215 69.4516 88.9607 69.4004 88.987 69.3425C89.0134 69.2846 89.0264 69.2215 89.025 69.1579C89.0282 69.1173 89.0159 69.0769 88.9906 69.0449C88.9782 69.0314 88.9629 69.0209 88.9459 69.0141C88.9289 69.0073 88.9106 69.0043 88.8923 69.0055C88.8664 69.0059 88.8416 69.0165 88.8235 69.035C88.7999 69.0521 88.7784 69.0719 88.7595 69.094C88.7335 69.1285 88.702 69.1584 88.6661 69.1825C88.634 69.2032 88.5962 69.2135 88.558 69.212C88.4498 69.212 88.3957 69.1481 88.3957 69.0104V67.5355C88.4151 67.2266 88.3148 66.922 88.1155 66.685C87.9977 66.5805 87.8597 66.5012 87.71 66.4521C87.5603 66.4031 87.4022 66.3853 87.2453 66.3999C87.0404 66.3995 86.8361 66.4209 86.6357 66.4638C86.4649 66.4966 86.2995 66.5528 86.1441 66.6309C86.1146 66.6417 86.089 66.661 86.0706 66.6864C86.0522 66.7118 86.0419 66.7422 86.0408 66.7735C86.0414 66.8093 86.0498 66.8445 86.0654 66.8768L86.2227 67.2258C86.2394 67.2569 86.261 67.2851 86.2866 67.3094C86.3099 67.3293 86.3397 67.3398 86.3702 67.3389C86.4029 67.3384 86.4349 67.33 86.4636 67.3143C86.4974 67.2911 86.5259 67.2609 86.5472 67.2258C86.6402 67.0855 86.7586 66.9638 86.8963 66.8669C87.0107 66.7934 87.1437 66.7542 87.2797 66.7539C87.678 66.7539 87.8746 66.9653 87.8746 67.3979V67.6683C87.8746 67.7125 87.85 67.7322 87.8058 67.7322C87.6535 67.7232 87.5008 67.7232 87.3486 67.7322C86.982 67.7108 86.6179 67.8035 86.3063 67.9977C86.1861 68.0799 86.0885 68.1909 86.0224 68.3206C85.9563 68.4503 85.9237 68.5945 85.9277 68.7401C85.9194 68.8678 85.9402 68.9957 85.9888 69.1142C86.0374 69.2326 86.1123 69.3384 86.208 69.4234C86.4298 69.5935 86.7058 69.6773 86.9848 69.6594L86.9454 69.6447ZM87.1273 69.2268C86.9647 69.2389 86.8034 69.1898 86.675 69.0891C86.6205 69.0389 86.578 68.977 86.5507 68.908C86.5235 68.8391 86.5122 68.7648 86.5177 68.6909C86.5177 68.2828 86.8078 68.0763 87.3928 68.0763C87.5347 68.0749 87.6764 68.088 87.8156 68.1157C87.8273 68.1155 87.8389 68.1179 87.8496 68.1227C87.8602 68.1276 87.8696 68.1347 87.8772 68.1437C87.8847 68.1526 87.8902 68.1631 87.8931 68.1744C87.8961 68.1858 87.8965 68.1976 87.8943 68.2091V68.6663C87.9032 68.7134 87.9032 68.7618 87.8943 68.8089C87.8785 68.8479 87.857 68.8844 87.8304 68.917C87.7547 69.0069 87.663 69.0819 87.56 69.1383C87.4315 69.2007 87.2898 69.231 87.147 69.2268H87.1273ZM89.3938 69.5512C89.3795 69.5373 89.3686 69.5204 89.3618 69.5017C89.355 69.4829 89.3524 69.4629 89.3544 69.4431V69.3988C89.354 69.361 89.3671 69.3243 89.3915 69.2955C89.4159 69.2666 89.4498 69.2474 89.4872 69.2415L89.6199 69.2022C89.6688 69.1883 89.7119 69.159 89.7428 69.1186C89.7749 69.0728 89.7889 69.0168 89.7821 68.9613V66.9702C89.7854 66.9624 89.7871 66.954 89.7871 66.9456C89.7871 66.9372 89.7854 66.9288 89.7821 66.921C89.768 66.9061 89.7486 66.8972 89.7281 66.8964H89.497C89.4768 66.8974 89.4567 66.894 89.438 66.8863C89.4193 66.8787 89.4025 66.867 89.3888 66.8522C89.375 66.837 89.3644 66.8191 89.3576 66.7997C89.3508 66.7802 89.3481 66.7596 89.3495 66.7391V66.6949C89.3488 66.6569 89.3598 66.6196 89.3809 66.5879C89.4019 66.5563 89.4322 66.5319 89.4675 66.5179L89.5363 66.4884C89.5767 66.4666 89.6119 66.4364 89.6396 66.3999C89.664 66.3613 89.6792 66.3175 89.6838 66.2721L89.7182 65.8837C89.7343 65.5877 89.8669 65.3102 90.087 65.1118C90.3084 64.9356 90.5859 64.8449 90.8687 64.8561C91.0855 64.8436 91.3024 64.8806 91.5029 64.9643C91.5717 64.9987 91.611 65.0381 91.611 65.0921C91.6049 65.1243 91.595 65.1557 91.5815 65.1855L91.4488 65.5149C91.4422 65.5427 91.4265 65.5674 91.4043 65.5853C91.382 65.6031 91.3544 65.6129 91.3259 65.6133C91.2626 65.6075 91.2035 65.5796 91.1587 65.5346C91.0131 65.3856 90.8202 65.2917 90.613 65.2691C90.5538 65.2666 90.4948 65.2782 90.4409 65.303C90.3871 65.3278 90.3399 65.3651 90.3033 65.4117C90.2178 65.5188 90.1741 65.6533 90.1804 65.7903C90.1804 66.2524 90.4311 66.4884 90.9277 66.4884H90.9522C90.9721 66.4864 90.9921 66.4889 91.0108 66.4957C91.0295 66.5025 91.0465 66.5135 91.0604 66.5277C91.0741 66.542 91.0847 66.559 91.0915 66.5776C91.0982 66.5963 91.101 66.6161 91.0997 66.6359V66.744C91.1014 66.7646 91.0988 66.7853 91.0921 66.8047C91.0853 66.8242 91.0745 66.842 91.0604 66.8571C91.0309 66.8838 90.992 66.898 90.9522 66.8964H90.3426C90.3221 66.8972 90.3026 66.9061 90.2885 66.921C90.2846 66.9286 90.2826 66.937 90.2826 66.9456C90.2826 66.9541 90.2846 66.9626 90.2885 66.9702V68.9613C90.2841 69.016 90.296 69.0708 90.3229 69.1186C90.3384 69.1407 90.3581 69.1595 90.3808 69.1738C90.4037 69.1882 90.4291 69.1978 90.4557 69.2022L90.6523 69.2415C90.6714 69.2427 90.6899 69.2478 90.7069 69.2565C90.7238 69.2652 90.7388 69.2773 90.7508 69.2921C90.7628 69.3069 90.7716 69.324 90.7767 69.3424C90.7817 69.3608 90.7829 69.38 90.7802 69.3988V69.4431C90.7802 69.4835 90.7641 69.5223 90.7355 69.5509C90.7069 69.5794 90.6682 69.5955 90.6278 69.5955H89.4675C89.4466 69.5966 89.4257 69.5932 89.4062 69.5855C89.3867 69.5779 89.3691 69.5662 89.3544 69.5512H89.3938ZM94.2068 68.7204C94.1842 68.7034 94.1565 68.6947 94.1282 68.6958C94.0606 68.7061 93.9993 68.7411 93.9561 68.7941C93.8629 68.9004 93.7469 68.9844 93.6169 69.0399C93.4616 69.1059 93.2939 69.1377 93.1252 69.1334C92.8973 69.1384 92.6742 69.0675 92.491 68.9318C92.3157 68.7966 92.1855 68.6115 92.1174 68.4008C92.1126 68.3913 92.11 68.3808 92.1097 68.3701C92.1094 68.3594 92.1115 68.3488 92.1157 68.339C92.1199 68.3292 92.1262 68.3204 92.1341 68.3132C92.142 68.3061 92.1514 68.3007 92.1617 68.2976L94.0348 67.6044C94.0695 67.5985 94.101 67.5804 94.1235 67.5534C94.1461 67.5263 94.1582 67.4921 94.1577 67.4569C94.1577 67.4323 94.1577 67.4126 94.1577 67.3979C94.1041 67.1121 93.9464 66.8564 93.7152 66.6801C93.4816 66.5055 93.1956 66.4154 92.904 66.4245C92.6463 66.4206 92.3926 66.4887 92.1715 66.6211C91.9464 66.7569 91.7654 66.955 91.6504 67.1914C91.5186 67.4552 91.4528 67.7471 91.4586 68.0419C91.4519 68.3359 91.5195 68.6267 91.6553 68.8875C91.7815 69.1244 91.9725 69.3205 92.2059 69.4529C92.4513 69.5855 92.7259 69.6548 93.0048 69.6548C93.2837 69.6548 93.5583 69.5855 93.8037 69.4529C94 69.3406 94.1551 69.1683 94.2462 68.9613C94.2666 68.9164 94.2783 68.868 94.2806 68.8187C94.2819 68.7951 94.2766 68.7715 94.2654 68.7507C94.2541 68.7298 94.2372 68.7125 94.2167 68.7007L94.2068 68.7204ZM92.8843 66.8128C93.0237 66.811 93.1605 66.8503 93.2777 66.9259C93.3934 67.0059 93.4797 67.1216 93.5235 67.2553C93.5309 67.2671 93.5348 67.2807 93.5348 67.2947C93.5348 67.3086 93.5309 67.3222 93.5235 67.334C93.5047 67.3544 93.481 67.3696 93.4546 67.3782L92.0879 67.8944C92.0437 67.8944 92.0142 67.8944 92.0092 67.8649C92.0065 67.8388 92.0065 67.8124 92.0092 67.7863C91.9959 67.5264 92.086 67.2718 92.26 67.0783C92.3408 66.9916 92.4392 66.9231 92.5485 66.8774C92.6579 66.8316 92.7757 66.8096 92.8942 66.8128" fill="#FFFCEB"/>
</svg>
