<svg xmlns="http://www.w3.org/2000/svg" width="701.605" height="789.23" viewBox="0 0 701.605 789.23">
  <g id="Group_2466" data-name="Group 2466" opacity="0.05">
    <g id="Group_1147" data-name="Group 1147" transform="translate(644.235 111.283) rotate(103)">
      <rect id="Rectangle_438" data-name="Rectangle 438" width="81.811" height="81.953" transform="translate(0 0)" opacity="0"/>
      <path id="Union_8" data-name="Union 8" d="M18,77.2l-.409-.226a25.415,25.415,0,0,1-12.8-21.313l23.824-.935-.343,16.384a7.138,7.138,0,0,1-7.017,6.834l-.146,0A6.862,6.862,0,0,1,18,77.2ZM6.754,25.718a.087.087,0,0,1,.05,0l26.724,20.4h.025a3.26,3.26,0,0,1,.753,2.173,3.716,3.716,0,0,1-3.658,3.551h-.121L0,52.462S.187,27.478,6.754,25.718Zm27.28,19.658h.035Zm1.369-.488L7.38,22.555a15.558,15.558,0,0,1,2.955-6.417c3.031-4.023,12.3-11.506,18.894-11.305L47.295,35.006l.2.015c-1.516,2.318-5.7,7.835-11.988,9.942ZM49.017,33.055,32.852,4.6S32.432-.961,56.565.146l-.662,31.4a3.548,3.548,0,0,1-.389,1.509,3.771,3.771,0,0,1-3.269,2.011l-.118,0A3.405,3.405,0,0,1,49.017,33.055ZM59.8,6.532A26,26,0,0,1,81.233,23.349a.757.757,0,0,1,.045.136c.05.121.1.247.136.372a.5.5,0,0,0,.03.08,6.581,6.581,0,0,1,.293,2,7.138,7.138,0,0,1-7.022,6.829l-16.63.342ZM7.209,24.928a1.337,1.337,0,0,1,0-.181l.05.181A.188.188,0,0,0,7.209,24.928Z" transform="translate(0.215 2.002)"/>
    </g>
    <g id="Group_1153" data-name="Group 1153" transform="translate(68.886 554.106)">
      <rect id="Rectangle_442" data-name="Rectangle 442" width="100.746" height="100.058" transform="translate(0 0.443)" opacity="0"/>
      <path id="Union_5" data-name="Union 5" d="M50.78,100.747h0Zm0,0,4.483-32.768H70.222l-9.439,32.768Zm-1.478,0h0Zm-21.15,0h-.017L23.651,67.979H52.317l-4.49,32.768Zm-12.977,0L5.734,67.979H20.7l4.49,32.768ZM8.424,64.264a8.459,8.459,0,0,1,0-16.918H67.58a8.459,8.459,0,0,1-.024,16.918Zm8.4-20.638a8.459,8.459,0,0,1,0-16.918h42.31a8.459,8.459,0,0,1,0,16.918ZM35.647,25.578a8.494,8.494,0,0,1,.9-16.467A9.916,9.916,0,0,1,46.419,0V2.935a6.981,6.981,0,0,0-6.93,6.154,8.488,8.488,0,0,1-1.4,16.854A8.409,8.409,0,0,1,35.647,25.578Z" transform="translate(12.377 0)"/>
    </g>
    <g id="Group_1154" data-name="Group 1154" transform="translate(315.49 669.883)">
      <rect id="Rectangle_443" data-name="Rectangle 443" width="88.643" height="88.574" transform="translate(0 0)" opacity="0"/>
      <path id="Union_6" data-name="Union 6" d="M9.959,88.187,8.706,64.918H19.549a14.245,14.245,0,0,0,23.439,0H53.827L52.563,88.187ZM28.085,64.918a8.776,8.776,0,1,1,3.184.6A8.765,8.765,0,0,1,28.085,64.918ZM43,48.615a14.24,14.24,0,0,0-23.471,0H7.853L6.876,30.581H55.688l-.976,18.034ZM0,26.361V12.129H62.543V26.361ZM5.18,10.748V0L57.363,3.138v7.61Z" transform="translate(13.209 0.455)"/>
    </g>
    <g id="Group_1335" data-name="Group 1335" transform="translate(31.633 102.846) rotate(-49)">
      <rect id="Rectangle_1129" data-name="Rectangle 1129" width="97.356" height="97.356" transform="translate(0.08 0)" opacity="0"/>
      <path id="Path_3094" data-name="Path 3094" d="M90.781,61.151V59.363h3.964a3.591,3.591,0,0,0,2.7-5.97L90.781,45.76V19.535H67.913L65.83,17.156l-3.855-4.431L57.311,7.44,51.839,1.222a3.622,3.622,0,0,0-5.425,0l-3.28,3.762a1.106,1.106,0,0,0-.218-.155,14.24,14.24,0,0,0-20.909,7.9H21.2A14.193,14.193,0,0,0,12.8,38.376,13.634,13.634,0,0,0,12,40.692L.9,53.409a3.607,3.607,0,0,0,2.721,5.97h5.5L.9,68.8a3.607,3.607,0,0,0,2.721,5.985H94.745a3.607,3.607,0,0,0,2.7-5.985ZM15.711,36.6a1.833,1.833,0,0,0-.342-.218,11.1,11.1,0,0,1,5.8-20.567,9.639,9.639,0,0,1,1.71.14l1.477.249.311-1.555A11.115,11.115,0,0,1,41.314,7.5a9.16,9.16,0,0,1,.855.575,7.772,7.772,0,0,1,.777.653l.389.389h0l.4.42.124.155a6.22,6.22,0,0,1,.544.684l.979,1.306,1.2-.715a10.765,10.765,0,0,1,13.385,1.8l.762.855a10.882,10.882,0,0,1,2.285,5.783h-6.5l-3.5-3.918a5.177,5.177,0,0,0-5.441-1.555,5.348,5.348,0,0,0-2.332,1.555l-4.353,4.975A10.136,10.136,0,0,0,27.774,35.7l-.2.233-.855.979L15.835,49.351A10.882,10.882,0,0,1,14.607,44.3a11.084,11.084,0,0,1,1.555-5.55l.684-1.2ZM32.3,53.113v2.938H25.909V53.113ZM21.1,63.078H14.7V60.14h6.4Zm15,3.949h-10.2V64.089h10.2ZM87.672,55.212,59.238,22.644H87.672Z" transform="translate(0 9.848)"/>
    </g>
    <g id="Group_1150" data-name="Group 1150" transform="translate(574.957 595.562)">
      <rect id="Rectangle_441" data-name="Rectangle 441" width="93.385" height="93.51" transform="translate(0)" opacity="0"/>
      <g id="Group_1133" data-name="Group 1133" transform="translate(0.493 14.946)">
        <path id="Path_197" data-name="Path 197" d="M312.1,99.746a10.4,10.4,0,0,1-5.591,9.3,5.878,5.878,0,0,1-.579.259,9.23,9.23,0,0,1-2.317.669,3.479,3.479,0,0,1-.348.054,9.154,9.154,0,0,1-1.159.072h-.359l-.487-.036a8.6,8.6,0,0,1-6.876-5.152l-.1-.241h0a11.428,11.428,0,0,0-9.7-7.069h-1.524l-.394.036-.29.036a4.772,4.772,0,0,0-.51.1,1.236,1.236,0,0,0-.214.048l-.151.036a11.372,11.372,0,0,0-7.78,6.177l-.267.6-.087.2-.081.193A8.6,8.6,0,0,1,266.811,110l-.423.048a.25.25,0,0,1-.093,0h-.811a.366.366,0,0,1-.116,0H265a8.523,8.523,0,0,1-7.027-4.905l-.122-.277c-.046-.127-.1-.247-.156-.38h0a11.448,11.448,0,0,0-9.64-6.924h-1.535a2.981,2.981,0,0,0-.406.042,2.238,2.238,0,0,0-.29.036,11.5,11.5,0,0,0-8.8,6.713c-.081.181-.162.368-.238.566l-.035.1a8.78,8.78,0,0,1-3.036,3.616,8.248,8.248,0,0,1-3.29,1.32l-.516.066a3.345,3.345,0,0,1-.353,0H228.45l-.406-.036a9.373,9.373,0,0,1-2.8-.729c-.208-.084-.411-.181-.608-.283a10.485,10.485,0,0,1-5.31-11.523,10.06,10.06,0,0,1,9.493-8.11A41.613,41.613,0,0,1,249.93,68.947V81.108h2.9V67.9a39.7,39.7,0,0,1,11.3-2.055v18.3h2.9V65.85a39.618,39.618,0,0,1,11.32,2.061v13.2h2.9V69.014A41.661,41.661,0,0,1,302.34,89.4,10.168,10.168,0,0,1,312.1,99.746Z" transform="translate(-219.085 -65.85)"/>
        <path id="Path_198" data-name="Path 198" d="M308.388,136.014l-.876,16.511H237.956l-.876-16.505a11.216,11.216,0,0,0,9.734-6.779l.1-.235a4.368,4.368,0,0,0,.172-.44h0a8.214,8.214,0,0,1,15.225.115l.034.072.126.331a11.046,11.046,0,0,0,20.447.187,1.514,1.514,0,0,0,.1-.241q.131-.28.235-.573a8.219,8.219,0,0,1,15.213.35l.052.12a1.241,1.241,0,0,0,.069.157A11.324,11.324,0,0,0,308.388,136.014Z" transform="translate(-226.236 -88.757)"/>
      </g>
    </g>
    <path id="Path_3095" data-name="Path 3095" d="M52.752,2.411C47.4-2.829,35.06.769,23.089,10.329A77.133,77.133,0,0,0,16,16.774c-1.544,1.589-3,3.2-4.338,4.838a67.431,67.431,0,0,0-5.2,7.141c-.678,1.053-1.294,2.116-1.866,3.16s-1.027,2-1.491,2.964h0A31.716,31.716,0,0,0,.076,45.089C-.263,48.8.523,51.883,2.594,53.9c4.106,4,12.256,2.848,21.219-2.187h0c1.321-.741,2.678-1.562,4-2.473a68.088,68.088,0,0,0,6.249-4.776c1.785-1.518,3.571-3.169,5.276-4.936a76.953,76.953,0,0,0,6.1-7.052C54.823,20.2,58.162,7.678,52.752,2.411ZM23.848,44.5a10.382,10.382,0,0,1-.777,2.9,15.708,15.708,0,0,0-.527-2.125c-.062-.232-.152-.446-.232-.678h0a18.023,18.023,0,0,0-11.1-10.837,17.62,17.62,0,0,0-3.383-.794,11.6,11.6,0,0,1,4.91-1.125A11.221,11.221,0,0,1,23.946,43.063,9.481,9.481,0,0,1,23.848,44.5Zm11.1-11a12.006,12.006,0,0,1-.893,3.758,18.54,18.54,0,0,0-1.125-3.767A19.639,19.639,0,0,0,17.385,21.532a12.024,12.024,0,0,1,4.41-1.2,8.455,8.455,0,0,1,.955-.045A12.256,12.256,0,0,1,34.988,32.547,8.456,8.456,0,0,1,34.944,33.5ZM45.29,26.013A19.639,19.639,0,0,0,28.624,10.284,12.088,12.088,0,0,1,33.98,9.044a8.224,8.224,0,0,1,1.143.054A12.247,12.247,0,0,1,45.29,26.058Z" transform="matrix(0.951, -0.309, 0.309, 0.951, 315.49, 73.044)"/>
    <path id="Path_3473" data-name="Path 3473" d="M39.606,19.74A19.8,19.8,0,0,1,0,19.74q0-.856,0-1.711H0A19.724,19.724,0,0,1,16.587.238h0A21.787,21.787,0,0,1,19.755,0,19.787,19.787,0,0,1,39.606,19.74Z" transform="matrix(0.695, 0.719, -0.719, 0.695, 673.463, 99.462)"/>
    <path id="Path_3480" data-name="Path 3480" d="M39.319,171.265a10.619,10.619,0,1,1-21.239,0v-.917h0a10.577,10.577,0,0,1,8.895-9.54h0a11.684,11.684,0,0,1,1.7-.127A10.611,10.611,0,0,1,39.319,171.265Z" transform="translate(471.015 422.634)"/>
    <path id="Path_3523" data-name="Path 3523" d="M39.319,171.265a10.619,10.619,0,1,1-21.239,0v-.917h0a10.577,10.577,0,0,1,8.895-9.54h0a11.684,11.684,0,0,1,1.7-.127A10.611,10.611,0,0,1,39.319,171.265Z" transform="translate(63.548 109.995)"/>
    <path id="Path_3527" data-name="Path 3527" d="M32.472,167.853a7.2,7.2,0,0,1-14.392,0v-.622h0a7.167,7.167,0,0,1,6.027-6.465h0a7.916,7.916,0,0,1,1.151-.086A7.19,7.19,0,0,1,32.472,167.853Z" transform="translate(12.323 40.323)"/>
    <path id="Path_3540" data-name="Path 3540" d="M39.319,171.265a10.619,10.619,0,1,1-21.239,0v-.917h0a10.577,10.577,0,0,1,8.895-9.54h0a11.684,11.684,0,0,1,1.7-.127A10.611,10.611,0,0,1,39.319,171.265Z" transform="translate(-17.487 -160.68)"/>
    <path id="Path_3518" data-name="Path 3518" d="M39.319,171.265a10.619,10.619,0,1,1-21.239,0v-.917h0a10.577,10.577,0,0,1,8.895-9.54h0a11.684,11.684,0,0,1,1.7-.127A10.611,10.611,0,0,1,39.319,171.265Z" transform="translate(215.271 425.072)"/>
    <path id="Path_3520" data-name="Path 3520" d="M55.076,179.119a18.5,18.5,0,0,1-37,0v-1.6h0A18.424,18.424,0,0,1,33.574,160.9h0a20.366,20.366,0,0,1,2.96-.222A18.483,18.483,0,0,1,55.076,179.119Z" transform="translate(-18.08 235.045)"/>
    <path id="Path_3463" data-name="Path 3463" d="M21.239,10.585A10.619,10.619,0,0,1,0,10.585V9.668H0A10.577,10.577,0,0,1,8.895.127h0A11.682,11.682,0,0,1,10.594,0,10.611,10.611,0,0,1,21.239,10.585Z" transform="matrix(0.695, 0.719, -0.719, 0.695, 677.776, 257.525)"/>
    <path id="Path_3528" data-name="Path 3528" d="M39.319,171.265a10.619,10.619,0,1,1-21.239,0v-.917h0a10.577,10.577,0,0,1,8.895-9.54h0a11.684,11.684,0,0,1,1.7-.127A10.611,10.611,0,0,1,39.319,171.265Z" transform="translate(116.73 554.157)"/>
    <path id="Path_3509" data-name="Path 3509" d="M39.319,171.265a10.619,10.619,0,1,1-21.239,0v-.917h0a10.577,10.577,0,0,1,8.895-9.54h0a11.684,11.684,0,0,1,1.7-.127A10.611,10.611,0,0,1,39.319,171.265Z" transform="translate(344.749 21.465)"/>
    <path id="Path_3504" data-name="Path 3504" d="M39.319,171.265a10.619,10.619,0,1,1-21.239,0v-.917h0a10.577,10.577,0,0,1,8.895-9.54h0a11.684,11.684,0,0,1,1.7-.127A10.611,10.611,0,0,1,39.319,171.265Z" transform="translate(217.621 583.359)"/>
    <path id="Path_3545" data-name="Path 3545" d="M39.319,171.265a10.619,10.619,0,1,1-21.239,0v-.917h0a10.577,10.577,0,0,1,8.895-9.54h0a11.684,11.684,0,0,1,1.7-.127A10.611,10.611,0,0,1,39.319,171.265Z" transform="translate(531.843 600.15)"/>
    <path id="Path_3525" data-name="Path 3525" d="M32.187,167.711a7.053,7.053,0,0,1-14.106,0V167.1h0a7.025,7.025,0,0,1,5.908-6.337h0a7.75,7.75,0,0,1,1.129-.085A7.048,7.048,0,0,1,32.187,167.711Z" transform="translate(78.672 614.158)"/>
    <path id="Path_3526" data-name="Path 3526" d="M39.319,171.265a10.619,10.619,0,1,1-21.239,0v-.917h0a10.577,10.577,0,0,1,8.895-9.54h0a11.684,11.684,0,0,1,1.7-.127A10.611,10.611,0,0,1,39.319,171.265Z" transform="translate(184.958 89.872)"/>
    <path id="Path_3495" data-name="Path 3495" d="M39.319,171.265a10.619,10.619,0,1,1-21.239,0v-.917h0a10.577,10.577,0,0,1,8.895-9.54h0a11.684,11.684,0,0,1,1.7-.127A10.611,10.611,0,0,1,39.319,171.265Z" transform="translate(175.103 -3.535)"/>
    <path id="Path_3510" data-name="Path 3510" d="M39.319,171.265a10.619,10.619,0,1,1-21.239,0v-.917h0a10.577,10.577,0,0,1,8.895-9.54h0a11.684,11.684,0,0,1,1.7-.127A10.611,10.611,0,0,1,39.319,171.265Z" transform="translate(493.951 134.68)"/>
    <path id="Path_3578" data-name="Path 3578" d="M39.319,171.265a10.619,10.619,0,1,1-21.239,0v-.917h0a10.577,10.577,0,0,1,8.895-9.54h0a11.684,11.684,0,0,1,1.7-.127A10.611,10.611,0,0,1,39.319,171.265Z" transform="translate(393.208 593.794)"/>
    <path id="Path_3468" data-name="Path 3468" d="M21.239,10.585A10.619,10.619,0,0,1,0,10.585V9.668H0A10.577,10.577,0,0,1,8.895.127h0A11.682,11.682,0,0,1,10.594,0,10.611,10.611,0,0,1,21.239,10.585Z" transform="matrix(0.695, 0.719, -0.719, 0.695, 335.503, 0)"/>
    <path id="Path_3542" data-name="Path 3542" d="M39.319,171.265a10.619,10.619,0,1,1-21.239,0v-.917h0a10.577,10.577,0,0,1,8.895-9.54h0a11.684,11.684,0,0,1,1.7-.127A10.611,10.611,0,0,1,39.319,171.265Z" transform="translate(-7.892 334.174)"/>
    <path id="Path_3498" data-name="Path 3498" d="M59.091,181.12a20.505,20.505,0,0,1-41.011,0v-1.772h0a20.423,20.423,0,0,1,17.175-18.422h0a22.546,22.546,0,0,1,3.281-.246A20.489,20.489,0,0,1,59.091,181.12Z" transform="translate(162 -160.207)"/>
    <path id="Path_3489" data-name="Path 3489" d="M29.225,166.235a5.573,5.573,0,0,1-11.145,0v-.481h0a5.55,5.55,0,0,1,4.668-5.007h0a6.132,6.132,0,0,1,.892-.067A5.568,5.568,0,0,1,29.225,166.235Z" transform="translate(503.526 535.003)"/>
    <path id="Path_3478" data-name="Path 3478" d="M29.225,166.235a5.573,5.573,0,0,1-11.145,0v-.481h0a5.55,5.55,0,0,1,4.668-5.007h0a6.132,6.132,0,0,1,.892-.067A5.568,5.568,0,0,1,29.225,166.235Z" transform="translate(333.222 455.972)"/>
    <path id="Path_3579" data-name="Path 3579" d="M29.225,166.235a5.573,5.573,0,0,1-11.145,0v-.481h0a5.55,5.55,0,0,1,4.668-5.007h0a6.132,6.132,0,0,1,.892-.067A5.568,5.568,0,0,1,29.225,166.235Z" transform="translate(611.465 558.853)"/>
    <path id="Path_3575" data-name="Path 3575" d="M29.225,166.235a5.573,5.573,0,0,1-11.145,0v-.481h0a5.55,5.55,0,0,1,4.668-5.007h0a6.132,6.132,0,0,1,.892-.067A5.568,5.568,0,0,1,29.225,166.235Z" transform="translate(486.735 -112.843)"/>
    <path id="Path_3577" data-name="Path 3577" d="M29.225,166.235a5.573,5.573,0,0,1-11.145,0v-.481h0a5.55,5.55,0,0,1,4.668-5.007h0a6.132,6.132,0,0,1,.892-.067A5.568,5.568,0,0,1,29.225,166.235Z" transform="translate(-16.98 616.421)"/>
    <path id="Path_3547" data-name="Path 3547" d="M29.225,166.235a5.573,5.573,0,0,1-11.145,0v-.481h0a5.55,5.55,0,0,1,4.668-5.007h0a6.132,6.132,0,0,1,.892-.067A5.568,5.568,0,0,1,29.225,166.235Z" transform="translate(26.195 -129.634)"/>
    <path id="Path_3484" data-name="Path 3484" d="M29.225,166.235a5.573,5.573,0,0,1-11.145,0v-.481h0a5.55,5.55,0,0,1,4.668-5.007h0a6.132,6.132,0,0,1,.892-.067A5.568,5.568,0,0,1,29.225,166.235Z" transform="translate(215.688 -98.315)"/>
    <path id="Path_3576" data-name="Path 3576" d="M29.225,166.235a5.573,5.573,0,0,1-11.145,0v-.481h0a5.55,5.55,0,0,1,4.668-5.007h0a6.132,6.132,0,0,1,.892-.067A5.568,5.568,0,0,1,29.225,166.235Z" transform="translate(203.695 530.206)"/>
    <path id="Path_3469" data-name="Path 3469" d="M37.665,170.441a9.793,9.793,0,0,1-19.585,0V169.6h0a9.754,9.754,0,0,1,8.2-8.8h0a10.781,10.781,0,0,1,1.567-.118A9.785,9.785,0,0,1,37.665,170.441Z" transform="translate(581.814 -158.227)"/>
    <path id="Path_3476" data-name="Path 3476" d="M44.8,174a13.362,13.362,0,1,1-26.724,0v-1.154h0a13.308,13.308,0,0,1,11.192-12h0a14.688,14.688,0,0,1,2.138-.16A13.351,13.351,0,0,1,44.8,174Z" transform="translate(416.884 506.137)"/>
    <path id="Path_3492" data-name="Path 3492" d="M36.127,169.675a9.023,9.023,0,1,1-18.047,0v-.78h0a8.987,8.987,0,0,1,7.558-8.106h0a9.933,9.933,0,0,1,1.444-.108A9.016,9.016,0,0,1,36.127,169.675Z" transform="translate(665.478 610.532)"/>
    <path id="Path_3470" data-name="Path 3470" d="M18.047,8.995A9.023,9.023,0,0,1,0,8.995v-.78H0A8.987,8.987,0,0,1,7.558.108h0A9.923,9.923,0,0,1,9,0,9.016,9.016,0,0,1,18.047,8.995Z" transform="matrix(0.695, 0.719, -0.719, 0.695, 432.089, 74.084)"/>
    <path id="Path_3543" data-name="Path 3543" d="M36.127,169.675a9.023,9.023,0,1,1-18.047,0v-.78h0a8.987,8.987,0,0,1,7.558-8.106h0a9.933,9.933,0,0,1,1.444-.108A9.016,9.016,0,0,1,36.127,169.675Z" transform="translate(1.703 449.852)"/>
    <path id="Path_3471" data-name="Path 3471" d="M36.127,169.675a9.023,9.023,0,1,1-18.047,0v-.78h0a8.987,8.987,0,0,1,7.558-8.106h0a9.933,9.933,0,0,1,1.444-.108A9.016,9.016,0,0,1,36.127,169.675Z" transform="translate(646.288 -111.63)"/>
    <path id="Path_3535" data-name="Path 3535" d="M28.358,165.8a5.139,5.139,0,0,1-10.278,0v-.444h0a5.118,5.118,0,0,1,4.3-4.617h0a5.646,5.646,0,0,1,.822-.062A5.135,5.135,0,0,1,28.358,165.8Z" transform="translate(149.857 183.748)"/>
    <path id="Path_3462" data-name="Path 3462" d="M27.549,13.73A13.774,13.774,0,0,1,0,13.73V12.54H0A13.719,13.719,0,0,1,11.537.165h0A15.14,15.14,0,0,1,13.741,0,13.763,13.763,0,0,1,27.549,13.73Z" transform="matrix(0.695, 0.719, -0.719, 0.695, 659.278, 372.939)"/>
    <path id="Path_3465" data-name="Path 3465" d="M45.629,174.41a13.774,13.774,0,0,1-27.549,0v-1.19h0a13.719,13.719,0,0,1,11.537-12.375h0a15.149,15.149,0,0,1,2.2-.165A13.763,13.763,0,0,1,45.629,174.41Z" transform="translate(640.815 373.068)"/>
    <path id="Path_3472" data-name="Path 3472" d="M27.549,13.73A13.774,13.774,0,0,1,0,13.73V12.54H0A13.719,13.719,0,0,1,11.537.165h0A15.14,15.14,0,0,1,13.741,0,13.763,13.763,0,0,1,27.549,13.73Z" transform="matrix(0.695, 0.719, -0.719, 0.695, 596.431, 468.356)"/>
    <path id="Path_3544" data-name="Path 3544" d="M31.007,167.123a6.464,6.464,0,0,1-12.927,0v-.558h0a6.438,6.438,0,0,1,5.414-5.807h0a7.116,7.116,0,0,1,1.034-.078A6.458,6.458,0,0,1,31.007,167.123Z" transform="translate(1.703 563.491)"/>
    <path id="Path_3537" data-name="Path 3537" d="M41.282,171.824A11.4,11.4,0,0,1,29.681,183a11.4,11.4,0,0,1-11.6-11.18v-.966h0A11.314,11.314,0,0,1,27.8,160.814h0a13.238,13.238,0,0,1,1.856-.134A11.39,11.39,0,0,1,41.282,171.824Z" transform="translate(74.248 273.558)"/>
    <path id="Path_3516" data-name="Path 3516" d="M43.175,173.187a12.547,12.547,0,1,1-25.095,0q0-.542,0-1.084h0a12.5,12.5,0,0,1,10.51-11.273h0a13.8,13.8,0,0,1,2.008-.151A12.537,12.537,0,0,1,43.175,173.187Z" transform="translate(486.295 36.832)"/>
  </g>
</svg>
