<svg xmlns="http://www.w3.org/2000/svg" width="64.423" height="55.052" viewBox="0 0 64.423 55.052">
  <g id="Layer_2" data-name="Layer 2" transform="translate(0.002 0.003)">
    <g id="Layer_1" data-name="Layer 1" transform="translate(-0.002 -0.003)">
      <path id="Path_36454" data-name="Path 36454" d="M22.035,53.859c-6.184-1.1-20.047-1.1-20.047-1.1C2,27.989-.23,37.76.017,21.244.11,15.163,1.627,1.016,1.627,1.016a94.1,94.1,0,0,1,31.291.552c8.9,1.594,21.9-2.89,29.314-.962,0,0,3.217,15.821,1.85,24.364C62.371,35.715,62.6,53.593,62.6,53.593a49,49,0,0,0-17.191.136c-10.467,1.965-15.729,1.5-23.381.139" transform="translate(0.002 0.003)" fill="#747d42"/>
      <path id="Path_36455" data-name="Path 36455" d="M22.729,146.41h.9a2.039,2.039,0,0,1,1.409.339,1.153,1.153,0,0,1,.389.823.9.9,0,0,1-.515.842,1.064,1.064,0,0,1,.786,1.095,1.234,1.234,0,0,1-.567,1.052,2.308,2.308,0,0,1-1.181.262H22.72Zm.848,1.724h.278c.2,0,.728,0,.728-.478,0-.262-.173-.475-.654-.475h-.352Zm0,1.931H24c.167,0,.851,0,.851-.58,0-.176-.093-.589-.833-.589h-.444Z" transform="translate(-15.712 -101.255)" fill="#fff"/>
      <path id="Path_36456" data-name="Path 36456" d="M38.834,146.41H39.5l1.915,4.413h-.925l-.5-1.147H38.353l-.487,1.141H36.94Zm-.194,2.5h1.049l-.518-1.354h-.015Z" transform="translate(-25.547 -101.255)" fill="#fff"/>
      <path id="Path_36457" data-name="Path 36457" d="M57.38,146.41h.848v1.909h0l1.428-1.909h1l-1.724,2.159,1.724,2.254h-.987l-1.428-1.94h0v1.94H57.38Z" transform="translate(-39.683 -101.255)" fill="#fff"/>
      <path id="Path_36458" data-name="Path 36458" d="M73.236,146.41H75.7v.765H74.084v1.076h1.542v.762H74.084v1.046H75.7v.765H73.23Z" transform="translate(-50.645 -101.255)" fill="#fff"/>
      <path id="Path_36459" data-name="Path 36459" d="M87.73,146.4h1.4a1.687,1.687,0,0,1,1.113.308,1.348,1.348,0,0,1,.54,1.064,1.52,1.52,0,0,1-.441,1.058,1.492,1.492,0,0,1-.759.364l1.234,1.628H89.8l-1.209-1.687h0v1.687h-.86Zm.848,2.109h.543c.7,0,.814-.447.814-.679s-.154-.666-.814-.666h-.543Z" transform="translate(-60.673 -101.243)" fill="#fff"/>
      <path id="Path_36460" data-name="Path 36460" d="M103.532,149.216l-1.5-2.776h.925l1,2.026,1-2.026h.925l-1.508,2.776v1.628h-.836Z" transform="translate(-70.562 -101.276)" fill="#fff"/>
      <path id="Path_36461" data-name="Path 36461" d="M133.287,149.408a2.323,2.323,0,0,1-2.113,1.32,2.3,2.3,0,1,1,2.137-3.241h-.962a1.585,1.585,0,0,0-1.234-.586,1.542,1.542,0,0,0-1.49,1.527,1.567,1.567,0,0,0,1.52,1.542,1.514,1.514,0,0,0,1.15-.558Z" transform="translate(-89.069 -101.07)" fill="#fff"/>
      <path id="Path_36462" data-name="Path 36462" d="M149,146.41h.66l1.915,4.413h-.925l-.493-1.147h-1.638l-.487,1.141h-.925Zm-.2,2.5h1.046l-.521-1.354h0Z" transform="translate(-101.739 -101.255)" fill="#fff"/>
      <path id="Path_36463" data-name="Path 36463" d="M167,146.41h2.329v.765h-1.483v1.076h1.416v.762h-1.416v1.81H167Z" transform="translate(-115.495 -101.255)" fill="#fff"/>
      <path id="Path_36464" data-name="Path 36464" d="M180.6,146.41h2.467v.765h-1.613v1.076H183v.762h-1.542v1.046h1.613v.765H180.6Z" transform="translate(-124.901 -101.255)" fill="#fff"/>
      <path id="Path_36465" data-name="Path 36465" d="M73.576,40.512c-10.2,3.753-14.44-.225-14.631-2.884a4.132,4.132,0,0,1,1.385-3.47c.675,2.307,3.392,2.68,3.392,2.68a19.3,19.3,0,0,1-.959-4.5,5.175,5.175,0,0,1,2.026-2.042A4.6,4.6,0,0,0,68.7,33.378S66.822,30.7,67.608,28.9a14.565,14.565,0,0,1,3-2.063c.089.355.389,2.369,1.749,3.084A9.72,9.72,0,0,1,71.155,26.1a7.942,7.942,0,0,0-4.6,2.214,6.76,6.76,0,0,0,1.163,4.2A3.83,3.83,0,0,1,65.255,29.4c-1.968.114-3.322,2.572-3.322,2.572a8.818,8.818,0,0,0,.888,3.935s-1.582-.429-2.18-3.2a6.617,6.617,0,0,0-2.955,4.962,4.5,4.5,0,0,0,1.425,3.827c1.261,1.323,4.4,4.259,13.98.077,2.4-1.049.484-1.058.484-1.058" transform="translate(-39.87 -18.05)" fill="#fff"/>
      <path id="Path_36466" data-name="Path 36466" d="M130,20.21a1.949,1.949,0,0,1,.065.975c7.676.543,4.379,5.746,4.561,5.616.786-.524,1.055-2.378,1.049-2.7-.059-2.72-3.534-3.645-5.675-3.889" transform="translate(-89.906 -13.976)" fill="#fff"/>
      <path id="Path_36467" data-name="Path 36467" d="M144,44.148a1.851,1.851,0,0,0-1.786.1c.071.12.142.247.207.382l.056.13a1.453,1.453,0,0,1,1.058.1c.836.45.9,1.613.29,2.745a3.7,3.7,0,0,1-.54.762v.484a3.368,3.368,0,0,0,1.234-1.311c.719-1.342.5-2.862-.5-3.393" transform="translate(-98.351 -30.405)" fill="#fff"/>
      <path id="Path_36468" data-name="Path 36468" d="M115.447,44.124a3.352,3.352,0,0,0-.648-.984c1.625,5.005,1.092,9.073-2.729,10.517-2.1.8-4.426.182-6.9-4.262-.376,0-2.116-.53-2.054-.395,1.85,4.207,6.282,6.711,9.653,5.243s4.361-6.276,2.68-10.134" transform="translate(-71.313 -29.834)" fill="#fff"/>
      <path id="Path_36469" data-name="Path 36469" d="M101.689,45.713c.1.392.432,1.258,1.946,1.524a10.048,10.048,0,0,0,6.168-.753,8.418,8.418,0,0,0,4.009-3.559c.5-1.135.4-2.279-.274-2.776-1.042-.759-1.477-.651-1.477-.651s1.477.774,1.616,1.129a2.573,2.573,0,0,1-.45,2.618,10.254,10.254,0,0,1-4.894,3.174c-2.291.672-4.336.669-5.372-.308-1.184-1.123-.265-3.392.41-3.861a3.659,3.659,0,0,0-1.678,3.457" transform="translate(-70.299 -27.312)" fill="#fff"/>
      <path id="Path_36470" data-name="Path 36470" d="M113.715,8.88c-.981,1.3-.648,3.525,1.989,5.94,2.362,2.159,1.727,5.021,1.783,6.06,1.086-2.646,1.083-4.484.16-6.282-.617-1.181-2.079-1.542-3.059-2.551a3.349,3.349,0,0,1-.873-3.167" transform="translate(-78.294 -6.14)" fill="#fff"/>
      <path id="Path_36471" data-name="Path 36471" d="M107.041,20.088c-.413,1.573-.648,3.525,1.989,5.94,2.365,2.159,1.727,5.018,1.786,6.06,1.086-2.649,1.082-4.487.16-6.282-.617-1.181-1.934-1.712-3.063-2.554-1.369-1.033-.86-3.214-.873-3.164" transform="translate(-73.852 -13.891)" fill="#fff"/>
      <path id="Path_36472" data-name="Path 36472" d="M30,91.424a5.462,5.462,0,0,0-3.029-.333,20.458,20.458,0,0,0-2.837.734c-.617.207-.87-.231-.567-.564a9.7,9.7,0,0,1,.987-.759c.213-.213,3.871-3.177,4.355-3.744a1.294,1.294,0,0,0,.25-1.329.973.973,0,0,0-1.005-.944,13.673,13.673,0,0,0-5.406,1.027,4.536,4.536,0,0,1-.022-1.215c.083-.657-2.193.774-2.295.987a4.115,4.115,0,0,0-.21.635s-.968.583-1.03,1.132a3.027,3.027,0,0,0,.506,1.428,2.976,2.976,0,0,1,.083.8c-.043.253-.4,4.009-.419,4.672a45.6,45.6,0,0,0,.093,5.471c.179.6.389,1.1,1.85-.043.308-.1,5.283-1.81,5.385-1.832s2.881-1.619,3.217-1.894,1.557-1.234,1.542-2.042a3.167,3.167,0,0,0-1.431-2.187m-7.562-4.207a15.42,15.42,0,0,1,3.46-1.588c1.286-.376,1.85-.407,2.424-.025.5.308-1.783,2.072-2.159,2.369S21.6,91.118,21.6,91.118a11.214,11.214,0,0,1,.87-3.9M29,94.4a6.279,6.279,0,0,1-2.23,1.681,12.527,12.527,0,0,1-2.4.984,1.4,1.4,0,0,1-.66-.139,1.733,1.733,0,0,1,.083-2.467c.873-.941,3.621-1.459,4.009-1.514s1.687-.228,1.85.151-.441,1.024-.657,1.3" transform="translate(-13.267 -58.179)" fill="#fff"/>
      <path id="Path_36473" data-name="Path 36473" d="M70.349,98.757a20.424,20.424,0,0,0-.836-4.167c-.157-.4-.765-2.285-2-2.214s-1.428.6-1.85,1.462S64.511,95.62,64.27,96.1c-.117.244-.025,1.092.33,1.234a1.266,1.266,0,0,0,1.215-.558c.114-.216.682-2.378.737-2.634s.342-.481.54-.21A5.357,5.357,0,0,1,67.8,96.2c.083,1.039.157,2.2.157,2.2s-3.972.894-4.367,1.079-1.73.6-1.542,1.234,1.388,1.419,1.641,1.5a10.725,10.725,0,0,0,3.393.6,5.936,5.936,0,0,1,.82.1A5.624,5.624,0,0,0,68,104c.089.117,2.174-.466,2.174-1.19s.234-2.535.154-4.009m-2.2,2.606c-.031.722-.965.78-1.32.78a10.021,10.021,0,0,1-2.692-.6c-.879-.37-1.005-.709-.441-1.089a12.9,12.9,0,0,1,3.7-.827c.382.043.567.157.638.441a3.846,3.846,0,0,1,.114,1.289" transform="translate(-42.9 -63.884)" fill="#fff"/>
      <path id="Path_36474" data-name="Path 36474" d="M95.084,93.474c0,.228.256,3.161.271,3.627s0,3.232,0,3.756.028,2.514-.031,2.893c-.028.182.077.9.567.823.426-.071,1.573-.284,1.163-1-.481-.836-.284-1.033-.253-1.826a16.194,16.194,0,0,1,1.743-4.666c.339-.429,1.234-1.594,1.955-1.329.4.142.413.993.438,1.514s-.025,3.673-.025,4.228-.065,1.234-.031,1.585c.071.719.851,1.061,1.234-.145s.864-2.847,1.089-3.485a16.719,16.719,0,0,0,.527-4.053,2.162,2.162,0,0,0-2.085-1.379c-1.187.009-3.121.7-3.46.4s-1.061-1.474-1.274-1.644-1.32-.6-1.6-.241a1.2,1.2,0,0,0-.213.925" transform="translate(-65.754 -63.903)" fill="#fff"/>
      <path id="Path_36475" data-name="Path 36475" d="M116.808,98.826c.339.685.185,6.785.086,7.229-.382,1.681-.561,3.679-1.721,4.182-1.625.706-2.254-.45-2.6-.481-.481-.046-1.339.077-1.286,1.07.019.361.453.484.87.592a9.847,9.847,0,0,0,1.311.336,4.338,4.338,0,0,0,3.318-.709,5.864,5.864,0,0,0,.975-2.588,14.188,14.188,0,0,0,.352-2.359,27.791,27.791,0,0,1,.5-4.494c.191-.743-.037-2.288.879-3,.37-.29-.16-.827-.635-.947a1.779,1.779,0,0,0-1.98.493.543.543,0,0,0-.065.675" transform="translate(-76.961 -67.472)" fill="#fff"/>
      <path id="Path_36476" data-name="Path 36476" d="M148.146,104.691a24.79,24.79,0,0,0-.953-3.7c-.358-.894-1.746-1.184-3.019-.382a20.972,20.972,0,0,0-3.624,2.979,2.063,2.063,0,0,0-.6,1.958,5.915,5.915,0,0,0,2.381,2.523,4.658,4.658,0,0,0,4.626.432c1.234-.555,1.542-2.128,1.187-3.809m-2.887,2.662c-1,.062-2.976-1.653-3.827-2.362s.022-1.187.509-1.468c.552-.308,1.234-.777,1.934-1.212.959-.592,1.283.219,1.659.746a6.98,6.98,0,0,1,1.292,3.392c.037.793-.762.864-1.567.925" transform="translate(-96.755 -69.254)" fill="#fff"/>
      <path id="Path_36477" data-name="Path 36477" d="M176.484,94.4c0,.725.308,1.573.91.663a2.65,2.65,0,0,0,.281-2.424c-.237-.555-1.894-.808-2.575-.617a2.759,2.759,0,0,0-2.295,2.131,13.825,13.825,0,0,0,0,4.484c.148,1.363.234,2.159.308,2.911s.336,1.36-.722,1.083a2.935,2.935,0,0,1-1.212-.975c-.339-.45-1.342-.617-1.042.336a2.967,2.967,0,0,0,1.234,1.579,4.732,4.732,0,0,0,1.826.441,2.174,2.174,0,0,0,1.616-.743,8.765,8.765,0,0,0-.065-2.634c-.083-.657-.234-2.85-.278-3.766a5.963,5.963,0,0,1,.79-3.1c.352-.392.574-.743.925-.278a1.514,1.514,0,0,1,.308.833" transform="translate(-117.626 -63.594)" fill="#fff"/>
      <path id="Path_36478" data-name="Path 36478" d="M167.348,80.082c.037.345.08.746.08.925,0,.395.352.426.416.17.111-.426.21-.817.241-.975a5.446,5.446,0,0,1,.358-1.4,1.751,1.751,0,0,0,.382-.876c0-.327-.552-.564-.882-.543a1.605,1.605,0,0,0-1,.583,1.234,1.234,0,0,0-.077.925,4.921,4.921,0,0,1,.484,1.2" transform="translate(-115.362 -53.518)" fill="#fff"/>
      <path id="Path_36479" data-name="Path 36479" d="M133.488,85.16a2.4,2.4,0,0,0-1.2.9c-.117.54.154.743.546.857.308.093,0,.45.231.765.093.136.45.093.7.031a1.977,1.977,0,0,0,.848-.83c.12-.213-.068-.749-.123-.925s-.46-.512-.592-.635a.9.9,0,0,0-.407-.154" transform="translate(-91.47 -58.895)" fill="#fff"/>
    </g>
  </g>
</svg>
