<svg width="76" height="76" viewBox="0 0 76 76" fill="none" xmlns="http://www.w3.org/2000/svg">
<path d="M56.9997 11.0834H12.6663C9.18301 11.0834 6.33301 13.9334 6.33301 17.4167V44.3334C6.33301 47.8167 9.18301 50.6667 12.6663 50.6667H56.9997C60.483 50.6667 63.333 47.8167 63.333 44.3334V17.4167C63.333 13.9334 60.483 11.0834 56.9997 11.0834Z" fill="#D7A946"/>
<path d="M8.07552 13.1416C7.28385 13.9333 6.80885 14.8833 6.49219 15.9916L34.8339 36.4166L63.1755 15.8333C62.8589 14.7249 62.3839 13.7749 61.5922 12.9833L34.8339 32.4583L8.07552 13.1416Z" fill="#4F3E3B"/>
<path d="M53.8333 33.25C49.6341 33.25 45.6068 34.9182 42.6375 37.8875C39.6682 40.8568 38 44.8841 38 49.0833C38 53.2826 39.6682 57.3099 42.6375 60.2792C45.6068 63.2485 49.6341 64.9167 53.8333 64.9167C58.0326 64.9167 62.0599 63.2485 65.0292 60.2792C67.9985 57.3099 69.6667 53.2826 69.6667 49.0833C69.6667 44.8841 67.9985 40.8568 65.0292 37.8875C62.0599 34.9182 58.0326 33.25 53.8333 33.25Z" fill="#747D42"/>
<path d="M45.917 49.875L50.667 54.625L60.9587 44.3334" stroke="white" stroke-width="2.5" stroke-linecap="round" stroke-linejoin="round"/>
</svg>
