<svg xmlns="http://www.w3.org/2000/svg" width="107.4" height="107.4" viewBox="0 0 107.4 107.4">
  <g id="Group_1856" data-name="Group 1856" transform="translate(2896.87 -3249)">
    <path id="Path_3213" data-name="Path 3213" d="M1128.026,264.281v30.528a5.856,5.856,0,0,1-5.849,5.849h-46.97a5.856,5.856,0,0,1-5.856-5.854V264.281a5.856,5.856,0,0,1,5.856-5.856h1.937v4.966h-.815a2.308,2.308,0,0,0-2.308,2.307v4.509l3.123,1.506,4.779,2.306,16.756,8.087,16.756-8.087,4.779-2.306,3.123-1.506v-4.514a2.307,2.307,0,0,0-2.307-2.307h-.815V258.42h1.962A5.856,5.856,0,0,1,1128.026,264.281Z" transform="translate(-3941.858 3030.686)" fill="#5E7360"/>
    <path id="Path_3214" data-name="Path 3214" d="M1157.083,178.089v22.448l-4.779,2.306v-23.01a2.534,2.534,0,0,0-2.533-2.534H1121.32a2.534,2.534,0,0,0-2.533,2.534v23.01L1114,200.538V178.089a5.891,5.891,0,0,1,5.889-5.889h31.3a5.891,5.891,0,0,1,5.895,5.889Z" transform="translate(-3978.714 3101.857)" fill="#f38d70"/>
    <path id="Path_3215" data-name="Path 3215" d="M1180.045,231.741a2.887,2.887,0,0,1-.85,2.051,2.459,2.459,0,0,1-.237.211,2.85,2.85,0,0,1-1.422.611,2.62,2.62,0,0,1-.391.028h-9.373a2.9,2.9,0,1,1,0-5.8h9.373a2.616,2.616,0,0,1,.391.028A2.9,2.9,0,0,1,1180.045,231.741Z" transform="translate(-4020.705 3055.103)" fill="#5E7360"/>
    <path id="Path_3216" data-name="Path 3216" d="M1172.414,201.41h-28.451a2.534,2.534,0,0,0-2.533,2.534v23.01l16.756,8.087,16.756-8.087v-23.01A2.534,2.534,0,0,0,1172.414,201.41Zm-26.044,5.638a2.894,2.894,0,0,1,2.053-.85h9.373a2.617,2.617,0,0,1,.391.028,2.9,2.9,0,0,1,1.66,4.924,2.447,2.447,0,0,1-.237.211,2.85,2.85,0,0,1-1.422.611,2.619,2.619,0,0,1-.391.028h-9.373a2.9,2.9,0,0,1-2.053-4.952Zm23.183,14.233a2.894,2.894,0,0,1-2.053.85h-19.078a2.9,2.9,0,1,1,0-5.8H1167.5a2.9,2.9,0,0,1,2.053,4.954Z" transform="translate(-4001.356 3077.745)" fill="#fff"/>
    <path id="Path_3217" data-name="Path 3217" d="M1189.407,289.767a2.9,2.9,0,0,1-2.9,2.9h-19.078a2.9,2.9,0,1,1,0-5.8H1186.5A2.9,2.9,0,0,1,1189.407,289.767Z" transform="translate(-4020.36 3007.206)" fill="#5E7360"/>
  </g>
</svg>
