<svg width="17" height="18" viewBox="0 0 17 18" fill="none" xmlns="http://www.w3.org/2000/svg">
<path d="M16.292 6.78706V15.5264C16.2915 15.9704 16.1202 16.396 15.8158 16.7099C15.5113 17.0238 15.0985 17.2004 14.6679 17.2009H1.62588C1.19467 17.2009 0.78114 17.0243 0.476224 16.7099C0.171308 16.3955 0 15.9691 0 15.5245V6.78609C0 6.34149 0.171308 5.9151 0.476224 5.60072C0.78114 5.28634 1.19467 5.10971 1.62588 5.10971H2.16349V6.53124H1.93702C1.85285 6.53124 1.7695 6.54833 1.69174 6.58154C1.61397 6.61475 1.54326 6.66342 1.48374 6.72479C1.42422 6.78615 1.37702 6.85903 1.34481 6.93921C1.3126 7.01939 1.29605 7.10532 1.29605 7.1921V8.48086L2.16349 8.91207L3.49051 9.57196L8.14365 11.8869L12.7967 9.57196L14.1238 8.91207L14.9912 8.48086V7.18823C14.9912 7.01296 14.9236 6.84485 14.8034 6.72091C14.6832 6.59698 14.5203 6.52737 14.3503 6.52737H14.1238V5.10876H14.6689C15.0999 5.10954 15.513 5.28674 15.8174 5.60146C16.1217 5.91617 16.2925 6.34263 16.292 6.78706Z" fill="#5E7360"/>
<path d="M14.1291 2.48538V8.9118L12.8021 9.57169V2.98248C12.8021 2.79016 12.7281 2.6057 12.5962 2.46962C12.4644 2.33354 12.2856 2.25695 12.099 2.25669H4.19883C4.0123 2.25695 3.83354 2.33354 3.70173 2.46962C3.56992 2.6057 3.49591 2.79016 3.49591 2.98248V9.57169L2.16602 8.9118V2.48538C2.16602 2.03821 2.33831 1.60936 2.64499 1.29316C2.95167 0.976965 3.3676 0.799318 3.80131 0.799318H12.492C12.7069 0.799063 12.9196 0.842492 13.1182 0.927111C13.3169 1.01173 13.4974 1.13588 13.6494 1.29247C13.8015 1.44906 13.9221 1.63501 14.0044 1.8397C14.0867 2.04439 14.1291 2.2638 14.1291 2.48538Z" fill="#5E7360"/>
<path d="M8.84346 4.46203C8.84367 4.57111 8.82292 4.67917 8.78243 4.77995C8.74194 4.88073 8.68255 4.97226 8.60759 5.04924C8.58693 5.0707 8.56489 5.09076 8.54174 5.10932C8.42827 5.20386 8.29174 5.26423 8.14708 5.28375C8.11129 5.2891 8.07518 5.29169 8.03901 5.29149H5.43659C5.22297 5.29149 5.01814 5.204 4.86709 5.04827C4.71605 4.89253 4.6311 4.68131 4.6311 4.46107C4.6311 4.24082 4.71605 4.02959 4.86709 3.87385C5.01814 3.71811 5.22297 3.63063 5.43659 3.63063H8.03901C8.07518 3.63043 8.11129 3.63303 8.14708 3.63839C8.34024 3.66539 8.51724 3.76377 8.64533 3.91527C8.77342 4.06676 8.84386 4.26105 8.84346 4.46203Z" fill="#5E7360"/>
<path d="M12.0965 2.26038H4.19633C4.0098 2.26063 3.83103 2.33721 3.69923 2.47329C3.56742 2.60937 3.49341 2.79383 3.49341 2.98615V9.57532L8.14643 11.8903L12.7986 9.57532V2.98615C12.7986 2.79399 12.7247 2.60968 12.5931 2.47363C12.4615 2.33758 12.2829 2.26089 12.0965 2.26038ZM4.8646 3.87472C4.93933 3.79753 5.0281 3.7363 5.12583 3.69456C5.22357 3.65282 5.32831 3.63139 5.4341 3.6315H8.03652C8.073 3.63125 8.10941 3.63384 8.14551 3.63925C8.2943 3.65985 8.43457 3.72298 8.55038 3.82148C8.66619 3.91998 8.75291 4.04992 8.80082 4.19661C8.84874 4.3433 8.8559 4.50089 8.82147 4.65155C8.78704 4.80221 8.71241 4.93993 8.60602 5.04914C8.58538 5.07062 8.56346 5.0907 8.54028 5.10923C8.42681 5.20377 8.29017 5.26412 8.14551 5.28364C8.10941 5.28904 8.073 5.29162 8.03652 5.29139H5.4388C5.2795 5.29139 5.12383 5.24269 4.99137 5.15144C4.85892 5.06019 4.75566 4.93049 4.69469 4.77875C4.63373 4.62701 4.61773 4.46004 4.6488 4.29895C4.67988 4.13786 4.75666 3.98988 4.86931 3.87375L4.8646 3.87472ZM11.3015 7.9445C11.2268 8.0217 11.138 8.08293 11.0403 8.12467C10.9425 8.1664 10.8377 8.18782 10.7319 8.18771H5.4388C5.33065 8.19152 5.22282 8.17286 5.12182 8.13281C5.02081 8.09277 4.92876 8.03218 4.85095 7.95465C4.77314 7.87711 4.71126 7.78422 4.669 7.68151C4.62673 7.5788 4.60487 7.46837 4.60487 7.3568C4.60487 7.24523 4.62673 7.1348 4.669 7.03209C4.71126 6.92938 4.77314 6.8365 4.85095 6.75897C4.92876 6.68144 5.02081 6.62084 5.12182 6.5808C5.22282 6.54076 5.33065 6.52208 5.4388 6.52589H10.7357C10.8952 6.52569 11.0511 6.57433 11.1838 6.66563C11.3164 6.75692 11.4198 6.88677 11.4808 7.03872C11.5418 7.19066 11.5577 7.35785 11.5265 7.5191C11.4952 7.68036 11.4181 7.82842 11.3052 7.9445H11.3015Z" fill="white"/>
<path d="M11.5391 7.36095C11.5391 7.58145 11.4543 7.79294 11.303 7.94886C11.1518 8.10478 10.9467 8.19236 10.7328 8.19236H5.43599C5.32784 8.19616 5.22 8.17751 5.119 8.13747C5.018 8.09743 4.92583 8.03684 4.84802 7.9593C4.77021 7.88177 4.70833 7.78886 4.66607 7.68615C4.6238 7.58344 4.60205 7.47302 4.60205 7.36145C4.60205 7.24988 4.6238 7.13943 4.66607 7.03672C4.70833 6.93401 4.77021 6.84113 4.84802 6.7636C4.92583 6.68606 5.018 6.62547 5.119 6.58543C5.22 6.54539 5.32784 6.52671 5.43599 6.53051H10.7328C10.9465 6.53051 11.1515 6.61797 11.3027 6.77368C11.4539 6.92939 11.5389 7.14061 11.5391 7.36095Z" fill="#5E7360"/>
</svg>
