<svg width="24" height="24" viewBox="0 0 24 24" fill="none" xmlns="http://www.w3.org/2000/svg">
<path d="M11.9999 16.8C11.6835 16.8 11.3741 16.8938 11.111 17.0696C10.8479 17.2455 10.6428 17.4953 10.5217 17.7877C10.4006 18.0801 10.3689 18.4018 10.4306 18.7121C10.4924 19.0225 10.6448 19.3076 10.8685 19.5314C11.0923 19.7551 11.3774 19.9075 11.6878 19.9693C11.9981 20.031 12.3198 19.9993 12.6122 19.8782C12.9046 19.7571 13.1544 19.552 13.3303 19.2889C13.5061 19.0258 13.5999 18.7164 13.5999 18.4C13.5999 18.1899 13.5585 17.9818 13.4781 17.7877C13.3977 17.5936 13.2798 17.4172 13.1313 17.2686C12.9827 17.1201 12.8063 17.0022 12.6122 16.9218C12.4181 16.8414 12.21 16.8 11.9999 16.8ZM11.9999 10.4C11.6835 10.4 11.3741 10.4938 11.111 10.6696C10.8479 10.8455 10.6428 11.0953 10.5217 11.3877C10.4006 11.6801 10.3689 12.0018 10.4306 12.3121C10.4924 12.6225 10.6448 12.9076 10.8685 13.1314C11.0923 13.3551 11.3774 13.5075 11.6878 13.5693C11.9981 13.631 12.3198 13.5993 12.6122 13.4782C12.9046 13.3571 13.1544 13.152 13.3303 12.8889C13.5061 12.6258 13.5999 12.3165 13.5999 12C13.5999 11.5757 13.4313 11.1687 13.1313 10.8686C12.8312 10.5686 12.4243 10.4 11.9999 10.4ZM11.9999 4C11.6835 4 11.3741 4.09384 11.111 4.26965C10.8479 4.44546 10.6428 4.69534 10.5217 4.98771C10.4006 5.28007 10.3689 5.60178 10.4306 5.91214C10.4924 6.22251 10.6448 6.50761 10.8685 6.73137C11.0923 6.95513 11.3774 7.10752 11.6878 7.16926C11.9981 7.23099 12.3198 7.19931 12.6122 7.07821C12.9046 6.95711 13.1544 6.75203 13.3303 6.48891C13.5061 6.22579 13.5999 5.91645 13.5999 5.6C13.5999 5.17565 13.4313 4.76869 13.1313 4.46863C12.8312 4.16857 12.4243 4 11.9999 4V4Z" fill="#5E7360"/>
</svg>
