<svg xmlns="http://www.w3.org/2000/svg" width="199.291" height="177" viewBox="0 0 199.291 177"><g transform="translate(2.078)"><g transform="translate(67.385 55.466)"><path d="M375.141,0a33.606,33.606,0,1,0,.006,0Z" transform="translate(-341.51 0)" fill="#27ae60"/></g><path d="M-2260.1,350.718s-5.455,9.662-18.857,8.727-15.583-14.96-11.22-16.518a8.741,8.741,0,0,1,10.442,4.052c1.87,3.272,3.116,14.337-3.273,20.258s-19.946,6.857-26.8,2.338" transform="translate(2309.807 -243.555)" fill="none" stroke="#bd996c" stroke-linecap="round" stroke-width="3"/><path d="M-1918.131,152.649s19.043,1.418,20.461-17.827,14.991-11.75,14.991-11.75" transform="translate(2077.855 -107.296)" fill="none" stroke="#b04222" stroke-linecap="round" stroke-width="3"/><path d="M-1940.006,441.594s13.978,3.646,15.8,20.056" transform="translate(2101.707 -304.04)" fill="none" stroke="#d7a946" stroke-linecap="round" stroke-width="3"/><circle cx="7.314" cy="7.314" r="7.314" transform="translate(70.053)" fill="#d7a946"/><circle cx="7.314" cy="7.314" r="7.314" transform="translate(22.315 48.48)" fill="#a23852"/><circle cx="7.314" cy="7.314" r="7.314" transform="translate(181.226 74.603)" fill="#4f3e3b"/><circle cx="7.314" cy="7.314" r="7.314" transform="translate(127.102 162.372)" fill="#808957"/><circle cx="7.314" cy="7.314" r="7.314" transform="translate(55.424 144.818)" fill="#b04222"/><circle cx="3.657" cy="3.657" r="3.657" transform="translate(99.266 150.663)" fill="#e3e5da"/><circle cx="3.657" cy="3.657" r="3.657" transform="translate(112.474 19.016)" fill="#4f3e3b"/><path d="M31,5.991a1.69,1.69,0,0,0-1.162.512L12.449,23.894,6.884,18.33a1.69,1.69,0,1,0-2.39,2.39l6.759,6.759a1.69,1.69,0,0,0,2.389,0L32.23,8.891A1.69,1.69,0,0,0,31,5.991Z" transform="translate(84.394 71.616)" fill="#fff"/></g></svg>