<svg width="21" height="20" viewBox="0 0 21 20" fill="none" xmlns="http://www.w3.org/2000/svg">
<path d="M15.9935 15.1094C16.0679 15.1094 16.1393 15.0798 16.192 15.0272C16.2446 14.9746 16.2742 14.9032 16.2742 14.8287V11.6181C16.2741 11.5551 16.2527 11.494 16.2137 11.4446L15.0403 9.96274V8.71798C15.0403 8.37601 14.9045 8.04804 14.6627 7.80624C14.4208 7.56443 14.0929 7.42858 13.7509 7.42858H13.5853V7.16574C13.5847 6.9265 13.5343 6.69001 13.4371 6.4714C13.3399 6.25279 13.1982 6.05687 13.0209 5.89618C12.9419 5.82451 12.8788 5.73709 12.8355 5.63956C12.7923 5.54202 12.77 5.43652 12.77 5.32984V5.07394H12.9941C13.0686 5.07394 13.14 5.04437 13.1926 4.99173C13.2453 4.93909 13.2748 4.8677 13.2748 4.79325V3.2797C13.2747 3.24284 13.2673 3.20637 13.2531 3.17236C13.2389 3.13836 13.2181 3.10749 13.1919 3.08151C13.1658 3.05554 13.1347 3.03497 13.1006 3.02099C13.0665 3.007 13.03 2.99987 12.9931 3H8.05972C7.98528 3 7.91389 3.02957 7.86125 3.08221C7.80861 3.13485 7.77903 3.20625 7.77903 3.28069V4.79325C7.77903 4.8677 7.80861 4.93909 7.86125 4.99173C7.91389 5.04437 7.98528 5.07394 8.05972 5.07394H8.28388V5.30108C8.28374 5.41561 8.25771 5.52863 8.20772 5.63169C8.15774 5.73474 8.08511 5.82516 7.99525 5.89618L7.72845 6.10844C7.52852 6.26606 7.3664 6.46644 7.25398 6.69487C7.14157 6.9233 7.08171 7.174 7.07879 7.42858H7.02226C6.68029 7.42858 6.35232 7.56443 6.11052 7.80624C5.86871 8.04804 5.73286 8.37601 5.73286 8.71798V9.96274L4.5605 11.4436C4.52121 11.4933 4.49989 11.5548 4.5 11.6181V17.0733C4.5 17.1477 4.52957 17.2191 4.58221 17.2717C4.63485 17.3244 4.70625 17.354 4.78069 17.354H15.9885C16.0599 17.3497 16.1271 17.3183 16.1761 17.2662C16.2252 17.2142 16.2525 17.1453 16.2525 17.0738C16.2525 17.0022 16.2252 16.9333 16.1761 16.8813C16.1271 16.8292 16.0599 16.7978 15.9885 16.7936H5.06039V11.7153L6.14646 10.3396H14.6267L15.7078 11.7153V14.8287C15.7078 14.9032 15.7374 14.9746 15.79 15.0272C15.8427 15.0798 15.9141 15.1094 15.9885 15.1094H15.9935ZM8.34042 3.56039H12.7135V4.51355H8.34042V3.56039ZM7.63918 7.45536C7.63885 7.28131 7.67805 7.10945 7.75382 6.95276C7.82959 6.79607 7.93996 6.65862 8.07659 6.5508L8.34339 6.33854C8.50021 6.21496 8.62687 6.05735 8.71382 5.87761C8.80076 5.69788 8.84571 5.50073 8.84526 5.30108V5.07394H12.2086V5.33083C12.2087 5.51582 12.2475 5.69875 12.3224 5.86785C12.3974 6.03696 12.507 6.18851 12.644 6.31276C12.7636 6.42121 12.8592 6.55347 12.9246 6.70106C12.99 6.84864 13.0238 7.00828 13.0239 7.16971V7.42957H12.0122C11.9754 7.42957 11.9389 7.43683 11.9048 7.45094C11.8707 7.46504 11.8398 7.48572 11.8137 7.51178C11.7877 7.53785 11.767 7.56879 11.7529 7.60285C11.7388 7.6369 11.7315 7.6734 11.7315 7.71026V8.48489C11.7315 8.53198 11.7128 8.57714 11.6795 8.61043C11.6462 8.64373 11.6011 8.66243 11.554 8.66243H11.1245V7.98004C11.1268 7.94185 11.1212 7.90359 11.1082 7.86762C11.0951 7.83165 11.0749 7.79872 11.0486 7.77087C11.0224 7.74302 10.9907 7.72083 10.9556 7.70567C10.9205 7.6905 10.8826 7.68267 10.8443 7.68267C10.8061 7.68267 10.7682 7.6905 10.7331 7.70567C10.6979 7.72083 10.6663 7.74302 10.64 7.77087C10.6138 7.79872 10.5935 7.83165 10.5805 7.86762C10.5674 7.90359 10.5619 7.94185 10.5641 7.98004V8.66243H9.92538V7.98004C9.92765 7.94185 9.92209 7.90359 9.90904 7.86762C9.89599 7.83165 9.87572 7.79872 9.84948 7.77087C9.82323 7.74302 9.79157 7.72083 9.75644 7.70567C9.72131 7.6905 9.68345 7.68267 9.64519 7.68267C9.60692 7.68267 9.56906 7.6905 9.53393 7.70567C9.4988 7.72083 9.46714 7.74302 9.4409 7.77087C9.41465 7.79872 9.39438 7.83165 9.38133 7.86762C9.36828 7.90359 9.36272 7.94185 9.36499 7.98004V8.66243H8.72624V7.98004C8.72852 7.94185 8.72296 7.90359 8.7099 7.86762C8.69685 7.83165 8.67658 7.79872 8.65034 7.77087C8.6241 7.74302 8.59244 7.72083 8.55731 7.70567C8.52217 7.6905 8.48431 7.68267 8.44605 7.68267C8.40778 7.68267 8.36992 7.6905 8.33479 7.70567C8.29966 7.72083 8.268 7.74302 8.24176 7.77087C8.21552 7.79872 8.19525 7.83165 8.18219 7.86762C8.16914 7.90359 8.16358 7.94185 8.16585 7.98004V8.66243H7.81672C7.76964 8.66243 7.72448 8.64373 7.69118 8.61043C7.65789 8.57714 7.63918 8.53198 7.63918 8.48489V7.45536ZM14.4829 9.78321H6.29424V8.71798C6.29451 8.52471 6.3714 8.33944 6.50805 8.20278C6.64471 8.06612 6.82999 7.98923 7.02325 7.98897H7.07879V8.48489C7.07869 8.55991 7.09007 8.6345 7.11251 8.70607C7.06057 8.73812 7.02053 8.78628 6.9985 8.84321C6.97648 8.90014 6.97368 8.9627 6.99054 9.02137C7.0074 9.08003 7.04299 9.13157 7.09187 9.16813C7.14075 9.20468 7.20025 9.22424 7.26129 9.22382H13.5099C13.5813 9.21956 13.6484 9.18819 13.6975 9.13611C13.7466 9.08403 13.7739 9.01518 13.7739 8.94362C13.7739 8.87206 13.7466 8.80321 13.6975 8.75113C13.6484 8.69905 13.5813 8.66768 13.5099 8.66342H12.2711C12.2856 8.60535 12.2929 8.54573 12.2929 8.48588V7.98996H13.7509C13.9442 7.99023 14.1295 8.06711 14.2661 8.20377C14.4028 8.34043 14.4797 8.5257 14.4799 8.71897L14.4829 9.78321Z" fill="black"/>
<path d="M10.3862 10.8455C10.3118 10.8455 10.2404 10.875 10.1877 10.9277C10.1351 10.9803 10.1055 11.0517 10.1055 11.1261V11.2075C9.28217 11.2764 8.51186 11.6419 7.93775 12.2361C7.36364 12.8303 7.02479 13.6127 6.98418 14.4379H6.51702C6.44258 14.4379 6.37118 14.4675 6.31854 14.5201C6.2659 14.5728 6.23633 14.6442 6.23633 14.7186C6.23685 15.1199 6.39649 15.5045 6.68022 15.7883C6.96395 16.072 7.34862 16.2316 7.74988 16.2322H13.0195C13.4208 16.2316 13.8055 16.072 14.0892 15.7883C14.3729 15.5045 14.5326 15.1199 14.5331 14.7186C14.5331 14.6442 14.5035 14.5728 14.4509 14.5201C14.3982 14.4675 14.3268 14.4379 14.2524 14.4379H13.7852C13.7446 13.6127 13.4058 12.8303 12.8317 12.2361C12.2576 11.6419 11.4873 11.2764 10.6639 11.2075V11.1261C10.6639 11.0517 10.6343 10.9803 10.5817 10.9277C10.5291 10.875 10.4577 10.8455 10.3832 10.8455H10.3862ZM13.0215 15.6708H7.75087C7.54707 15.6706 7.34868 15.6052 7.18468 15.4842C7.02068 15.3632 6.89968 15.193 6.83937 14.9983H13.931C13.8708 15.1928 13.7499 15.363 13.5861 15.4839C13.4223 15.6049 13.2242 15.6704 13.0205 15.6708H13.0215ZM13.2268 14.4369H7.54556C7.58626 13.7112 7.90322 13.0286 8.43139 12.5292C8.95955 12.0298 9.65884 11.7516 10.3857 11.7516C11.1126 11.7516 11.8119 12.0298 12.34 12.5292C12.8682 13.0286 13.1851 13.7112 13.2258 14.4369H13.2268Z" fill="black"/>
<path d="M15.9938 15.6709C15.9289 15.6708 15.8659 15.6933 15.8157 15.7345C15.7655 15.7756 15.731 15.833 15.7183 15.8966C15.7056 15.9603 15.7154 16.0264 15.746 16.0837C15.7765 16.141 15.826 16.1859 15.886 16.2108C15.946 16.2357 16.0127 16.2391 16.0749 16.2202C16.137 16.2014 16.1908 16.1616 16.2269 16.1077C16.263 16.0537 16.2793 15.9889 16.2729 15.9242C16.2666 15.8596 16.2381 15.7992 16.1922 15.7532C16.1395 15.7008 16.0682 15.6712 15.9938 15.6709Z" fill="black"/>
</svg>
