<svg width="497" height="98" viewBox="0 0 497 98" fill="none" xmlns="http://www.w3.org/2000/svg">
<path d="M491 0H6C2.68629 0 0 2.68629 0 6V92C0 95.3137 2.68629 98 6 98H491C494.314 98 497 95.3137 497 92V6C497 2.68629 494.314 0 491 0Z" fill="#4F3E3B"/>
<path d="M491 0.5H6C2.96243 0.5 0.5 2.96243 0.5 6V92C0.5 95.0376 2.96243 97.5 6 97.5H491C494.038 97.5 496.5 95.0376 496.5 92V6C496.5 2.96243 494.038 0.5 491 0.5Z" stroke="#E9E9E9"/>
<path d="M447.69 50.3219L448.67 56.0279L443.544 53.3339L438.418 56.0279L439.396 50.3219L435.251 46.2789L440.982 45.4459L443.544 40.2539L446.106 45.4459L451.835 46.2789L447.69 50.3219Z" fill="#D89D1D"/>
<path d="M443.543 36.3496C441.066 36.3482 438.645 37.0814 436.585 38.4563C434.525 39.8313 432.919 41.7863 431.97 44.074C431.022 46.3617 430.773 48.8794 431.255 51.3086C431.738 53.7377 432.93 55.9692 434.681 57.7208C436.432 59.4724 438.663 60.6653 441.092 61.1488C443.521 61.6322 446.038 61.3844 448.327 60.4367C450.615 59.489 452.57 57.8839 453.946 55.8246C455.322 53.7653 456.056 51.3442 456.056 48.8676C456.055 45.5487 454.737 42.3657 452.39 40.0184C450.044 37.6711 446.862 36.3515 443.543 36.3496ZM443.543 59.4776C441.443 59.4782 439.39 58.856 437.644 57.6896C435.898 56.5233 434.537 54.8652 433.733 52.9253C432.929 50.9853 432.719 48.8505 433.129 46.791C433.539 44.7315 434.55 42.8398 436.035 41.3553C437.52 39.8707 439.412 38.86 441.472 38.4509C443.532 38.0419 445.666 38.2529 447.606 39.0574C449.546 39.8618 451.203 41.2234 452.369 42.97C453.535 44.7166 454.156 46.7697 454.155 48.8696C454.153 51.6832 453.034 54.3809 451.044 56.37C449.054 58.3591 446.356 59.4768 443.543 59.4776Z" fill="#E6B750"/>
<path d="M443.545 38.248C441.445 38.2475 439.393 38.8693 437.647 40.0351C435.901 41.2008 434.54 42.858 433.736 44.7972C432.932 46.7363 432.721 48.8704 433.13 50.9295C433.539 52.9886 434.549 54.8803 436.032 56.3654C437.516 57.8506 439.407 58.8624 441.465 59.273C443.524 59.6836 445.658 59.4746 447.598 58.6723C449.538 57.8701 451.197 56.5106 452.364 54.7658C453.532 53.0211 454.155 50.9693 454.157 48.87C454.158 47.4757 453.884 46.0949 453.351 44.8064C452.818 43.5179 452.037 42.347 451.051 41.3606C450.066 40.3742 448.896 39.5917 447.608 39.0576C446.32 38.5235 444.939 38.2484 443.545 38.248ZM443.545 58.619C441.615 58.6194 439.728 58.0474 438.123 56.9754C436.519 55.9033 435.268 54.3793 434.529 52.5963C433.791 50.8132 433.598 48.8512 433.974 46.9584C434.351 45.0656 435.281 43.3271 436.646 41.9627C438.011 40.5984 439.75 39.6696 441.643 39.2938C443.536 38.918 445.498 39.1121 447.281 39.8515C449.063 40.5909 450.587 41.8425 451.658 43.4478C452.729 45.0531 453.3 46.9401 453.299 48.87C453.297 51.4559 452.268 53.9353 450.44 55.7633C448.611 57.5914 446.131 58.6185 443.545 58.619Z" fill="#D89D1D"/>
<path d="M443.542 39.1094C441.613 39.109 439.727 39.6807 438.122 40.7522C436.517 41.8238 435.267 43.347 434.528 45.1294C433.789 46.9117 433.595 48.8731 433.971 50.7656C434.347 52.6581 435.275 54.3966 436.639 55.7614C438.003 57.1262 439.741 58.056 441.633 58.4332C443.525 58.8103 445.487 58.618 447.27 57.8804C449.053 57.1428 450.577 55.8931 451.649 54.2894C452.722 52.6856 453.295 50.7998 453.296 48.8704C453.297 47.5889 453.045 46.3199 452.555 45.1358C452.065 43.9517 451.347 42.8757 450.441 41.9693C449.535 41.0629 448.46 40.3438 447.276 39.8531C446.092 39.3623 444.824 39.1096 443.542 39.1094ZM448.465 55.7184L443.542 53.1304L438.618 55.7184L439.558 50.2324L435.574 46.3524L441.08 45.5524L443.542 40.5714L446.004 45.5594L451.504 46.3594L447.522 50.2364L448.465 55.7184Z" fill="#E6B750"/>
<path d="M422.163 55.3512C421.405 56.4869 420.348 57.3913 419.109 57.9647C417.869 58.5381 416.496 58.7584 415.139 58.6012C410.147 58.2532 409.339 53.0292 410.96 52.4482C411.683 52.2045 412.468 52.222 413.179 52.4977C413.89 52.7735 414.481 53.29 414.85 53.9572C415.55 55.1762 416.011 59.2972 413.631 61.5032C411.251 63.7092 406.202 64.0572 403.647 62.3742" stroke="#BD996C" stroke-width="3" stroke-linecap="round"/>
<path d="M460.872 32.1926C460.872 32.1926 467.965 32.7206 468.493 25.5526C469.021 18.3846 474.077 21.1756 474.077 21.1756" stroke="#B04222" stroke-width="3" stroke-linecap="round"/>
<path d="M461.608 67.3086C463.219 67.8302 464.639 68.8188 465.687 70.1488C466.735 71.4789 467.364 73.0903 467.494 74.7786" stroke="#D7A946" stroke-width="3" stroke-linecap="round"/>
<path d="M430.196 20.7468C431.7 20.7468 432.92 19.5273 432.92 18.0228C432.92 16.5184 431.7 15.2988 430.196 15.2988C428.691 15.2988 427.472 16.5184 427.472 18.0228C427.472 19.5273 428.691 20.7468 430.196 20.7468Z" fill="#D7A946"/>
<path d="M416.575 41.7175C418.079 41.7175 419.299 40.498 419.299 38.9935C419.299 37.4891 418.079 36.2695 416.575 36.2695C415.07 36.2695 413.851 37.4891 413.851 38.9935C413.851 40.498 415.07 41.7175 416.575 41.7175Z" fill="#A23852"/>
<path d="M471.605 48.8894C473.109 48.8894 474.329 47.6698 474.329 46.1654C474.329 44.661 473.109 43.4414 471.605 43.4414C470.1 43.4414 468.881 44.661 468.881 46.1654C468.881 47.6698 470.1 48.8894 471.605 48.8894Z" fill="#4F3E3B"/>
<path d="M451.446 82.0007C452.95 82.0007 454.17 80.7812 454.17 79.2767C454.17 77.7723 452.95 76.5527 451.446 76.5527C449.941 76.5527 448.722 77.7723 448.722 79.2767C448.722 80.7812 449.941 82.0007 451.446 82.0007Z" fill="#808957"/>
<path d="M424.746 75.4617C426.251 75.4617 427.47 74.2421 427.47 72.7377C427.47 71.2332 426.251 70.0137 424.746 70.0137C423.242 70.0137 422.022 71.2332 422.022 72.7377C422.022 74.2421 423.242 75.4617 424.746 75.4617Z" fill="#B04222"/>
<path d="M443.546 75.4623C444.298 75.4623 444.908 74.8525 444.908 74.1003C444.908 73.3481 444.298 72.7383 443.546 72.7383C442.793 72.7383 442.184 73.3481 442.184 74.1003C442.184 74.8525 442.793 75.4623 443.546 75.4623Z" fill="#E3E5DA"/>
<path d="M444.634 25.1049C445.387 25.1049 445.996 24.4951 445.996 23.7429C445.996 22.9906 445.387 22.3809 444.634 22.3809C443.882 22.3809 443.272 22.9906 443.272 23.7429C443.272 24.4951 443.882 25.1049 444.634 25.1049Z" fill="#4F3E3B"/>
</svg>
