<svg width="22" height="17" viewBox="0 0 22 17" fill="none" xmlns="http://www.w3.org/2000/svg">
<g clip-path="url(#clip0)">
<path d="M9.32487 15.616C9.226 15.6155 9.13005 15.6494 9.05338 15.7119C8.97671 15.7743 8.92408 15.8614 8.90447 15.9583C8.88487 16.0552 8.89951 16.1559 8.94588 16.2433C8.99226 16.3306 9.06751 16.3991 9.15878 16.4371C9.25004 16.4751 9.35167 16.4803 9.44633 16.4518C9.54099 16.4232 9.62281 16.3627 9.67782 16.2805C9.73283 16.1984 9.75762 16.0997 9.74796 16.0013C9.73831 15.9029 9.6948 15.8109 9.62487 15.741C9.54507 15.6617 9.43737 15.6168 9.32487 15.616Z" fill="white"/>
<path d="M17.8242 8.45198L16.8302 3.95998C17.0925 3.92414 17.3321 3.79188 17.5022 3.58898C17.7051 3.71602 17.9398 3.78326 18.1792 3.78298H19.0322C19.1454 3.78298 19.2541 3.73799 19.3341 3.65791C19.4142 3.57783 19.4592 3.46922 19.4592 3.35598V1.64998C19.4592 1.53673 19.4142 1.42812 19.3341 1.34804C19.2541 1.26796 19.1454 1.22298 19.0322 1.22298H18.1792C17.9328 1.22298 17.6917 1.29454 17.4852 1.42898C17.3852 1.31532 17.2622 1.22431 17.1242 1.16206C16.9862 1.0998 16.8366 1.06772 16.6852 1.06798H14.1672C13.952 1.06828 13.7418 1.13367 13.5644 1.25557C13.387 1.37746 13.2507 1.55016 13.1732 1.75098H12.1612C12.0155 1.75098 11.8712 1.77967 11.7366 1.83543C11.602 1.89119 11.4797 1.97291 11.3767 2.07594C11.2736 2.17897 11.1919 2.30128 11.1362 2.43589C11.0804 2.5705 11.0517 2.71477 11.0517 2.86048C11.0517 3.00618 11.0804 3.15045 11.1362 3.28506C11.1919 3.41967 11.2736 3.54198 11.3767 3.64501C11.4797 3.74804 11.602 3.82976 11.7366 3.88552C11.8712 3.94128 12.0155 3.96998 12.1612 3.96998H14.3612V4.82998C14.3584 4.88772 14.3674 4.94544 14.3875 4.99962C14.4077 5.0538 14.4387 5.10332 14.4785 5.14517C14.5184 5.18703 14.5664 5.22036 14.6195 5.24312C14.6727 5.26589 14.7299 5.27763 14.7877 5.27763C14.8455 5.27763 14.9027 5.26589 14.9559 5.24312C15.009 5.22036 15.057 5.18703 15.0968 5.14517C15.1367 5.10332 15.1677 5.0538 15.1879 4.99962C15.208 4.94544 15.217 4.88772 15.2142 4.82998V3.96998H15.9612L17.0322 8.80998L15.0002 12.42C14.8912 12.6131 14.7328 12.7739 14.5413 12.8858C14.3498 12.9977 14.132 13.0568 13.9102 13.057H8.8512C8.74526 12.1871 8.32479 11.386 7.66903 10.8046C7.01328 10.2233 6.16753 9.90187 5.2912 9.90098C4.48836 9.89808 3.70825 10.1674 3.0782 10.665C2.70695 10.9551 2.39693 11.316 2.16606 11.7268C1.9352 12.1375 1.78807 12.59 1.7332 13.058H0.854197C0.882965 11.5787 1.49014 10.1696 2.54556 9.13264C3.60098 8.09573 5.02064 7.51357 6.5002 7.51098H9.5302C9.64513 7.51124 9.75526 7.55708 9.83644 7.63844C9.91761 7.71981 9.9632 7.83005 9.9632 7.94498V11.777C9.9632 11.8902 10.0082 11.9988 10.0883 12.0789C10.1683 12.159 10.2769 12.204 10.3902 12.204H12.6612C13.3357 12.204 13.9825 11.9363 14.4597 11.4596C14.9369 10.983 15.2054 10.3364 15.2062 9.66198V8.24398C15.2062 8.1309 15.1613 8.02244 15.0815 7.9424C15.0016 7.86235 14.8933 7.81724 14.7802 7.81698C14.6671 7.81698 14.5587 7.86183 14.4786 7.94169C14.3986 8.02155 14.3535 8.1299 14.3532 8.24298V9.66098C14.3531 9.88304 14.3092 10.1029 14.2241 10.308C14.139 10.5131 14.0143 10.6995 13.8572 10.8564C13.7001 11.0133 13.5136 11.1378 13.3084 11.2226C13.1032 11.3075 12.8833 11.3511 12.6612 11.351H10.8172V7.94498C10.8172 7.73386 10.765 7.52602 10.6652 7.33998C10.9093 7.19928 11.1002 6.98198 11.2082 6.72175C11.3162 6.46153 11.3354 6.17293 11.2627 5.90072C11.19 5.6285 11.0295 5.38788 10.8061 5.21616C10.5828 5.04444 10.309 4.95123 10.0272 4.95098H8.4702C8.32474 4.95076 8.18032 4.97545 8.0432 5.02398V1.28098C8.04267 0.941662 7.90764 0.616396 7.66771 0.376464C7.42778 0.136532 7.10251 0.0015055 6.7632 0.000976562H4.0102C3.05688 0.00228849 2.13511 0.342599 1.40964 0.961075C0.684179 1.57955 0.202318 2.43588 0.050197 3.37698C0.0374544 3.4171 0.0307149 3.45888 0.030197 3.50098C0.030197 3.50098 0.030197 3.50598 0.030197 3.50898C0.00975597 3.67552 -0.000263536 3.84318 0.000196991 4.01098V6.23098C-0.000428179 6.53799 0.109144 6.83503 0.30899 7.06809C0.508836 7.30115 0.785684 7.45476 1.0892 7.50098L2.0342 8.44598C1.39195 9.05217 0.880272 9.78314 0.530517 10.5941C0.180762 11.405 0.000301449 12.2788 0.000196991 13.162V13.485C0.000196991 13.5982 0.0451844 13.7068 0.125262 13.7869C0.20534 13.867 0.31395 13.912 0.427197 13.912H2.8272C2.82142 13.9399 2.81841 13.9684 2.8182 13.997C2.81799 14.5926 3.03364 15.1681 3.4252 15.617H0.425197C0.367451 15.6142 0.309738 15.6231 0.255557 15.6433C0.201377 15.6635 0.151856 15.6944 0.109999 15.7343C0.0681409 15.7742 0.0348175 15.8222 0.0120485 15.8753C-0.0107206 15.9285 -0.0224609 15.9857 -0.0224609 16.0435C-0.0224609 16.1013 -0.0107206 16.1585 0.0120485 16.2116C0.0348175 16.2648 0.0681409 16.3127 0.109999 16.3526C0.151856 16.3925 0.201377 16.4235 0.255557 16.4436C0.309738 16.4638 0.367451 16.4728 0.425197 16.47H5.2912C5.94633 16.4692 6.57449 16.209 7.0383 15.7463C7.50211 15.2836 7.76382 14.6561 7.7662 14.001C7.76599 13.9724 7.76297 13.9439 7.7572 13.916H13.9112C14.2406 13.9156 14.5653 13.8381 14.8593 13.6896C15.1533 13.5412 15.4084 13.3258 15.6042 13.061H16.1442C15.9698 13.4847 15.9168 13.9486 15.9912 14.4008C16.0655 14.8529 16.2643 15.2754 16.5652 15.621H11.0322C10.9227 15.6263 10.8194 15.6735 10.7437 15.7529C10.6681 15.8323 10.6259 15.9378 10.6259 16.0475C10.6259 16.1571 10.6681 16.2626 10.7437 16.342C10.8194 16.4214 10.9227 16.4687 11.0322 16.474H18.4322C18.8386 16.4741 19.2388 16.3742 19.5974 16.1829C19.956 15.9917 20.2619 15.715 20.4882 15.3774C20.7145 15.0399 20.8541 14.6517 20.8947 14.2474C20.9354 13.843 20.8758 13.4348 20.7212 13.059H21.4212C21.5344 13.059 21.6431 13.014 21.7231 12.9339C21.8032 12.8538 21.8482 12.7452 21.8482 12.632C21.8469 11.5508 21.4273 10.512 20.6771 9.73335C19.927 8.95469 18.9046 8.49657 17.8242 8.45498V8.45198ZM8.4702 5.80098H10.0282C10.1377 5.80628 10.241 5.85353 10.3167 5.93294C10.3923 6.01234 10.4345 6.11781 10.4345 6.22748C10.4345 6.33715 10.3923 6.44261 10.3167 6.52202C10.241 6.60142 10.1377 6.64867 10.0282 6.65398H8.4702C8.36065 6.64867 8.25735 6.60142 8.1817 6.52202C8.10605 6.44261 8.06386 6.33715 8.06386 6.22748C8.06386 6.11781 8.10605 6.01234 8.1817 5.93294C8.25735 5.85353 8.36065 5.80628 8.4702 5.80098ZM0.853197 4.01098C0.853197 3.98498 0.853197 3.95798 0.853197 3.93198H5.5252C5.63474 3.92667 5.73804 3.87942 5.81369 3.80002C5.88934 3.72061 5.93154 3.61515 5.93154 3.50548C5.93154 3.39581 5.88934 3.29034 5.81369 3.21094C5.73804 3.13153 5.63474 3.08428 5.5252 3.07898H0.994197C1.19414 2.43508 1.5946 1.87192 2.13716 1.47166C2.67971 1.0714 3.33598 0.854982 4.0102 0.853977H6.7632C6.87644 0.853977 6.98505 0.898964 7.06513 0.979042C7.14521 1.05912 7.1902 1.16773 7.1902 1.28098V6.23098C7.1902 6.34422 7.14521 6.45283 7.06513 6.53291C6.98505 6.61299 6.87644 6.65798 6.7632 6.65798H1.2802C1.16695 6.65798 1.05834 6.61299 0.978262 6.53291C0.898184 6.45283 0.853197 6.34422 0.853197 6.23098V4.01098ZM2.3102 7.51098H3.2862C3.08174 7.62781 2.88378 7.75566 2.6932 7.89398L2.3102 7.51098ZM6.9102 13.996C6.9097 14.423 6.74094 14.8326 6.44051 15.136C6.14008 15.4394 5.73217 15.6122 5.3052 15.617H5.2422C4.82186 15.6038 4.42306 15.4279 4.12982 15.1265C3.83658 14.825 3.6718 14.4215 3.6702 14.001C3.66999 13.9724 3.66697 13.9439 3.6612 13.916H6.9212C6.91542 13.9439 6.91241 13.9724 6.9122 14.001L6.9102 13.996ZM2.5892 13.057C2.69521 12.3754 3.05668 11.7597 3.6002 11.335C4.07964 10.9564 4.6733 10.7516 5.2842 10.754C5.9349 10.7547 6.56408 10.9871 7.05888 11.4097C7.55368 11.8323 7.88173 12.4174 7.9842 13.06L2.5892 13.057ZM18.1782 2.07598H18.6002V2.92898H18.1732C18.0637 2.92367 17.9604 2.87642 17.8847 2.79702C17.8091 2.71761 17.7669 2.61215 17.7669 2.50248C17.7669 2.39281 17.8091 2.28734 17.8847 2.20794C17.9604 2.12853 18.0637 2.08128 18.1732 2.07598H18.1782ZM11.9052 2.85998C11.9052 2.79208 11.9322 2.72697 11.9802 2.67896C12.0282 2.63095 12.0933 2.60398 12.1612 2.60398H13.1012V2.90398C13.1011 2.97517 13.1082 3.04618 13.1222 3.11598H12.1612C12.0933 3.11598 12.0282 3.08901 11.9802 3.041C11.9322 2.99299 11.9052 2.92787 11.9052 2.85998ZM14.7842 3.11598H14.1662C14.1384 3.11598 14.1108 3.11049 14.0851 3.09984C14.0593 3.08918 14.036 3.07357 14.0163 3.05388C13.9966 3.0342 13.981 3.01083 13.9703 2.98511C13.9597 2.95938 13.9542 2.93182 13.9542 2.90398V2.13298C13.9542 2.07675 13.9765 2.02283 14.0163 1.98307C14.056 1.94331 14.11 1.92098 14.1662 1.92098H16.6852C16.7414 1.92098 16.7953 1.94331 16.8351 1.98307C16.8749 2.02283 16.8972 2.07675 16.8972 2.13298V2.90098C16.8972 2.9572 16.8749 3.01113 16.8351 3.05088C16.7953 3.09064 16.7414 3.11298 16.6852 3.11298L14.7842 3.11598ZM20.0562 14.001C20.0557 14.428 19.8869 14.8376 19.5865 15.141C19.2861 15.4444 18.8782 15.6172 18.4512 15.622H18.3852C18.0919 15.6131 17.8065 15.5249 17.5594 15.3665C17.3124 15.2082 17.1129 14.9858 16.9823 14.723C16.8518 14.4602 16.795 14.1669 16.818 13.8744C16.8411 13.5819 16.9431 13.3011 17.1132 13.062H19.7552C19.9506 13.3365 20.0554 13.6651 20.0552 14.002L20.0562 14.001ZM16.1002 12.201L17.7302 9.30098C18.5276 9.3168 19.2928 9.61818 19.8868 10.1503C20.4808 10.6825 20.8642 11.4101 20.9672 12.201H16.1002Z" fill="white"/>
<path d="M14.7851 6.9619C14.8428 6.96469 14.9005 6.95573 14.9547 6.93556C15.0089 6.91539 15.0584 6.88443 15.1003 6.84456C15.1421 6.80468 15.1754 6.75671 15.1982 6.70356C15.221 6.65042 15.2327 6.59321 15.2327 6.5354C15.2327 6.47758 15.221 6.42037 15.1982 6.36723C15.1754 6.31409 15.1421 6.26613 15.1003 6.22625C15.0584 6.18637 15.0089 6.15541 14.9547 6.13523C14.9005 6.11506 14.8428 6.1061 14.7851 6.1089C14.7273 6.1061 14.6696 6.11506 14.6154 6.13523C14.5612 6.15541 14.5117 6.18637 14.4698 6.22625C14.428 6.26613 14.3947 6.31409 14.3719 6.36723C14.3491 6.42037 14.3374 6.47758 14.3374 6.5354C14.3374 6.59321 14.3491 6.65042 14.3719 6.70356C14.3947 6.75671 14.428 6.80468 14.4698 6.84456C14.5117 6.88443 14.5612 6.91539 14.6154 6.93556C14.6696 6.95573 14.7273 6.96469 14.7851 6.9619Z" fill="white"/>
</g>
<defs>
<clipPath id="clip0">
<rect width="21.848" height="16.471" fill="white"/>
</clipPath>
</defs>
</svg>
