<svg width="18" height="18" viewBox="0 0 18 18" fill="none" xmlns="http://www.w3.org/2000/svg">
<path fill-rule="evenodd" clip-rule="evenodd" d="M4.56203 2.84009C5.588 2.15469 6.79418 1.78893 8.02802 1.78909C9.68236 1.78929 11.2689 2.44666 12.4386 3.61659C13.6083 4.78652 14.2655 6.3732 14.2655 8.02763C14.2655 9.26153 13.8996 10.4677 13.2141 11.4937C12.5286 12.5196 11.5543 13.3192 10.4143 13.7914C9.27439 14.2635 8.02005 14.387 6.80993 14.1462C5.59981 13.9055 4.48826 13.3112 3.61586 12.4387C2.74346 11.5661 2.14939 10.4544 1.90877 9.24423C1.66816 8.03402 1.79181 6.77963 2.26408 5.6397C2.73636 4.49977 3.53605 3.5255 4.56203 2.84009ZM8.02824 6.30883e-08C6.44056 -0.000198949 4.88848 0.470444 3.56828 1.35241C2.24807 2.23438 1.21905 3.48805 0.611329 4.95489C0.00361271 6.42173 -0.155497 8.03585 0.154122 9.59313C0.463741 11.1504 1.22818 12.5809 2.35077 13.7037C3.47336 14.8265 4.90367 15.5911 6.46083 15.9009C8.01799 16.2108 9.63205 16.0519 11.0989 15.4443C11.7697 15.1664 12.396 14.8005 12.9625 14.3588L16.4852 17.7499C16.8411 18.0926 17.4073 18.0818 17.7499 17.7258C18.0925 17.3699 18.0818 16.8036 17.7258 16.461L14.2426 13.1078C14.405 12.9091 14.5582 12.7022 14.7016 12.4876C15.5836 11.1675 16.0545 9.61539 16.0545 8.02763C16.0545 5.89875 15.2089 3.85704 13.7037 2.35159C12.1985 0.846151 10.157 0.000267165 8.02824 6.30883e-08Z" fill="#666666"/>
</svg>
