<svg width="19" height="18" viewBox="0 0 19 18" fill="none" xmlns="http://www.w3.org/2000/svg">
<path fill-rule="evenodd" clip-rule="evenodd" d="M5.08107 2.84009C6.10704 2.15469 7.31322 1.78893 8.54706 1.78909C10.2014 1.78929 11.7879 2.44666 12.9576 3.61659C14.1274 4.78652 14.7845 6.3732 14.7845 8.02763C14.7845 9.26153 14.4186 10.4677 13.7331 11.4937C13.0476 12.5196 12.0733 13.3192 10.9334 13.7914C9.79343 14.2635 8.53909 14.387 7.32897 14.1462C6.11885 13.9055 5.0073 13.3112 4.1349 12.4387C3.2625 11.5661 2.66843 10.4544 2.42781 9.24423C2.1872 8.03402 2.31085 6.77963 2.78313 5.6397C3.2554 4.49977 4.05509 3.5255 5.08107 2.84009ZM8.54728 6.30883e-08C6.9596 -0.000198949 5.40752 0.470444 4.08732 1.35241C2.76712 2.23438 1.73809 3.48805 1.13037 4.95489C0.522656 6.42173 0.363546 8.03585 0.673165 9.59313C0.982784 11.1504 1.74722 12.5809 2.86981 13.7037C3.9924 14.8265 5.42271 15.5911 6.97987 15.9009C8.53703 16.2108 10.1511 16.0519 11.6179 15.4443C12.2888 15.1664 12.915 14.8005 13.4816 14.3588L17.0042 17.7499C17.3601 18.0926 17.9264 18.0818 18.269 17.7258C18.6116 17.3699 18.6008 16.8036 18.2449 16.461L14.7617 13.1078C14.924 12.9091 15.0772 12.7022 15.2206 12.4876C16.1027 11.1675 16.5735 9.61539 16.5735 8.02763C16.5735 5.89875 15.7279 3.85704 14.2227 2.35159C12.7176 0.846151 10.6761 0.000267165 8.54728 6.30883e-08Z" fill="black"/>
</svg>
