<svg xmlns="http://www.w3.org/2000/svg" width="18.666" height="16.8" viewBox="0 0 18.666 16.8">
  <path id="icons8_shop" d="M4.8,3a.933.933,0,1,0,0,1.867H17.866a.933.933,0,1,0,0-1.867ZM4.539,6.733a.932.932,0,0,0-.886.638L2.047,12.189a.936.936,0,0,0-.047.3v.782a.934.934,0,0,0,.933.933v4.667a.933.933,0,0,0,.933.933h7.467a.933.933,0,0,0,.933-.933V14.2h5.6v4.667a.933.933,0,1,0,1.867,0V14.2a.934.934,0,0,0,.933-.933v-.782a.936.936,0,0,0-.047-.3L19.013,7.371a.932.932,0,0,0-.886-.638ZM4.8,14.2h5.6v3.733H4.8Z" transform="translate(-2 -3)" fill="#9d9d9d"/>
</svg>
