<svg width="19" height="17" viewBox="0 0 19 17" fill="none" xmlns="http://www.w3.org/2000/svg">
<path d="M2.80003 0C2.55258 0 2.31527 0.098298 2.1403 0.273269C1.96533 0.448241 1.86703 0.685553 1.86703 0.933C1.86703 1.18045 1.96533 1.41776 2.1403 1.59273C2.31527 1.7677 2.55258 1.866 2.80003 1.866H15.857C16.1045 1.866 16.3418 1.7677 16.5168 1.59273C16.6917 1.41776 16.79 1.18045 16.79 0.933C16.79 0.685553 16.6917 0.448241 16.5168 0.273269C16.3418 0.098298 16.1045 0 15.857 0H2.80003ZM2.53803 3.731C2.34219 3.73088 2.15128 3.79245 1.99242 3.90697C1.83356 4.0215 1.71481 4.18316 1.65303 4.369L0.0470277 9.184C0.0151187 9.28077 -0.000757201 9.38211 2.77441e-05 9.484V10.266C2.77441e-05 10.5134 0.0983257 10.7508 0.273297 10.9257C0.448269 11.1007 0.685581 11.199 0.933028 11.199V15.863C0.933028 16.1104 1.03133 16.3478 1.2063 16.5227C1.38127 16.6977 1.61858 16.796 1.86603 16.796H9.32803C9.57547 16.796 9.81279 16.6977 9.98776 16.5227C10.1627 16.3478 10.261 16.1104 10.261 15.863V11.193H15.861V15.857C15.861 16.1044 15.9593 16.3418 16.1343 16.5167C16.3093 16.6917 16.5466 16.79 16.794 16.79C17.0415 16.79 17.2788 16.6917 17.4538 16.5167C17.6287 16.3418 17.727 16.1044 17.727 15.857V11.193C17.9745 11.193 18.2118 11.0947 18.3868 10.9197C18.5617 10.7448 18.66 10.5074 18.66 10.26V9.478C18.6608 9.37611 18.6449 9.27477 18.613 9.178L17 4.369C16.9382 4.18316 16.8195 4.0215 16.6606 3.90697C16.5018 3.79245 16.3109 3.73088 16.115 3.731H2.53803ZM2.80003 11.193H8.40003V14.924H2.80003V11.193Z" fill="#5E7360"/>
</svg>
