<svg width="20" height="20" viewBox="0 0 20 20" fill="none" xmlns="http://www.w3.org/2000/svg">
<path d="M17.778 0H2.222C1.63269 0 1.06751 0.234103 0.650809 0.650809C0.234103 1.06751 0 1.63269 0 2.222V17.778C0 18.0698 0.0574737 18.3587 0.16914 18.6283C0.280806 18.8979 0.444477 19.1429 0.650809 19.3492C0.857141 19.5555 1.10209 19.7192 1.37168 19.8309C1.64126 19.9425 1.9302 20 2.222 20H17.778C18.0698 20 18.3587 19.9425 18.6283 19.8309C18.8979 19.7192 19.1429 19.5555 19.3492 19.3492C19.5555 19.1429 19.7192 18.8979 19.8309 18.6283C19.9425 18.3587 20 18.0698 20 17.778V2.222C20 1.9302 19.9425 1.64126 19.8309 1.37168C19.7192 1.10209 19.5555 0.857141 19.3492 0.650809C19.1429 0.444477 18.8979 0.280806 18.6283 0.16914C18.3587 0.0574737 18.0698 0 17.778 0ZM7.778 16.016L2.548 10.786L4.119 9.215L7.778 12.874L15.878 4.774L17.449 6.345L7.778 16.016Z" fill="#5E7360"/>
</svg>
