<svg xmlns="http://www.w3.org/2000/svg" width="197.289" height="58.472" viewBox="0 0 197.289 58.472"><path d="M205.361,60.947a5.6,5.6,0,0,1-5.606,5.6H16.294a5.607,5.607,0,0,1-5.613-5.6V16.288a5.614,5.614,0,0,1,5.613-5.608H199.754a5.606,5.606,0,0,1,5.606,5.608v44.66Z" transform="translate(-9.38 -9.379)" fill="#fff"/><path d="M190.376,58.472H6.915A6.916,6.916,0,0,1,0,51.569V6.91A6.921,6.921,0,0,1,6.915,0H190.374a6.924,6.924,0,0,1,6.915,6.91V51.569a6.915,6.915,0,0,1-6.913,6.9Z" fill="#a6a6a6"/><path d="M205.361,60.947a5.6,5.6,0,0,1-5.606,5.6H16.294a5.607,5.607,0,0,1-5.613-5.6V16.288a5.614,5.614,0,0,1,5.613-5.608H199.754a5.606,5.606,0,0,1,5.606,5.608v44.66Z" transform="translate(-9.38 -9.379)"/><path d="M178.853,94.442a8.476,8.476,0,0,1,4.037-7.112,8.681,8.681,0,0,0-6.837-3.7c-2.876-.3-5.666,1.721-7.131,1.721-1.494,0-3.751-1.692-6.182-1.642a9.1,9.1,0,0,0-7.662,4.673c-3.313,5.736-.842,14.166,2.332,18.8,1.588,2.272,3.443,4.806,5.872,4.717,2.376-.1,3.264-1.513,6.131-1.513,2.841,0,3.674,1.513,6.151,1.456,2.55-.039,4.156-2.281,5.688-4.572a18.748,18.748,0,0,0,2.6-5.3,8.2,8.2,0,0,1-5-7.536Zm-4.679-13.859a8.343,8.343,0,0,0,1.91-5.979,8.5,8.5,0,0,0-5.5,2.843,7.94,7.94,0,0,0-1.959,5.758,7.02,7.02,0,0,0,5.545-2.622Z" transform="translate(-134.8 -65.514)" fill="#fff"/><g transform="translate(62.041 26.318)"><path d="M524.288,234.175H521.23l-1.675-5.264h-5.822l-1.6,5.264H509.16l5.77-17.92h3.563ZM519.05,226.7l-1.515-4.679q-.24-.717-.9-3.376h-.054q-.267,1.143-.851,3.376l-1.489,4.679Zm20.047.852a7.317,7.317,0,0,1-1.791,5.21,5.251,5.251,0,0,1-3.983,1.7,3.987,3.987,0,0,1-3.689-1.833v6.78h-2.871V225.5q0-2.07-.106-4.247h2.525l.16,2.048h.054a5.107,5.107,0,0,1,8.175-.508A7.146,7.146,0,0,1,539.1,227.555Zm-2.925.105a5.327,5.327,0,0,0-.851-3.112,2.941,2.941,0,0,0-2.5-1.275,2.985,2.985,0,0,0-1.927.7,3.266,3.266,0,0,0-1.13,1.849,3.752,3.752,0,0,0-.133.874v2.156a3.457,3.457,0,0,0,.865,2.381,2.87,2.87,0,0,0,2.246.971,2.942,2.942,0,0,0,2.525-1.25A5.5,5.5,0,0,0,536.173,227.66Zm17.786-.105a7.317,7.317,0,0,1-1.791,5.21,5.254,5.254,0,0,1-3.984,1.7,3.987,3.987,0,0,1-3.689-1.833v6.78h-2.871V225.5q0-2.07-.106-4.247h2.525l.16,2.048h.054a5.108,5.108,0,0,1,8.176-.508A7.152,7.152,0,0,1,553.959,227.555Zm-2.926.105a5.326,5.326,0,0,0-.852-3.112,2.937,2.937,0,0,0-2.5-1.275,3,3,0,0,0-1.93.7,3.265,3.265,0,0,0-1.128,1.849,3.836,3.836,0,0,0-.135.874v2.156a3.469,3.469,0,0,0,.863,2.381,2.876,2.876,0,0,0,2.249.971,2.939,2.939,0,0,0,2.525-1.25A5.5,5.5,0,0,0,551.033,227.66Zm19.542,1.488a4.787,4.787,0,0,1-1.593,3.723,7.061,7.061,0,0,1-4.881,1.569,8.52,8.52,0,0,1-4.64-1.116l.664-2.393a7.987,7.987,0,0,0,4.147,1.118,3.913,3.913,0,0,0,2.525-.731,2.389,2.389,0,0,0,.906-1.952,2.5,2.5,0,0,0-.746-1.835,6.916,6.916,0,0,0-2.472-1.382q-4.706-1.755-4.708-5.133a4.532,4.532,0,0,1,1.662-3.615,6.571,6.571,0,0,1,4.4-1.41,8.7,8.7,0,0,1,4.068.851l-.72,2.34a7.113,7.113,0,0,0-3.443-.824,3.5,3.5,0,0,0-2.375.745,2.131,2.131,0,0,0-.72,1.624,2.195,2.195,0,0,0,.825,1.755,9.3,9.3,0,0,0,2.6,1.382,8.83,8.83,0,0,1,3.4,2.179A4.54,4.54,0,0,1,570.575,229.148Zm9.517-5.74h-3.164v6.273q0,2.393,1.675,2.391a5.049,5.049,0,0,0,1.275-.133l.079,2.18a6.5,6.5,0,0,1-2.233.318,3.441,3.441,0,0,1-2.659-1.038,5.091,5.091,0,0,1-.957-3.483V223.4h-1.885v-2.154h1.885v-2.366l2.82-.851v3.217h3.164Zm14.248,4.2a7.088,7.088,0,0,1-1.7,4.892,6.067,6.067,0,0,1-4.732,1.967,5.783,5.783,0,0,1-4.534-1.885,6.873,6.873,0,0,1-1.689-4.759,7.031,7.031,0,0,1,1.741-4.917,6.035,6.035,0,0,1,4.694-1.915,5.9,5.9,0,0,1,4.571,1.888A6.783,6.783,0,0,1,594.34,227.608Zm-2.976.066a5.785,5.785,0,0,0-.769-3.049,2.842,2.842,0,0,0-2.58-1.539,2.883,2.883,0,0,0-2.632,1.539,5.882,5.882,0,0,0-.77,3.1,5.769,5.769,0,0,0,.77,3.05,2.944,2.944,0,0,0,5.188-.026A5.808,5.808,0,0,0,591.364,227.674Zm12.311-3.9a4.989,4.989,0,0,0-.9-.08,2.709,2.709,0,0,0-2.34,1.145,4.311,4.311,0,0,0-.716,2.552v6.78h-2.871v-8.852q0-2.232-.084-4.068h2.5l.105,2.472h.079a4.433,4.433,0,0,1,1.435-2.048,3.472,3.472,0,0,1,2.075-.692,4.6,4.6,0,0,1,.718.053Zm12.84,3.325a6.734,6.734,0,0,1-.105,1.3H607.8a3.748,3.748,0,0,0,1.25,2.927,4.272,4.272,0,0,0,2.817.9,9.526,9.526,0,0,0,3.485-.61l.45,1.992a10.774,10.774,0,0,1-4.332.8,6.28,6.28,0,0,1-4.721-1.767,6.532,6.532,0,0,1-1.714-4.745,7.4,7.4,0,0,1,1.6-4.864,5.5,5.5,0,0,1,4.518-2.072,4.815,4.815,0,0,1,4.229,2.072A6.974,6.974,0,0,1,616.515,227.1Zm-2.738-.745a3.886,3.886,0,0,0-.557-2.207,2.507,2.507,0,0,0-2.286-1.2,2.722,2.722,0,0,0-2.285,1.17,4.288,4.288,0,0,0-.849,2.233Z" transform="translate(-508.549 -214.984)" fill="#fff"/></g><g transform="translate(63.202 9.582)"><path d="M526.764,88.7H525.13l-.893-2.809H521.13l-.852,2.809h-1.589l3.079-9.564h1.9Zm-2.8-3.987-.809-2.5c-.085-.256-.241-.851-.483-1.8h-.029c-.1.411-.241,1.007-.455,1.8l-.794,2.5Zm10.5-2.908-2.612,6.9h-1.49l-2.527-6.9h1.646l1.179,3.647c.2.61.368,1.192.5,1.744h.042c.114-.5.284-1.078.5-1.744l1.164-3.647Zm5.559,6.9-.114-.794h-.043a2.351,2.351,0,0,1-2.015.95,2.007,2.007,0,0,1-2.114-2.03c0-1.7,1.475-2.582,4.03-2.582v-.127c0-.908-.483-1.363-1.433-1.363a3.219,3.219,0,0,0-1.8.512l-.312-1.007a4.415,4.415,0,0,1,2.37-.6c1.8,0,2.711.95,2.711,2.853v2.54a10.242,10.242,0,0,0,.1,1.646h-1.379Zm-.214-3.435c-1.7,0-2.554.412-2.554,1.391a.977.977,0,0,0,1.05,1.078,1.467,1.467,0,0,0,1.5-1.4Zm4.906-4.6a.916.916,0,1,1,.965-.923A.9.9,0,0,1,544.715,80.664Zm.8,8.032h-1.532V81.8h1.532Zm4.255,0h-1.532V78.636h1.532Zm6.513,0-.114-.794h-.042a2.351,2.351,0,0,1-2.015.95,2.007,2.007,0,0,1-2.114-2.03c0-1.7,1.475-2.582,4.03-2.582v-.127c0-.908-.483-1.363-1.433-1.363a3.22,3.22,0,0,0-1.8.512l-.313-1.009a4.414,4.414,0,0,1,2.37-.6c1.8,0,2.711.95,2.711,2.853v2.54a10.632,10.632,0,0,0,.1,1.646h-1.376Zm-.214-3.435c-1.7,0-2.554.412-2.554,1.391a.976.976,0,0,0,1.05,1.078,1.467,1.467,0,0,0,1.5-1.4Zm7.7,3.591a2.34,2.34,0,0,1-2.169-1.221h-.031l-.088,1.064h-1.306c.042-.553.057-1.179.057-1.858v-8.2h1.534v4.173h.029a2.366,2.366,0,0,1,2.2-1.149c1.661,0,2.825,1.42,2.825,3.49C566.816,87.291,565.524,88.852,563.765,88.852Zm-.312-5.989a1.763,1.763,0,0,0-1.689,1.831V85.9a1.689,1.689,0,0,0,1.662,1.731c1.148,0,1.831-.936,1.831-2.426,0-1.391-.712-2.342-1.8-2.342Zm7.16,5.833h-1.531V78.636h1.531Zm8.342-3.079h-4.6a1.979,1.979,0,0,0,2.171,2.043,5.173,5.173,0,0,0,1.858-.326l.238,1.064a5.749,5.749,0,0,1-2.312.425,3.2,3.2,0,0,1-3.435-3.476c0-2.114,1.307-3.7,3.262-3.7,1.759,0,2.867,1.306,2.867,3.278A2.891,2.891,0,0,1,578.955,85.617Zm-1.405-1.092c0-1.064-.54-1.816-1.519-1.816a1.82,1.82,0,0,0-1.676,1.816h3.195Zm10.694,4.328a3.282,3.282,0,0,1-3.321-3.547,3.359,3.359,0,0,1,3.436-3.647,3.257,3.257,0,0,1,3.321,3.534A3.379,3.379,0,0,1,588.244,88.852Zm.058-6.074c-1.107,0-1.816,1.035-1.816,2.483,0,1.42.724,2.455,1.8,2.455s1.8-1.107,1.8-2.484c0-1.4-.708-2.454-1.785-2.454ZM599.917,88.7h-1.531v-3.96c0-1.219-.468-1.831-1.391-1.831a1.593,1.593,0,0,0-1.534,1.689v4.1h-1.531V83.771c0-.61-.016-1.263-.057-1.973h1.348l.072,1.064h.042a2.474,2.474,0,0,1,2.185-1.206c1.446,0,2.4,1.107,2.4,2.908V88.7h0Zm10.027-5.746h-1.686V86.3q0,1.279.892,1.278a3.033,3.033,0,0,0,.681-.072l.043,1.164a3.413,3.413,0,0,1-1.19.171c-1.208,0-1.929-.667-1.929-2.413V82.949h-1.006V81.8h1.006V80.537l1.5-.455V81.8h1.686Zm8.115,5.746h-1.534v-3.93c0-1.234-.468-1.858-1.39-1.858a1.5,1.5,0,0,0-1.531,1.632V88.7H612.07V78.636H613.6v4.142h.029a2.321,2.321,0,0,1,2.072-1.122c1.461,0,2.354,1.135,2.354,2.938Zm7.83-3.079h-4.6a1.977,1.977,0,0,0,2.17,2.043,5.167,5.167,0,0,0,1.858-.326l.24,1.064a5.757,5.757,0,0,1-2.313.425,3.2,3.2,0,0,1-3.435-3.476c0-2.114,1.307-3.7,3.262-3.7,1.759,0,2.867,1.306,2.867,3.278A2.98,2.98,0,0,1,625.889,85.617Zm-1.405-1.092c0-1.064-.538-1.816-1.518-1.816a1.818,1.818,0,0,0-1.676,1.816Z" transform="translate(-518.688 -78.636)" fill="#fff"/></g></svg>