<svg width="103" height="38" viewBox="0 0 103 38" fill="none" xmlns="http://www.w3.org/2000/svg">
<path d="M12.6647 24.659C15.9127 24.659 20.1113 23.5306 20.1113 19.4682C20.1113 16.5154 17.8479 15.1952 14.3321 14.9093C17.3802 14.5632 19.1645 12.8743 19.1645 10.6363C19.1645 7.42396 16.4597 5.84791 11.8876 5.84791H3V7.02149L3.7771 7.25094C4.81072 7.53681 4.88617 7.91296 4.88617 9.0602V21.4467C4.88617 22.5752 4.82581 22.9513 3.79219 23.2522L3 23.4854V24.659H12.6647ZM9.55633 7.53681H10.8238C13.2117 7.53681 14.6943 8.4847 14.6943 10.8356C14.6943 13.0173 13.5626 14.2209 11.186 14.2209H9.55633V7.53681ZM9.55633 15.8534L11.5142 15.9399C13.7285 16.0264 15.5129 16.8314 15.5129 19.4682C15.5129 22.1915 13.4984 22.9664 11.3633 22.9664H9.55633V15.8534ZM25.321 24.9449C27.7654 24.9449 29.2631 23.9707 30.1231 22.594V22.7369C30.1231 24.0271 31.104 24.9449 33.0014 24.9449C34.5104 24.9449 35.7024 24.3731 36.4531 23.2259L36.0495 22.4209C35.8458 22.5865 35.5917 22.678 35.329 22.6805C34.7254 22.6805 34.5745 22.4209 34.5745 21.6197V16.0264C34.5745 12.2988 32.76 10.4933 28.0446 10.4933C24.7928 10.4933 21.775 11.8399 21.775 14.1645C21.775 15.481 22.5521 16.286 24.0384 16.286C25.3059 16.286 26.1094 15.5337 26.1094 14.2774C26.1259 14.0043 26.073 13.7315 25.9556 13.4843C25.8382 13.2371 25.6602 13.0234 25.4379 12.863C26.0688 12.4233 26.8221 12.1917 27.5919 12.201C29.1763 12.201 30.01 13.0323 30.01 14.5256C30.01 16.1581 29.1461 16.8464 26.1546 17.5649C22.3031 18.5128 21.2506 19.7164 21.2506 21.6085C21.2506 23.8465 22.9783 24.9336 25.3059 24.9336L25.321 24.9449ZM27.5693 22.4962C26.5055 22.4962 25.785 22.0109 25.785 20.8336C25.785 19.6563 26.6186 19.1409 27.856 18.7121C28.6636 18.4831 29.3971 18.0474 29.9836 17.4483V21.5859C29.3157 22.1714 28.4585 22.4973 27.5693 22.5037V22.4962ZM54.7641 23.3651C53.7267 23.0792 53.6701 22.7068 53.6701 21.5596V15.5675C53.6701 11.7835 51.4557 10.4933 48.8641 10.4933C47.8102 10.4903 46.7715 10.7448 45.839 11.2346C44.9065 11.7245 44.1085 12.4347 43.515 13.3031L43.8054 10.4933H43.1377L37.532 11.697V12.7878L38.2865 12.9872C39.0032 13.1602 39.1768 13.4762 39.1768 14.4918V21.5633C39.1768 22.6918 39.1202 23.0679 38.113 23.3688L37.4792 23.5419V24.6703H45.4766V23.5419L44.873 23.3688C43.8658 23.083 43.8092 22.7106 43.8092 21.5633V14.2209C44.6182 13.6296 45.5939 13.3083 46.597 13.3031C48.3247 13.3031 49.0716 13.9915 49.0716 16.1995V21.5633C49.0716 22.6918 49.015 23.0679 47.9776 23.3688L47.3741 23.5419V24.6703H55.3714V23.5419L54.7641 23.3651ZM59.5851 9.10158C61.0941 9.10158 62.1466 8.09727 62.1466 6.63406C62.1466 5.17084 61.0639 4.21167 59.5851 4.21167C58.1064 4.21167 57.0275 5.21598 57.0275 6.6491C57.0275 8.08222 58.0762 9.10158 59.5851 9.10158ZM55.6544 12.7878L56.4088 12.9872C57.1293 13.1602 57.3029 13.4762 57.3029 14.4918V27.5328C57.3029 29.2217 56.8426 29.7408 55.9222 29.7408C55.7635 29.7598 55.6028 29.7296 55.462 29.6542C55.6277 29.5013 55.7576 29.3138 55.8424 29.1051C55.9272 28.8964 55.9647 28.6717 55.9524 28.4468C55.9524 27.5027 55.345 26.8444 54.1945 26.8444C53.9368 26.8247 53.6778 26.8608 53.4354 26.9502C53.193 27.0396 52.9729 27.1803 52.7901 27.3625C52.6074 27.5447 52.4663 27.7642 52.3766 28.0059C52.2869 28.2476 52.2508 28.5058 52.2706 28.7628C52.2706 30.2674 53.5041 31.2604 56.2391 31.2604C59.9473 31.2604 61.9315 29.4248 61.9315 25.0352V10.4933H61.2714L55.6619 11.697L55.6544 12.7878ZM71.9886 24.9449C76.7644 24.9449 80.0991 22.1915 80.0991 17.689C80.0991 13.1865 76.9945 10.4933 71.9886 10.4933C67.2128 10.4933 63.8781 13.1865 63.8781 17.7191C63.8781 22.2517 66.9827 24.9449 71.9886 24.9449ZM72.0452 23.2522C70.1175 23.2522 68.8538 21.3903 68.8538 17.4031C68.8538 13.905 70.0308 12.186 71.932 12.186C73.8333 12.186 75.1536 13.9915 75.1536 18.005C75.1536 21.4467 73.9729 23.2522 72.0452 23.2522ZM83.2415 4.55773C81.9476 4.55773 80.797 5.35892 80.797 6.90864C80.7786 7.18835 80.8204 7.46875 80.9196 7.73105C81.0187 7.99334 81.173 8.23148 81.3719 8.42952C81.5709 8.62755 81.81 8.78089 82.0732 8.87929C82.3365 8.97768 82.6177 9.01884 82.8982 9.00002C83.1233 9.00198 83.3468 8.96376 83.5584 8.88718C83.4716 9.77488 82.7549 11.1441 80.7103 12.0694L81.1705 13.1301C84.2487 12.2123 85.8029 9.71846 85.8029 7.65341C85.8029 5.77268 84.9089 4.55773 83.2415 4.55773ZM90.3147 24.9449C94.3397 24.9449 96.9012 23.2259 96.9012 20.3296C96.9012 17.862 95.694 16.602 92.2687 15.8158C89.7639 15.2817 89.0094 14.7664 89.0094 13.7319C89.0094 12.6975 89.9035 12.1559 91.3407 12.1559C92.778 12.1559 93.3816 12.532 94.3322 13.8185L94.9659 14.6798H96.2599L96.0562 11.2381C94.4976 10.7249 92.865 10.4708 91.2238 10.4858C87.6023 10.4858 85.0145 12.2048 85.0145 15.0447C85.0145 17.5386 86.3952 18.6294 89.96 19.5171C92.1178 20.0625 92.8949 20.5515 92.8949 21.6122C92.8949 22.673 92.1178 23.2748 90.3637 23.2748C88.983 23.2748 88.1003 22.8986 86.7686 21.3264L86.1349 20.5515H84.8221L85.022 24.1625C86.7269 24.7124 88.5119 24.9743 90.3033 24.9374" fill="#5E7561"/>
<path d="M65.2814 32.3136C65.5802 32.3155 65.8742 32.239 66.1339 32.0916C66.3963 31.9356 66.6103 31.7104 66.7526 31.4409C66.9184 31.1244 67.0002 30.7709 66.9902 30.414C66.9986 30.0832 66.9302 29.7549 66.7903 29.4548C66.6675 29.2018 66.4718 28.9909 66.2282 28.8492C65.9782 28.7106 65.6957 28.6405 65.4096 28.6461C65.2613 28.6441 65.1136 28.6657 64.972 28.7101C64.839 28.747 64.712 28.8027 64.5948 28.8756C64.5785 28.8883 64.5588 28.8961 64.5382 28.8981C64.5043 28.8981 64.4854 28.8756 64.4854 28.8304V27.055C64.4905 27.0003 64.4758 26.9456 64.4439 26.9008C64.4291 26.8823 64.4101 26.8675 64.3884 26.8577C64.3668 26.8479 64.3432 26.8433 64.3194 26.8444C64.2774 26.845 64.2361 26.8553 64.1987 26.8745L63.5197 27.1415C63.4778 27.1546 63.4393 27.1764 63.4065 27.2055C63.3845 27.2374 63.3738 27.2759 63.3763 27.3146V27.3484C63.3738 27.3871 63.3845 27.4255 63.4065 27.4575C63.4426 27.4887 63.4873 27.5084 63.5348 27.5139C63.6367 27.529 63.7316 27.5749 63.8064 27.6456C63.8504 27.7165 63.8715 27.7993 63.8667 27.8825V32.1556C63.8654 32.1748 63.868 32.194 63.8745 32.2122C63.881 32.2303 63.8912 32.2469 63.9045 32.2609C63.9333 32.2868 63.9713 32.3004 64.0101 32.2985C64.04 32.298 64.0695 32.2914 64.0967 32.2791C64.124 32.2669 64.1484 32.2491 64.1685 32.227L64.3119 32.0992C64.3329 32.0797 64.3591 32.0667 64.3873 32.0615C64.417 32.0655 64.4447 32.0787 64.4665 32.0992C64.5746 32.1738 64.6945 32.2298 64.8211 32.2647C64.9668 32.2999 65.1164 32.3164 65.2663 32.3136H65.2814ZM65.0852 31.8471C64.9995 31.8473 64.9143 31.8346 64.8325 31.8095C64.757 31.791 64.6846 31.7618 64.6174 31.723C64.5717 31.6898 64.5354 31.6453 64.5123 31.5938C64.4891 31.5424 64.4798 31.4857 64.4854 31.4296V29.594C64.4814 29.5222 64.493 29.4503 64.5194 29.3834C64.5499 29.3293 64.5925 29.283 64.6438 29.248C64.8019 29.158 64.9828 29.1162 65.1644 29.1276C65.3228 29.1237 65.4801 29.1555 65.6244 29.2206C65.7688 29.2857 65.8965 29.3825 65.9981 29.5037C66.2217 29.785 66.3332 30.1386 66.3112 30.4968C66.341 30.8681 66.2247 31.2364 65.9868 31.5236C65.8689 31.6404 65.7277 31.7312 65.5724 31.7901C65.4171 31.8491 65.2511 31.8749 65.0852 31.8659V31.8471ZM67.9069 32.0653C67.7986 31.9686 67.7138 31.8486 67.6589 31.7143C67.604 31.5801 67.5804 31.4351 67.59 31.2904C67.5842 31.1246 67.6205 30.96 67.6957 30.812C67.7709 30.664 67.8825 30.5374 68.0201 30.4441C68.3759 30.2213 68.7927 30.1148 69.2121 30.1394C69.3668 30.1394 69.5403 30.1394 69.7327 30.1658H69.7705C69.8233 30.1658 69.8497 30.1432 69.8497 30.0943V29.7858C69.8497 29.2969 69.6233 29.0461 69.1707 29.0336C69.0138 29.0338 68.8605 29.0795 68.7293 29.1652C68.5745 29.2766 68.4405 29.414 68.3332 29.5714C68.3072 29.6112 68.2739 29.6456 68.2351 29.673C68.2036 29.6931 68.1669 29.7035 68.1295 29.7031C68.1129 29.704 68.0962 29.7014 68.0807 29.6956C68.0651 29.6898 68.0509 29.6808 68.0389 29.6692C68.0086 29.641 67.9831 29.608 67.9635 29.5714L67.7862 29.1953C67.7669 29.158 67.7566 29.1168 67.756 29.0749C67.7572 29.0399 67.769 29.006 67.7898 28.9778C67.8107 28.9496 67.8397 28.9284 67.873 28.917C68.0572 28.8236 68.2542 28.7577 68.4577 28.7214C68.6872 28.6736 68.9211 28.6496 69.1556 28.6499C69.3343 28.6344 69.5143 28.6551 69.6847 28.7107C69.8552 28.7662 70.0127 28.8556 70.1477 28.9734C70.3779 29.2425 70.4931 29.591 70.4683 29.9438V31.6139C70.4683 31.7681 70.5325 31.8434 70.657 31.8434C70.7003 31.8448 70.7428 31.8315 70.7777 31.8058C70.8179 31.7776 70.8546 31.7447 70.8871 31.708C70.9058 31.6818 70.9287 31.6589 70.955 31.6403C70.9775 31.6191 71.007 31.607 71.038 31.6064C71.059 31.6052 71.08 31.6086 71.0996 31.6164C71.1192 31.6242 71.1368 31.6362 71.1511 31.6515C71.1781 31.6886 71.1914 31.7337 71.1889 31.7794C71.1895 31.851 71.1743 31.9218 71.1443 31.9869C71.1143 32.0519 71.0703 32.1095 71.0153 32.1556C70.8996 32.2426 70.7613 32.2945 70.6168 32.3052C70.4723 32.3158 70.3278 32.2848 70.2005 32.2158C70.0917 32.1325 70.0049 32.0241 69.9478 31.8998C69.9412 31.8883 69.9319 31.8785 69.9207 31.8713C69.9096 31.8641 69.8969 31.8597 69.8836 31.8584C69.8562 31.86 69.8305 31.8721 69.8119 31.8923C69.6932 32.0331 69.5417 32.1429 69.3706 32.212C69.1879 32.2883 68.9915 32.3267 68.7934 32.3248C68.4792 32.3366 68.1708 32.2381 67.922 32.0465L67.9069 32.0653ZM69.4309 31.7192C69.55 31.6585 69.6553 31.574 69.7403 31.471C69.7711 31.434 69.7953 31.392 69.8119 31.3469C69.8287 31.2946 69.8364 31.2399 69.8346 31.1851V30.666C69.8363 30.6396 69.8297 30.6133 69.8157 30.5908C69.8059 30.5703 69.7901 30.5533 69.7705 30.5419C69.6112 30.5129 69.4495 30.499 69.2876 30.5005C68.6161 30.5005 68.2841 30.7337 68.2841 31.1964C68.2786 31.2809 68.292 31.3656 68.3233 31.4443C68.3547 31.523 68.4031 31.5938 68.4652 31.6515C68.612 31.766 68.7961 31.8223 68.982 31.8095C69.1456 31.8147 69.3078 31.7784 69.4536 31.7042L69.4309 31.7192ZM71.5887 32.227H72.8374C72.8604 32.2277 72.8832 32.2237 72.9046 32.2153C72.926 32.2069 72.9455 32.1943 72.9619 32.1781C72.9929 32.1415 73.0091 32.0945 73.0071 32.0465V32.0051C73.0104 31.964 72.9998 31.9229 72.9769 31.8885C72.9472 31.8554 72.9075 31.833 72.8638 31.8246L72.7129 31.7794C72.6525 31.768 72.5987 31.7345 72.562 31.6854C72.5302 31.632 72.5145 31.5706 72.5167 31.5086V31.0459C72.5174 31.0245 72.5224 31.0035 72.5315 30.9841C72.5406 30.9647 72.5535 30.9474 72.5695 30.9331L72.9958 30.5419C73.0038 30.5327 73.0136 30.5252 73.0247 30.52C73.0357 30.5148 73.0477 30.512 73.0599 30.5118C73.0826 30.5118 73.1052 30.5118 73.1241 30.5607L74.169 32.118C74.1959 32.1571 74.2306 32.1904 74.2709 32.2158C74.3116 32.2367 74.357 32.2471 74.4029 32.2458H74.9914C75.0395 32.2478 75.0866 32.2317 75.1234 32.2007C75.1405 32.1827 75.1536 32.1614 75.162 32.1381C75.1705 32.1148 75.174 32.09 75.1725 32.0653V32.0239C75.1709 31.9794 75.1544 31.9368 75.1257 31.9027C75.097 31.8686 75.0577 31.8451 75.014 31.8358L74.8405 31.7869C74.7601 31.7628 74.6865 31.7203 74.6255 31.6628C74.5387 31.5679 74.4616 31.4646 74.3953 31.3544L73.5805 30.1394C73.5674 30.1191 73.5596 30.0958 73.5579 30.0717C73.5576 30.0598 73.5599 30.048 73.5644 30.037C73.5689 30.026 73.5757 30.0161 73.5843 30.0078L74.0257 29.6316C74.1615 29.5138 74.2784 29.4197 74.3765 29.3495C74.4708 29.2808 74.5769 29.2298 74.6896 29.1991L74.9348 29.1201C74.9713 29.1116 75.0035 29.0902 75.0253 29.0599C75.0438 29.0252 75.0529 28.9863 75.0517 28.947V28.8981C75.0529 28.8746 75.0492 28.8511 75.0408 28.829C75.0323 28.807 75.0193 28.787 75.0027 28.7703C74.9848 28.7544 74.9639 28.7422 74.9412 28.7345C74.9186 28.7267 74.8946 28.7236 74.8707 28.7251H73.6145C73.5675 28.7234 73.5217 28.7395 73.4862 28.7703C73.4691 28.7868 73.4555 28.8067 73.4464 28.8287C73.4373 28.8507 73.4329 28.8743 73.4334 28.8981V28.947C73.4323 28.9802 73.4425 29.0128 73.4624 29.0395C73.4822 29.0661 73.5106 29.0852 73.5428 29.0937L73.7088 29.1577C73.7268 29.1619 73.7428 29.1719 73.7544 29.1862C73.7661 29.2005 73.7726 29.2183 73.7729 29.2367C73.7684 29.2669 73.7538 29.2948 73.7314 29.3157L72.6337 30.3087C72.6265 30.3167 72.6178 30.3231 72.6081 30.3277C72.5984 30.3322 72.5878 30.3347 72.5771 30.335C72.5612 30.3408 72.5439 30.3408 72.528 30.335C72.515 30.3177 72.5083 30.2965 72.5092 30.2748V27.055C72.5143 27.0003 72.4996 26.9456 72.4677 26.9008C72.4528 26.8823 72.4338 26.8675 72.4122 26.8577C72.3906 26.8479 72.3669 26.8433 72.3432 26.8444C72.3012 26.845 72.2598 26.8553 72.2225 26.8745L71.5435 27.1415C71.5023 27.1535 71.4647 27.1755 71.4341 27.2055C71.4088 27.236 71.3966 27.2752 71.4001 27.3146V27.3484C71.3966 27.3878 71.4088 27.427 71.4341 27.4575C71.4681 27.4895 71.5119 27.5094 71.5585 27.5139C71.6625 27.5275 71.7585 27.5767 71.8302 27.6531C71.8737 27.727 71.8947 27.812 71.8905 27.8976V31.5236C71.8935 31.5853 71.8791 31.6465 71.849 31.7004C71.8109 31.7498 71.7558 31.7833 71.6943 31.7945L71.551 31.8396C71.5077 31.8452 71.4681 31.8669 71.4401 31.9004C71.4121 31.9339 71.3978 31.9767 71.4001 32.0202V32.0465C71.3985 32.0712 71.4021 32.096 71.4105 32.1193C71.4189 32.1426 71.4321 32.1639 71.4491 32.1819C71.4859 32.2129 71.5331 32.229 71.5812 32.227H71.5887ZM78.6355 31.3619C78.632 31.4192 78.618 31.4753 78.594 31.5274C78.4892 31.7588 78.3135 31.9511 78.0922 32.0766C77.8117 32.2335 77.4932 32.3103 77.1718 32.2985C76.8549 32.3039 76.5423 32.2247 76.2664 32.0691C76.0006 31.9167 75.7834 31.6924 75.6402 31.4221C75.4817 31.1249 75.4024 30.792 75.4101 30.4554C75.4052 30.1204 75.4802 29.7891 75.6289 29.4887C75.7619 29.2209 75.9686 28.9965 76.2249 28.8417C76.4777 28.6906 76.7677 28.6125 77.0624 28.616C77.3953 28.6078 77.7216 28.7097 77.9904 28.9057C78.2523 29.1073 78.4308 29.3977 78.4921 29.7219C78.4946 29.7469 78.4946 29.7721 78.4921 29.7971C78.4926 29.8358 78.4792 29.8734 78.4543 29.9031C78.4294 29.9328 78.3946 29.9526 78.3563 29.9589L76.2212 30.7676C76.2098 30.7709 76.1993 30.7765 76.1903 30.7842C76.1813 30.7919 76.1741 30.8014 76.1691 30.8121C76.1641 30.8228 76.1614 30.8344 76.1613 30.8462C76.1612 30.858 76.1636 30.8696 76.1684 30.8804C76.2455 31.1228 76.3957 31.3355 76.5984 31.4898C76.808 31.6432 77.0628 31.7226 77.3227 31.7155C77.5167 31.7209 77.7096 31.685 77.8885 31.6102C78.0341 31.5459 78.1631 31.4494 78.2658 31.328C78.3137 31.2687 78.3825 31.2297 78.4582 31.219C78.4922 31.2172 78.5258 31.2279 78.5525 31.2491C78.5752 31.2616 78.5939 31.2802 78.6065 31.3028C78.6192 31.3254 78.6253 31.3511 78.6241 31.3769L78.6355 31.3619ZM76.3155 29.4135C76.1182 29.6355 76.0166 29.926 76.0325 30.2222C76.0285 30.2509 76.0285 30.28 76.0325 30.3087C76.0325 30.3614 76.074 30.3726 76.1269 30.3425L77.6924 29.737C77.7231 29.7289 77.7507 29.7119 77.7716 29.6881C77.7792 29.6749 77.7832 29.66 77.7832 29.6448C77.7832 29.6296 77.7792 29.6147 77.7716 29.6015C77.7239 29.4472 77.6239 29.3142 77.4887 29.2254C77.3571 29.1375 77.2019 29.0916 77.0435 29.0937C76.9078 29.09 76.7728 29.1149 76.6473 29.1668C76.5219 29.2186 76.4088 29.2963 76.3155 29.3947V29.4135ZM79.156 32.2383H80.4839C80.5066 32.2395 80.5294 32.2361 80.5508 32.2284C80.5721 32.2206 80.5917 32.2086 80.6084 32.1932C80.625 32.1765 80.638 32.1564 80.6465 32.1344C80.6549 32.1124 80.6586 32.0888 80.6574 32.0653V32.0164C80.6601 31.9951 80.6584 31.9736 80.6526 31.9529C80.6468 31.9323 80.637 31.913 80.6236 31.8962C80.6103 31.8794 80.5937 31.8655 80.5749 31.8551C80.5561 31.8447 80.5354 31.8382 80.5141 31.8358L80.2877 31.7907C80.2274 31.7793 80.1736 31.7458 80.1369 31.6967C80.1051 31.6434 80.0906 31.5817 80.0954 31.5199V29.7896C80.0954 29.4624 80.2425 29.2969 80.5329 29.2969C80.6828 29.3041 80.8266 29.358 80.9441 29.4511L81.0083 29.4849L81.0913 29.5263C81.1212 29.532 81.1519 29.532 81.1818 29.5263C81.2042 29.5267 81.2264 29.5226 81.2472 29.5142C81.2679 29.5058 81.2867 29.4933 81.3025 29.4774C81.3354 29.4388 81.3517 29.3888 81.3478 29.3382V28.8492C81.3546 28.7845 81.3356 28.7196 81.295 28.6687C81.2709 28.6477 81.2427 28.6318 81.2122 28.6221C81.1817 28.6124 81.1495 28.6091 81.1177 28.6123C80.956 28.6172 80.797 28.6543 80.6499 28.7214C80.4863 28.7928 80.3348 28.8893 80.201 29.0072C80.1908 29.0179 80.1785 29.0264 80.1649 29.0323C80.1512 29.0381 80.1366 29.0411 80.1218 29.0411C80.1148 29.0447 80.107 29.0466 80.0991 29.0466C80.0913 29.0466 80.0835 29.0447 80.0765 29.0411C80.0712 29.0239 80.0712 29.0056 80.0765 28.9884V28.8154C80.0765 28.6837 80.0199 28.616 79.9105 28.616C79.8718 28.617 79.8335 28.6246 79.7973 28.6386L79.1523 28.8906C79.0504 28.9207 79.0014 28.9809 79.0014 29.0599V29.105C78.9995 29.1248 79.0019 29.1448 79.0084 29.1636C79.0149 29.1825 79.0254 29.1997 79.0391 29.2141C79.0713 29.2479 79.1137 29.2704 79.1598 29.2781C79.2588 29.2943 79.3514 29.3373 79.4277 29.4022C79.4758 29.4728 79.4984 29.5577 79.4918 29.6429V31.5236C79.4957 31.5866 79.4813 31.6493 79.4503 31.7042C79.412 31.7508 79.3587 31.7828 79.2994 31.7945L79.1523 31.8396C79.1089 31.8452 79.0693 31.8669 79.0414 31.9004C79.0134 31.9339 78.9991 31.9767 79.0014 32.0202V32.0691C78.999 32.0924 79.0019 32.1159 79.0098 32.138C79.0177 32.16 79.0304 32.1801 79.047 32.1966C79.0636 32.2132 79.0837 32.2258 79.1058 32.2337C79.1279 32.2416 79.1515 32.2444 79.1749 32.2421L79.156 32.2383ZM82.4418 33.788H82.819C82.8589 33.79 82.8985 33.7795 82.9322 33.758C82.967 33.73 82.9942 33.6938 83.0114 33.6526L83.664 32.0465L84.6976 29.5865C84.7381 29.4786 84.7873 29.3742 84.8447 29.2743C84.8823 29.2163 84.9361 29.1705 84.9994 29.1426L85.1239 29.0825C85.1583 29.0644 85.189 29.0402 85.2144 29.011C85.2308 28.9824 85.2386 28.9498 85.2371 28.917V28.8681C85.2408 28.8448 85.2391 28.821 85.2319 28.7986C85.2248 28.7761 85.2125 28.7557 85.196 28.7388C85.1794 28.722 85.1592 28.7093 85.1369 28.7017C85.1145 28.6941 85.0907 28.6918 85.0673 28.695H84.1054C84.0826 28.6938 84.0599 28.6972 84.0385 28.705C84.0171 28.7127 83.9975 28.7247 83.9809 28.7402C83.9642 28.7569 83.9513 28.7769 83.9428 28.7989C83.9344 28.821 83.9306 28.8445 83.9318 28.8681V28.917C83.9291 28.9509 83.9386 28.9847 83.9587 29.0123C83.9787 29.0399 84.008 29.0594 84.0412 29.0674L84.2223 29.1351C84.2455 29.1411 84.266 29.1548 84.2804 29.1739C84.2948 29.1931 84.3023 29.2165 84.3015 29.2404C84.3065 29.2665 84.3065 29.2933 84.3015 29.3194L83.5056 31.2942C83.5056 31.3205 83.4829 31.3318 83.4641 31.3318C83.4452 31.3318 83.4301 31.3318 83.4188 31.2942L82.5474 28.8417C82.5339 28.7995 82.5063 28.763 82.4693 28.7384C82.4323 28.7138 82.388 28.7025 82.3437 28.7063H81.7552C81.7071 28.7043 81.6599 28.7204 81.6232 28.7514C81.6065 28.7682 81.5935 28.7882 81.5851 28.8102C81.5766 28.8322 81.5729 28.8558 81.5741 28.8793V28.9282C81.571 28.9677 81.5803 29.0071 81.6005 29.0411C81.6284 29.0734 81.6632 29.0991 81.7024 29.1163L81.8269 29.1652C81.8906 29.1925 81.9445 29.2384 81.9815 29.2969C82.0407 29.3945 82.09 29.4979 82.1286 29.6053L82.9887 31.8622C83.0225 31.9448 83.0417 32.0326 83.0453 32.1217C83.04 32.2423 83.0022 32.3592 82.9359 32.4603L82.3022 33.5887C82.2872 33.6151 82.2794 33.6449 82.2795 33.6752C82.2797 33.6912 82.2835 33.707 82.2907 33.7214C82.2979 33.7357 82.3083 33.7482 82.321 33.758C82.351 33.7784 82.3866 33.7889 82.4229 33.788H82.4418ZM87.3269 32.0841C87.0622 31.9332 86.8463 31.7101 86.7045 31.4409C86.5525 31.1403 86.4773 30.807 86.4857 30.4704C86.4789 30.1402 86.55 29.8129 86.6932 29.515C86.8213 29.2469 87.0244 29.0215 87.2781 28.866C87.5318 28.7105 87.8252 28.6315 88.1229 28.6386C88.2267 28.6429 88.33 28.6542 88.4322 28.6725C88.5031 28.6873 88.575 28.6974 88.6473 28.7025C88.7141 28.7026 88.7805 28.6911 88.8434 28.6687C88.885 28.6541 88.928 28.644 88.9717 28.6386C89.0077 28.6352 89.0437 28.6446 89.0735 28.6649C89.1047 28.6931 89.1292 28.7277 89.1452 28.7665L89.4998 29.5451C89.5141 29.5758 89.5218 29.6091 89.5224 29.6429C89.524 29.6722 89.5166 29.7012 89.501 29.7261C89.4855 29.751 89.4627 29.7706 89.4357 29.7821L89.3866 29.7896C89.3577 29.8056 89.3254 29.8147 89.2923 29.8159C89.262 29.815 89.2323 29.8066 89.206 29.7915C89.1797 29.7764 89.1575 29.7551 89.1414 29.7294C88.9856 29.5391 88.807 29.3686 88.6095 29.2216C88.4607 29.1202 88.2843 29.0664 88.104 29.0674C87.9254 29.0666 87.7501 29.1161 87.5985 29.2103C87.4376 29.3085 87.3071 29.4491 87.2213 29.6166C87.1267 29.8109 87.0802 30.025 87.0855 30.241C87.0815 30.5008 87.137 30.7581 87.2477 30.9933C87.3469 31.2122 87.5094 31.3965 87.7144 31.5225C87.9195 31.6485 88.1576 31.7105 88.3983 31.7004C88.5582 31.7045 88.7176 31.6816 88.8698 31.6327C88.9962 31.5886 89.111 31.5166 89.2056 31.4221C89.2583 31.3667 89.3267 31.3287 89.4017 31.313C89.4324 31.3172 89.4618 31.3274 89.4885 31.3431C89.512 31.3553 89.5318 31.3736 89.5458 31.3962C89.5597 31.4187 89.5673 31.4445 89.5677 31.471C89.5646 31.535 89.5451 31.5971 89.5111 31.6515C89.4007 31.863 89.2247 32.0332 89.0094 32.1368C88.7752 32.2537 88.5168 32.3142 88.2549 32.3136C87.9246 32.3211 87.5981 32.242 87.3081 32.0841H87.3269ZM91.1559 32.3136C91.3539 32.3154 91.5503 32.277 91.733 32.2007C91.9039 32.1332 92.0546 32.0231 92.1706 31.881C92.1906 31.8606 92.2175 31.8485 92.2461 31.8471C92.2593 31.8484 92.272 31.8528 92.2832 31.86C92.2944 31.8672 92.3036 31.877 92.3102 31.8885C92.3648 32.0144 92.452 32.1234 92.563 32.2045C92.6753 32.2754 92.8076 32.3084 92.9402 32.2985C93.1042 32.3067 93.265 32.2514 93.3891 32.1443C93.4435 32.0977 93.4871 32.04 93.5171 31.9751C93.547 31.9102 93.5625 31.8396 93.5626 31.7681C93.5641 31.722 93.5494 31.6768 93.5211 31.6403C93.5073 31.6252 93.4904 31.6133 93.4715 31.6055C93.4526 31.5977 93.4322 31.5942 93.4117 31.5951C93.3808 31.5957 93.3512 31.6078 93.3287 31.629C93.3022 31.6485 93.2781 31.6713 93.2571 31.6967C93.2258 31.7333 93.1904 31.7661 93.1514 31.7945C93.1154 31.8208 93.0715 31.834 93.0269 31.8321C92.9025 31.8321 92.8383 31.7569 92.8383 31.6026V29.9325C92.8595 29.5801 92.7448 29.233 92.5177 28.9621C92.3823 28.8449 92.2248 28.7559 92.0544 28.7003C91.884 28.6447 91.7042 28.6238 91.5256 28.6386C91.2898 28.6381 91.0547 28.662 90.8239 28.7101C90.6208 28.7477 90.4239 28.8135 90.2392 28.9057C90.2066 28.9177 90.1785 28.9392 90.1583 28.9673C90.1381 28.9955 90.1269 29.029 90.126 29.0636C90.1253 29.1053 90.1343 29.1465 90.1524 29.184L90.3335 29.5602C90.3519 29.5964 90.3761 29.6294 90.4052 29.658C90.4309 29.6812 90.4648 29.6933 90.4995 29.6918C90.5367 29.6911 90.5731 29.6807 90.6051 29.6617C90.6438 29.6353 90.676 29.6006 90.6994 29.5602C90.8079 29.4025 90.9433 29.2651 91.0993 29.1539C91.2288 29.0677 91.3811 29.0219 91.5369 29.0223C91.9896 29.0223 92.2159 29.273 92.2159 29.7746V30.083C92.2159 30.1319 92.1895 30.1545 92.1367 30.1545H92.114C91.9216 30.1545 91.7368 30.1281 91.5972 30.1281C91.1766 30.1042 90.7589 30.2106 90.4014 30.4328C90.2638 30.5262 90.1522 30.6527 90.077 30.8007C90.0018 30.9488 89.9655 31.1133 89.9714 31.2792C89.9617 31.4238 89.9853 31.5688 90.0402 31.703C90.0951 31.8373 90.1799 31.9573 90.2882 32.054C90.5441 32.245 90.8594 32.3396 91.1785 32.3211L91.1559 32.3136ZM91.3445 31.8321C91.1573 31.8458 90.9717 31.7895 90.8239 31.6741C90.7618 31.6163 90.7133 31.5456 90.682 31.4668C90.6507 31.3881 90.6373 31.3035 90.6428 31.219C90.6428 30.7563 90.9786 30.5231 91.6463 30.5231C91.8082 30.5213 91.9699 30.5351 92.1291 30.5645C92.155 30.5676 92.179 30.5796 92.197 30.5983C92.2127 30.6201 92.2194 30.647 92.2159 30.6736V31.1926C92.2177 31.2474 92.2101 31.3022 92.1933 31.3544C92.1781 31.4002 92.1537 31.4424 92.1216 31.4785C92.0375 31.5824 91.932 31.667 91.8123 31.7268C91.6679 31.8012 91.5069 31.8374 91.3445 31.8321ZM93.9097 32.2082C93.893 32.1915 93.8801 32.1715 93.8716 32.1495C93.8632 32.1274 93.8594 32.1039 93.8606 32.0803V32.0314C93.8592 31.9881 93.8738 31.9458 93.9016 31.9125C93.9295 31.8793 93.9686 31.8573 94.0115 31.8509L94.1662 31.8058C94.2224 31.7895 94.2724 31.7567 94.3095 31.7117C94.3406 31.6582 94.3551 31.5967 94.351 31.5349V29.2781C94.3515 29.2558 94.3434 29.2343 94.3284 29.2179C94.3203 29.2091 94.3103 29.2022 94.2992 29.1977C94.2882 29.1932 94.2762 29.1911 94.2643 29.1915H94.004C93.9809 29.1929 93.9578 29.1893 93.9363 29.1808C93.9148 29.1724 93.8954 29.1593 93.8795 29.1426C93.8484 29.106 93.8323 29.059 93.8342 29.011V28.9621C93.8331 28.9189 93.8457 28.8764 93.87 28.8407C93.8944 28.8049 93.9293 28.7776 93.97 28.7627L94.0493 28.7251C94.0951 28.7001 94.136 28.667 94.17 28.6273C94.1939 28.5816 94.2093 28.5319 94.2152 28.4806L94.2567 28.0405C94.2723 27.7035 94.4199 27.3861 94.6679 27.1566C94.9225 26.9551 95.2409 26.851 95.5657 26.8632C95.8122 26.8503 96.0584 26.8927 96.2863 26.9873C96.3655 27.0249 96.407 27.0738 96.407 27.1303C96.4028 27.1676 96.3939 27.2042 96.3806 27.2393L96.2297 27.6155C96.2214 27.6483 96.2025 27.6775 96.1759 27.6986C96.1493 27.7197 96.1165 27.7315 96.0825 27.7321C96.0116 27.7238 95.946 27.6905 95.8977 27.6381C95.7287 27.4684 95.5062 27.3621 95.2677 27.3371C95.1998 27.3354 95.1324 27.3494 95.0708 27.3781C95.0093 27.4069 94.9553 27.4495 94.9131 27.5026C94.8176 27.6261 94.7695 27.7795 94.7773 27.9352C94.7773 28.4618 95.0602 28.7251 95.6299 28.7251H95.7506C95.7739 28.7228 95.7976 28.7256 95.8197 28.7335C95.8418 28.7414 95.8619 28.754 95.8785 28.7706C95.8951 28.7872 95.9078 28.8072 95.9157 28.8292C95.9236 28.8513 95.9265 28.8748 95.9241 28.8981V29.0185C95.9254 29.0417 95.922 29.065 95.9143 29.087C95.9065 29.1089 95.8945 29.1291 95.8788 29.1464C95.8434 29.1772 95.7975 29.1933 95.7506 29.1915H95.0452C95.0326 29.191 95.0201 29.1931 95.0084 29.1976C94.9967 29.2021 94.9861 29.209 94.9773 29.2179C94.9686 29.2253 94.9617 29.2345 94.9571 29.2449C94.9525 29.2554 94.9504 29.2667 94.9508 29.2781V31.5349C94.9479 31.5966 94.9623 31.6578 94.9923 31.7117C95.0291 31.7608 95.0829 31.7944 95.1432 31.8058L95.3696 31.8509C95.3909 31.8532 95.4116 31.8598 95.4304 31.8701C95.4492 31.8805 95.4658 31.8945 95.4791 31.9113C95.4924 31.9281 95.5023 31.9474 95.5081 31.968C95.5139 31.9886 95.5156 32.0102 95.5129 32.0314V32.0803C95.5153 32.1036 95.5124 32.1272 95.5045 32.1492C95.4966 32.1713 95.4839 32.1913 95.4673 32.2079C95.4507 32.2245 95.4306 32.2371 95.4085 32.245C95.3864 32.2529 95.3628 32.2557 95.3394 32.2534H94.0115C93.9888 32.2546 93.9661 32.2512 93.9447 32.2434C93.9233 32.2357 93.9037 32.2237 93.887 32.2082H93.9097ZM99.4324 31.2603C99.4051 31.2403 99.372 31.2297 99.3381 31.2303C99.2609 31.2397 99.1905 31.2789 99.1419 31.3393C99.0396 31.4611 98.9105 31.5576 98.7647 31.6214C98.5855 31.6956 98.3928 31.7315 98.1988 31.7268C97.9377 31.7347 97.6814 31.6553 97.4708 31.5011C97.268 31.3477 97.1188 31.1345 97.0445 30.8917C97.0445 30.8353 97.0445 30.7977 97.0935 30.7789L99.2362 29.9852C99.2745 29.9789 99.3093 29.9591 99.3342 29.9294C99.3591 29.8998 99.3725 29.8622 99.372 29.8235C99.3763 29.7986 99.3763 29.7731 99.372 29.7482C99.3124 29.4234 99.1335 29.1324 98.8703 28.932C98.6025 28.7368 98.2777 28.635 97.9461 28.6424C97.6502 28.6389 97.3591 28.717 97.1049 28.8681C96.8486 29.0229 96.6418 29.2473 96.5088 29.515C96.3614 29.8157 96.2877 30.1471 96.2938 30.4817C96.2868 30.8178 96.3646 31.1502 96.5201 31.4484C96.6644 31.718 96.8812 31.9421 97.1464 32.0954C97.4222 32.251 97.7348 32.3302 98.0517 32.3248C98.3732 32.337 98.6918 32.2602 98.9722 32.1029C99.1943 31.9784 99.3702 31.7858 99.4739 31.5537C99.5006 31.5024 99.516 31.446 99.5192 31.3882C99.5195 31.3625 99.5131 31.3372 99.5005 31.3147C99.4879 31.2923 99.4696 31.2735 99.4475 31.2603H99.4324ZM97.9385 29.1088C98.098 29.1068 98.2544 29.1527 98.3874 29.2404C98.5206 29.3306 98.6191 29.4632 98.6666 29.6166C98.6742 29.6297 98.6782 29.6447 98.6782 29.6598C98.6782 29.675 98.6742 29.6899 98.6666 29.7031C98.6457 29.7269 98.6181 29.744 98.5874 29.752L97.0294 30.3425C96.9766 30.3726 96.9464 30.3425 96.9351 30.3087C96.9329 30.2799 96.9329 30.251 96.9351 30.2222C96.9202 29.9255 97.0232 29.6349 97.2218 29.4135C97.3142 29.315 97.4266 29.2372 97.5515 29.1854C97.6764 29.1335 97.8109 29.1087 97.9461 29.1125" fill="#5E7561"/>
</svg>
