<svg width="172" height="53" viewBox="0 0 172 53" fill="none" xmlns="http://www.w3.org/2000/svg">
<g clip-path="url(#clip0_2083_54717)">
<path d="M17.21 36.5259C22.99 36.5259 30.47 34.5259 30.47 27.2559C30.47 21.9759 26.47 19.6159 20.18 19.1059C25.6 18.4959 28.78 15.4759 28.78 11.4759C28.78 5.73587 23.97 2.92588 15.78 2.92588H0V5.02588L1.38 5.43588C3.22 5.94588 3.33 6.61587 3.33 8.65587V30.7859C3.33 32.7859 3.22 33.4959 1.38 34.0159L0 34.4259V36.5259H17.21ZM11.67 5.93588H13.93C18.18 5.93588 20.84 7.62588 20.84 11.8259C20.84 15.7159 18.84 17.8259 14.59 17.8259H11.67V5.93588ZM11.67 20.7859L15.16 20.9459C19.1 21.0959 22.28 22.5259 22.28 27.2459C22.28 31.9659 18.69 33.5259 14.9 33.5259H11.67V20.7859ZM39.74 37.0259C44.1 37.0259 46.74 35.2859 48.3 32.8259V33.0759C48.3 35.3859 50.04 37.0759 53.42 37.0759C54.6249 37.1452 55.827 36.8973 56.9061 36.3568C57.9853 35.8164 58.9038 35.0023 59.57 33.9959L58.85 32.5259C58.4881 32.8204 58.0366 32.9827 57.57 32.9859C56.49 32.9859 56.19 32.5259 56.19 31.0959V21.0959C56.19 14.4359 52.96 11.2059 44.56 11.2059C38.77 11.2059 33.39 13.6159 33.39 17.7659C33.39 20.1259 34.78 21.5559 37.39 21.5559C37.8824 21.6145 38.3816 21.5637 38.8521 21.4071C39.3227 21.2505 39.7528 20.9921 40.1119 20.6501C40.471 20.3082 40.7503 19.8912 40.9297 19.429C41.1092 18.9667 41.1844 18.4705 41.15 17.9759C41.1786 17.4922 41.0856 17.0091 40.8795 16.5707C40.6734 16.1322 40.3607 15.7524 39.97 15.4659C41.0951 14.6807 42.4381 14.268 43.81 14.2859C46.63 14.2859 48.11 15.7659 48.11 18.4359C48.11 21.3559 46.58 22.5759 41.25 23.8559C34.39 25.5559 32.54 27.7059 32.54 31.0859C32.54 35.0859 35.62 37.0259 39.76 37.0259H39.74ZM43.76 32.6659C41.86 32.6659 40.58 31.7959 40.58 29.6659C40.58 27.5359 42.07 26.6659 44.27 25.8759C45.7092 25.4722 47.0165 24.6961 48.06 23.6259V31.0059C46.8675 32.0456 45.3421 32.6238 43.76 32.6359V32.6659ZM92.15 34.2059C90.31 33.6959 90.21 33.0259 90.21 30.9759V20.2759C90.21 13.5159 86.26 11.2059 81.66 11.2059C79.784 11.198 77.9346 11.6495 76.2734 12.5211C74.6122 13.3927 73.1896 14.6578 72.13 16.2059L72.64 11.2059H71.47L61.47 13.3659V15.3059L62.8 15.6659C64.08 15.9759 64.39 16.5359 64.39 18.3259V30.9759C64.39 32.9759 64.28 33.6959 62.49 34.2059L61.36 34.5159V36.5159H75.62V34.5159L74.55 34.2059C72.75 33.6959 72.65 33.0259 72.65 30.9759V17.8659C74.1009 16.8035 75.8517 16.2292 77.65 16.2259C80.72 16.2259 82.05 17.4559 82.05 21.4059V30.9759C82.05 32.9759 81.95 33.6959 80.11 34.2059L79.03 34.5159V36.5159H93.27V34.5159L92.15 34.2059ZM100.72 8.75588C101.576 8.71869 102.402 8.43129 103.096 7.92928C103.791 7.42727 104.322 6.73267 104.626 5.93149C104.929 5.1303 104.991 4.25771 104.804 3.42174C104.616 2.58576 104.188 1.82311 103.571 1.22819C102.955 0.63328 102.177 0.232228 101.335 0.0746891C100.493 -0.0828498 99.6233 0.010043 98.8335 0.341863C98.0436 0.673683 97.3684 1.22986 96.8914 1.94155C96.4145 2.65323 96.1567 3.48917 96.15 4.34588C96.1336 4.94231 96.2416 5.53562 96.4669 6.08807C96.6923 6.64052 97.0302 7.14003 97.4591 7.55481C97.888 7.9696 98.3985 8.29059 98.9582 8.49736C99.5179 8.70414 100.114 8.79218 100.71 8.75588H100.72ZM93.71 15.3059L95.04 15.6659C96.32 15.9759 96.63 16.5359 96.63 18.3259V41.6359C96.63 44.6359 95.81 45.5759 94.17 45.5759C93.8878 45.609 93.6022 45.5568 93.35 45.4259C93.6462 45.1551 93.8781 44.8215 94.0286 44.4495C94.1792 44.0774 94.2446 43.6764 94.22 43.2759C94.22 41.5859 93.15 40.4059 91.1 40.4059C90.6408 40.3715 90.1795 40.4366 89.7478 40.5968C89.316 40.7571 88.924 41.0086 88.5983 41.3342C88.2727 41.6598 88.0212 42.0519 87.861 42.4837C87.7008 42.9154 87.6356 43.3766 87.67 43.8359C87.67 46.5459 89.87 48.2859 94.74 48.2859C101.34 48.2859 104.88 45.0159 104.88 37.1759V11.1759H103.75L93.75 13.3359L93.71 15.3059ZM122.85 37.0259C131.35 37.0259 137.29 32.1059 137.29 24.0259C137.29 15.9459 131.76 11.1659 122.85 11.1659C114.35 11.1659 108.4 15.9859 108.4 24.0759C108.4 32.1659 113.94 36.9859 122.85 36.9859V37.0259ZM122.95 33.9859C119.52 33.9859 117.26 30.6559 117.26 23.5359C117.26 17.2859 119.36 14.2159 122.74 14.2159C126.12 14.2159 128.48 17.4359 128.48 24.6059C128.48 30.7559 126.38 33.9859 122.95 33.9859ZM142.89 0.585874C142.321 0.544851 141.749 0.62411 141.212 0.818494C140.675 1.01288 140.185 1.31804 139.774 1.71415C139.363 2.11027 139.039 2.58846 138.825 3.11767C138.611 3.64688 138.51 4.21526 138.53 4.78588C138.498 5.2854 138.572 5.78608 138.749 6.25449C138.925 6.72291 139.2 7.14828 139.554 7.50224C139.908 7.8562 140.333 8.13059 140.801 8.30711C141.27 8.48363 141.77 8.55821 142.27 8.52588C142.672 8.52867 143.071 8.46098 143.45 8.32588C143.3 9.90588 142.02 12.3259 138.38 14.0059L139.2 15.9059C144.68 14.2659 147.45 9.80587 147.45 6.11587C147.45 2.79587 145.86 0.585874 142.89 0.585874ZM155.48 37.0059C162.65 37.0059 167.21 33.9259 167.21 28.7559C167.21 24.3559 165.06 22.0959 158.96 20.7559C154.51 19.7559 153.13 18.8659 153.13 17.0159C153.13 15.1659 154.71 14.2059 157.27 14.2059C159.83 14.2059 160.91 14.8659 162.6 17.2059L163.73 18.7359H166.03L165.67 12.5959C162.897 11.6786 159.991 11.2259 157.07 11.2559C150.62 11.2559 146.01 14.3359 146.01 19.4059C146.01 23.8559 148.46 25.8059 154.82 27.4059C158.66 28.4059 160.04 29.2459 160.04 31.1459C160.04 33.0459 158.66 34.1459 155.53 34.1459C153.07 34.1459 151.53 33.4759 149.13 30.6559L148 29.2759H145.7L146.06 35.7259C149.1 36.7129 152.284 37.1827 155.48 37.1159" fill="#FFFCEB"/>
<path d="M110.899 50.1854C111.441 50.1925 111.974 50.0496 112.44 49.7726C112.906 49.4955 113.286 49.095 113.539 48.6154C113.805 48.0649 113.948 47.4632 113.958 46.852C113.968 46.2408 113.846 45.6346 113.599 45.0754C113.382 44.6225 113.034 44.2459 112.599 43.9954C112.155 43.7425 111.65 43.6146 111.139 43.6254C110.871 43.6238 110.604 43.6643 110.349 43.7454C110.121 43.8159 109.903 43.9133 109.699 44.0354C109.666 44.0443 109.632 44.0443 109.599 44.0354C109.539 44.0354 109.509 44.0354 109.509 43.9254V40.7454C109.515 40.6488 109.487 40.5531 109.429 40.4754C109.403 40.4422 109.37 40.4157 109.331 40.3983C109.293 40.3809 109.251 40.373 109.209 40.3754C109.133 40.3764 109.058 40.3934 108.989 40.4254L107.779 40.9054C107.705 40.9271 107.637 40.9646 107.579 41.0154C107.56 41.0808 107.56 41.15 107.579 41.2154V41.2754C107.559 41.3372 107.559 41.4036 107.579 41.4654C107.643 41.5235 107.723 41.5617 107.809 41.5754C107.99 41.5966 108.159 41.6775 108.289 41.8054C108.37 41.9296 108.409 42.0771 108.399 42.2254V49.8554C108.396 49.8903 108.4 49.9255 108.412 49.9584C108.424 49.9913 108.443 50.0212 108.468 50.046C108.493 50.0708 108.523 50.0898 108.556 50.1018C108.589 50.1138 108.624 50.1184 108.659 50.1154C108.712 50.1145 108.764 50.1025 108.813 50.0801C108.861 50.0577 108.904 50.0255 108.939 49.9854L109.199 49.7554C109.236 49.7245 109.281 49.7038 109.329 49.6954C109.38 49.703 109.428 49.7237 109.469 49.7554C109.659 49.893 109.872 49.9947 110.099 50.0554C110.357 50.119 110.623 50.1492 110.889 50.1454L110.899 50.1854ZM110.569 49.3054C110.417 49.3038 110.266 49.2837 110.119 49.2454C109.987 49.2053 109.86 49.1517 109.739 49.0854C109.658 49.0264 109.595 48.9474 109.554 48.8561C109.514 48.7649 109.498 48.6646 109.509 48.5654V45.3254C109.483 45.2001 109.483 45.0707 109.509 44.9454C109.566 44.8488 109.645 44.7666 109.739 44.7054C110.017 44.5422 110.337 44.4656 110.659 44.4854C110.94 44.4761 111.22 44.5296 111.477 44.642C111.735 44.7545 111.965 44.923 112.149 45.1354C112.519 45.6625 112.718 46.2911 112.718 46.9354C112.718 47.5797 112.519 48.2083 112.149 48.7354C111.939 48.9451 111.687 49.1078 111.409 49.213C111.132 49.3181 110.835 49.3633 110.539 49.3454L110.569 49.3054ZM115.539 49.7054C115.344 49.5324 115.192 49.3172 115.093 49.0763C114.994 48.8355 114.952 48.5752 114.969 48.3154C114.961 48.0194 115.027 47.7261 115.161 47.4622C115.296 47.1984 115.494 46.9726 115.739 46.8054C116.372 46.4092 117.113 46.2205 117.859 46.2654C118.169 46.2474 118.479 46.2474 118.789 46.2654C118.879 46.2654 118.929 46.2654 118.929 46.1354V45.5854C118.929 44.7054 118.519 44.2754 117.719 44.2754C117.442 44.2744 117.171 44.3543 116.939 44.5054C116.659 44.7024 116.418 44.95 116.229 45.2354C116.185 45.3097 116.123 45.3716 116.049 45.4154C115.994 45.4481 115.932 45.4654 115.869 45.4654C115.807 45.4683 115.746 45.4467 115.699 45.4054C115.647 45.3561 115.603 45.2987 115.569 45.2354L115.249 44.5254C115.217 44.4599 115.2 44.3882 115.199 44.3154C115.201 44.2516 115.222 44.19 115.259 44.1383C115.297 44.0866 115.349 44.0473 115.409 44.0254C115.725 43.8665 116.061 43.7521 116.409 43.6854C116.816 43.5982 117.232 43.5546 117.649 43.5554C117.968 43.5258 118.29 43.5619 118.594 43.6617C118.899 43.7615 119.179 43.9227 119.419 44.1354C119.824 44.6174 120.028 45.2369 119.989 45.8654V48.8654C119.989 49.1454 120.099 49.2754 120.319 49.2754C120.397 49.2784 120.473 49.2575 120.539 49.2154C120.61 49.164 120.674 49.1035 120.729 49.0354L120.849 48.9154C120.89 48.8787 120.943 48.8575 120.999 48.8554C121.036 48.8537 121.073 48.8599 121.108 48.8737C121.142 48.8875 121.173 48.9086 121.199 48.9354C121.25 49.0005 121.275 49.0827 121.269 49.1654C121.272 49.2948 121.245 49.4231 121.192 49.5408C121.138 49.6586 121.058 49.7627 120.959 49.8454C120.742 50.0384 120.459 50.1389 120.169 50.1254C119.937 50.1367 119.707 50.0774 119.509 49.9554C119.318 49.806 119.164 49.6143 119.059 49.3954C119.049 49.3738 119.033 49.3551 119.014 49.3412C118.995 49.3272 118.972 49.3183 118.949 49.3154C118.924 49.316 118.9 49.3216 118.878 49.3319C118.855 49.3422 118.835 49.357 118.819 49.3754C118.605 49.6281 118.334 49.8267 118.029 49.9554C117.712 50.0862 117.372 50.1541 117.029 50.1554C116.461 50.1918 115.9 50.0213 115.449 49.6754L115.539 49.7054ZM118.159 49.0954C118.368 48.9807 118.555 48.8281 118.709 48.6454C118.763 48.579 118.807 48.5049 118.839 48.4254C118.852 48.3292 118.852 48.2316 118.839 48.1354V47.2054C118.842 47.1823 118.84 47.1588 118.833 47.1365C118.826 47.1142 118.815 47.0935 118.8 47.0757C118.785 47.0578 118.767 47.0433 118.746 47.0329C118.725 47.0226 118.702 47.0166 118.679 47.0154C118.396 46.9592 118.108 46.9324 117.819 46.9354C116.629 46.9354 116.039 47.3554 116.039 48.1854C116.028 48.3358 116.051 48.4868 116.106 48.6271C116.161 48.7673 116.248 48.8933 116.359 48.9954C116.62 49.2002 116.948 49.3001 117.279 49.2754C117.569 49.2841 117.857 49.2223 118.119 49.0954H118.159ZM121.919 50.0254H124.139C124.181 50.0276 124.224 50.0207 124.264 50.0052C124.303 49.9896 124.339 49.9659 124.369 49.9354C124.421 49.8704 124.45 49.789 124.449 49.7054V49.6254C124.453 49.5506 124.432 49.4766 124.389 49.4154C124.365 49.3845 124.335 49.3588 124.3 49.3399C124.266 49.321 124.228 49.3093 124.189 49.3054L123.919 49.2254C123.812 49.2019 123.716 49.1418 123.649 49.0554C123.597 48.9571 123.573 48.8465 123.579 48.7354V47.8854C123.58 47.8477 123.588 47.8106 123.603 47.7762C123.619 47.7419 123.641 47.711 123.669 47.6854L124.439 46.9754C124.474 46.9624 124.513 46.9624 124.549 46.9754C124.575 46.9775 124.601 46.987 124.622 47.003C124.643 47.0189 124.659 47.0406 124.669 47.0654L126.529 49.8454C126.578 49.9151 126.639 49.9759 126.709 50.0254C126.781 50.0594 126.859 50.0765 126.939 50.0754H127.999C128.041 50.0764 128.083 50.0689 128.123 50.0535C128.162 50.038 128.198 50.0149 128.229 49.9854C128.26 49.9561 128.284 49.9202 128.3 49.8805C128.315 49.8407 128.322 49.798 128.319 49.7554V49.6754C128.316 49.5957 128.288 49.5191 128.237 49.4576C128.186 49.3961 128.117 49.3531 128.039 49.3354L127.729 49.2454C127.585 49.2054 127.452 49.1337 127.339 49.0354C127.188 48.8594 127.051 48.6722 126.929 48.4754L125.479 46.3054C125.45 46.274 125.434 46.233 125.434 46.1904C125.434 46.1478 125.45 46.1068 125.479 46.0754L126.269 45.3654C126.509 45.1654 126.709 44.9954 126.889 44.8654C127.055 44.738 127.246 44.6461 127.449 44.5954L127.879 44.4554C127.948 44.4422 128.009 44.4027 128.049 44.3454C128.068 44.2802 128.068 44.2106 128.049 44.1454V44.0554C128.05 43.9748 128.022 43.8965 127.969 43.8354C127.936 43.8065 127.898 43.7844 127.857 43.7707C127.816 43.7569 127.772 43.7517 127.729 43.7554H125.489C125.447 43.7525 125.405 43.7581 125.366 43.7719C125.326 43.7856 125.29 43.8072 125.259 43.8354C125.229 43.8636 125.206 43.8978 125.19 43.9358C125.175 43.9737 125.167 44.0145 125.169 44.0554V44.1454C125.167 44.2038 125.184 44.2612 125.219 44.3084C125.253 44.3555 125.303 44.3897 125.359 44.4054L125.659 44.5254C125.692 44.5302 125.723 44.5471 125.745 44.5729C125.767 44.5986 125.779 44.6315 125.779 44.6654C125.77 44.7202 125.742 44.7699 125.699 44.8054L123.699 46.5754C123.685 46.5914 123.669 46.6042 123.65 46.6129C123.63 46.6215 123.61 46.6258 123.589 46.6254C123.563 46.6354 123.535 46.6354 123.509 46.6254C123.497 46.5896 123.497 46.5512 123.509 46.5154V40.8354C123.515 40.7388 123.487 40.6431 123.429 40.5654C123.404 40.5315 123.37 40.5045 123.332 40.4871C123.293 40.4696 123.251 40.4621 123.209 40.4654C123.133 40.4664 123.058 40.4834 122.989 40.5154L121.789 40.9954C121.714 41.0147 121.645 41.0525 121.589 41.1054C121.546 41.1627 121.524 41.2337 121.529 41.3054V41.3654C121.525 41.3995 121.529 41.434 121.539 41.4666C121.549 41.4993 121.566 41.5295 121.589 41.5554C121.649 41.6137 121.726 41.6521 121.809 41.6654C121.991 41.6893 122.16 41.7738 122.289 41.9054C122.373 42.0358 122.412 42.1906 122.399 42.3454V48.8154C122.408 48.9267 122.384 49.0381 122.329 49.1354C122.261 49.2218 122.166 49.2819 122.059 49.3054L121.799 49.3854C121.723 49.3974 121.654 49.4364 121.604 49.4951C121.555 49.5539 121.528 49.6285 121.529 49.7054V49.7854C121.526 49.828 121.533 49.8707 121.548 49.9105C121.564 49.9502 121.588 49.9861 121.619 50.0154C121.649 50.0449 121.685 50.068 121.725 50.0835C121.764 50.0989 121.806 50.1064 121.849 50.1054L121.919 50.0254ZM134.689 48.5254C134.68 48.6261 134.653 48.7243 134.609 48.8154C134.427 49.2357 134.115 49.5864 133.719 49.8154C133.219 50.095 132.652 50.2333 132.079 50.2154C131.514 50.2252 130.957 50.08 130.469 49.7954C129.992 49.5287 129.603 49.1291 129.349 48.6454C129.07 48.1157 128.929 47.5241 128.939 46.9254C128.927 46.3257 129.061 45.7321 129.329 45.1954C129.562 44.7179 129.927 44.3172 130.381 44.0408C130.834 43.7643 131.358 43.6236 131.889 43.6354C132.482 43.6185 133.063 43.8017 133.539 44.1554C134.003 44.5176 134.32 45.0366 134.429 45.6154C134.435 45.6552 134.435 45.6956 134.429 45.7354C134.43 45.8056 134.407 45.874 134.363 45.9289C134.319 45.9837 134.258 46.0214 134.189 46.0354L130.369 47.4454C130.33 47.463 130.3 47.4942 130.283 47.533C130.267 47.5718 130.265 47.6155 130.279 47.6554C130.421 48.0849 130.689 48.4614 131.049 48.7354C131.42 49.0142 131.875 49.1587 132.339 49.1454C132.682 49.1525 133.022 49.0878 133.339 48.9554C133.599 48.839 133.83 48.6685 134.019 48.4554C134.107 48.3476 134.231 48.2763 134.369 48.2554C134.429 48.2552 134.488 48.2725 134.539 48.3054C134.579 48.331 134.612 48.3665 134.635 48.4085C134.658 48.4505 134.669 48.4976 134.669 48.5454L134.689 48.5254ZM130.539 45.0054C130.185 45.399 130.002 45.9168 130.029 46.4454C130.024 46.4986 130.024 46.5522 130.029 46.6054C130.029 46.6954 130.099 46.7154 130.199 46.6654L132.969 45.6154C133.037 45.6049 133.1 45.5734 133.149 45.5254C133.164 45.5014 133.172 45.4737 133.172 45.4454C133.172 45.4171 133.164 45.3893 133.149 45.3654C133.06 45.0934 132.884 44.8581 132.649 44.6954C132.414 44.5419 132.139 44.4618 131.859 44.4654C131.618 44.4568 131.377 44.5006 131.155 44.5939C130.932 44.6871 130.732 44.8275 130.569 45.0054H130.539ZM135.619 50.0854H137.989C138.03 50.0868 138.071 50.0795 138.108 50.064C138.146 50.0485 138.181 50.0251 138.209 49.9954C138.238 49.9671 138.26 49.9326 138.274 49.8945C138.288 49.8564 138.293 49.8157 138.289 49.7754V49.6854C138.289 49.4954 138.209 49.3854 138.039 49.3654L137.639 49.2854C137.585 49.2765 137.533 49.2569 137.487 49.2277C137.44 49.1985 137.4 49.1603 137.369 49.1154C137.311 49.0192 137.283 48.9077 137.289 48.7954V45.7254C137.289 45.1454 137.549 44.8554 138.079 44.8554C138.344 44.8687 138.599 44.963 138.809 45.1254L138.919 45.1854L139.059 45.2554C139.115 45.2649 139.173 45.2649 139.229 45.2554C139.268 45.2594 139.307 45.2542 139.343 45.2403C139.38 45.2264 139.413 45.2042 139.439 45.1754C139.471 45.1426 139.495 45.1033 139.511 45.0602C139.527 45.0171 139.533 44.9711 139.529 44.9254V44.0554C139.538 43.9398 139.502 43.8252 139.429 43.7354C139.388 43.6961 139.339 43.666 139.286 43.6471C139.232 43.6281 139.175 43.6207 139.119 43.6254C138.828 43.6343 138.542 43.7024 138.279 43.8254C137.989 43.956 137.72 44.1278 137.479 44.3354C137.442 44.3731 137.392 44.3946 137.339 44.3954C137.313 44.4054 137.285 44.4054 137.259 44.3954C137.25 44.366 137.25 44.3348 137.259 44.3054V43.9954C137.259 43.7554 137.159 43.6354 136.959 43.6354C136.893 43.6222 136.825 43.6222 136.759 43.6354L135.609 44.0854C135.429 44.1454 135.339 44.2454 135.339 44.3854V44.5254C135.336 44.5618 135.341 44.5984 135.353 44.6329C135.365 44.6673 135.384 44.6988 135.409 44.7254C135.466 44.7819 135.54 44.8202 135.619 44.8354C135.796 44.8644 135.961 44.9404 136.099 45.0554C136.188 45.1801 136.231 45.3324 136.219 45.4854V48.8154C136.226 48.931 136.198 49.0461 136.139 49.1454C136.071 49.2294 135.975 49.2862 135.869 49.3054L135.609 49.3854C135.533 49.3974 135.464 49.4364 135.414 49.4951C135.365 49.5539 135.338 49.6285 135.339 49.7054V49.7954C135.339 49.8776 135.372 49.9565 135.43 50.0146C135.488 50.0727 135.567 50.1054 135.649 50.1054L135.619 50.0854ZM141.469 52.8654H142.149C142.224 52.8698 142.298 52.8487 142.359 52.8054C142.418 52.756 142.466 52.6947 142.499 52.6254L143.679 49.7654L145.519 45.3754C145.591 45.1823 145.678 44.9951 145.779 44.8154C145.85 44.7127 145.947 44.6301 146.059 44.5754L146.279 44.4754C146.34 44.4423 146.394 44.3983 146.439 44.3454C146.456 44.29 146.456 44.2308 146.439 44.1754V44.0854C146.439 43.8854 146.339 43.7854 146.129 43.7854H144.429C144.387 43.7819 144.345 43.7872 144.305 43.801C144.266 43.8148 144.229 43.8367 144.199 43.8654C144.171 43.8945 144.149 43.9291 144.136 43.967C144.122 44.0049 144.116 44.0452 144.119 44.0854V44.1754C144.112 44.2358 144.128 44.2965 144.163 44.3462C144.198 44.3959 144.25 44.4312 144.309 44.4454L144.629 44.5654C144.67 44.5766 144.707 44.6015 144.732 44.636C144.757 44.6705 144.77 44.7126 144.769 44.7554C144.776 44.8018 144.776 44.849 144.769 44.8954L143.379 48.4054C143.379 48.4054 143.379 48.4754 143.299 48.4754C143.219 48.4754 143.239 48.4754 143.219 48.4054L141.669 44.0254C141.644 43.9508 141.596 43.8866 141.53 43.8431C141.465 43.7996 141.387 43.7793 141.309 43.7854H140.309C140.267 43.7811 140.226 43.7857 140.186 43.7989C140.147 43.8122 140.111 43.8338 140.08 43.8623C140.05 43.8907 140.026 43.9254 140.01 43.9639C139.995 44.0024 139.987 44.0438 139.989 44.0854V44.1754C139.964 44.2398 139.964 44.311 139.989 44.3754C140.034 44.439 140.096 44.4877 140.169 44.5154L140.379 44.6054C140.496 44.6468 140.595 44.7282 140.659 44.8354C140.763 45.0101 140.85 45.1943 140.919 45.3854L142.449 49.4454C142.512 49.5912 142.549 49.7469 142.559 49.9054C142.548 50.1229 142.479 50.3336 142.359 50.5154L141.229 52.5154C141.22 52.565 141.22 52.6158 141.229 52.6654C141.23 52.6938 141.236 52.7218 141.248 52.7476C141.26 52.7734 141.278 52.7964 141.299 52.8154C141.353 52.8572 141.42 52.8785 141.489 52.8754L141.469 52.8654ZM150.189 49.8754C149.713 49.6109 149.326 49.2105 149.079 48.7254C148.809 48.1931 148.675 47.6022 148.689 47.0054C148.674 46.414 148.801 45.8278 149.059 45.2954C149.284 44.8153 149.644 44.4112 150.095 44.1323C150.546 43.8535 151.069 43.7121 151.599 43.7254C151.787 43.733 151.974 43.7531 152.159 43.7854C152.283 43.817 152.411 43.8371 152.539 43.8454C152.658 43.8464 152.777 43.8261 152.889 43.7854C152.962 43.7547 153.04 43.7345 153.119 43.7254C153.177 43.707 153.24 43.707 153.299 43.7254C153.348 43.7807 153.392 43.841 153.429 43.9054L154.059 45.2954C154.068 45.355 154.068 45.4158 154.059 45.4754C154.062 45.5273 154.048 45.5788 154.019 45.6221C153.99 45.6654 153.948 45.6981 153.899 45.7154C153.846 45.7432 153.788 45.7602 153.729 45.7654C153.675 45.7635 153.623 45.7489 153.576 45.7228C153.529 45.6968 153.489 45.6599 153.459 45.6154C153.167 45.2665 152.831 44.9572 152.459 44.6954C152.194 44.5138 151.88 44.4194 151.559 44.4254C151.231 44.424 150.911 44.5177 150.635 44.6953C150.36 44.8728 150.143 45.1265 150.009 45.4254C149.839 45.7739 149.753 46.1576 149.759 46.5454C149.752 47.0116 149.851 47.4731 150.049 47.8954C150.233 48.2769 150.516 48.6017 150.869 48.8354C151.239 49.061 151.666 49.1756 152.099 49.1654C152.384 49.1738 152.668 49.1332 152.939 49.0454C153.165 48.9659 153.37 48.836 153.539 48.6654C153.631 48.5647 153.754 48.4978 153.889 48.4754C153.938 48.4635 153.99 48.4635 154.039 48.4754C154.082 48.4964 154.118 48.5292 154.142 48.5699C154.167 48.6107 154.18 48.6577 154.179 48.7054C154.177 48.8194 154.142 48.9304 154.079 49.0254C153.883 49.3925 153.575 49.687 153.199 49.8654C152.775 50.0814 152.305 50.1912 151.829 50.1854C151.241 50.1989 150.661 50.0538 150.149 49.7654L150.189 49.8754ZM156.999 50.1854C157.342 50.1829 157.681 50.115 157.999 49.9854C158.3 49.8538 158.566 49.6555 158.779 49.4054C158.795 49.387 158.815 49.3722 158.838 49.3619C158.86 49.3516 158.884 49.346 158.909 49.3454C158.932 49.3483 158.955 49.3572 158.974 49.3711C158.993 49.3851 159.009 49.4038 159.019 49.4254C159.124 49.6443 159.278 49.836 159.469 49.9854C159.667 50.1063 159.897 50.1655 160.129 50.1554C160.419 50.1689 160.702 50.0684 160.919 49.8754C161.018 49.7927 161.098 49.6886 161.152 49.5708C161.205 49.4531 161.232 49.3248 161.229 49.1954C161.235 49.1127 161.21 49.0305 161.159 48.9654C161.134 48.938 161.103 48.9166 161.068 48.9027C161.033 48.8889 160.996 48.883 160.959 48.8854C160.906 48.8862 160.856 48.9077 160.819 48.9454C160.771 48.9801 160.727 49.0203 160.689 49.0654C160.636 49.1355 160.572 49.1964 160.499 49.2454C160.433 49.2875 160.357 49.3084 160.279 49.3054C160.059 49.3054 159.949 49.1754 159.949 48.8954V45.8954C159.988 45.2669 159.784 44.6474 159.379 44.1654C159.139 43.9527 158.859 43.7915 158.554 43.6917C158.25 43.5919 157.928 43.5557 157.609 43.5854C157.192 43.5846 156.776 43.6282 156.369 43.7154C156.021 43.7821 155.685 43.8965 155.369 44.0554C155.309 44.0773 155.257 44.1166 155.22 44.1683C155.182 44.22 155.161 44.2816 155.159 44.3454C155.16 44.4182 155.177 44.4899 155.209 44.5554L155.529 45.2654C155.563 45.3287 155.607 45.3861 155.659 45.4354C155.706 45.4758 155.767 45.4972 155.829 45.4954C155.895 45.4944 155.961 45.4772 156.019 45.4454C156.088 45.3981 156.146 45.3368 156.189 45.2654C156.378 44.98 156.619 44.7324 156.899 44.5354C157.132 44.3859 157.402 44.3061 157.679 44.3054C158.489 44.3054 158.889 44.7354 158.889 45.6154V46.1654C158.889 46.2554 158.839 46.2954 158.749 46.2954C158.439 46.277 158.129 46.277 157.819 46.2954C157.073 46.2518 156.333 46.4405 155.699 46.8354C155.454 47.0026 155.256 47.2284 155.121 47.4922C154.987 47.756 154.921 48.0494 154.929 48.3454C154.912 48.6052 154.954 48.8655 155.053 49.1063C155.152 49.3472 155.304 49.5624 155.499 49.7354C155.95 50.0813 156.511 50.2518 157.079 50.2154L156.999 50.1854ZM157.369 49.3354C157.038 49.3601 156.71 49.2602 156.449 49.0554C156.338 48.9533 156.251 48.8273 156.196 48.6871C156.141 48.5468 156.118 48.3958 156.129 48.2454C156.129 47.4154 156.719 46.9954 157.909 46.9954C158.198 46.9924 158.486 47.0192 158.769 47.0754C158.793 47.075 158.816 47.0799 158.838 47.0897C158.86 47.0996 158.879 47.1141 158.894 47.1323C158.909 47.1505 158.92 47.1719 158.927 47.1949C158.933 47.2179 158.933 47.242 158.929 47.2654V48.1954C158.947 48.2912 158.947 48.3896 158.929 48.4854C158.897 48.5649 158.853 48.639 158.799 48.7054C158.645 48.8881 158.458 49.0407 158.249 49.1554C157.987 49.2823 157.699 49.3441 157.409 49.3354H157.369ZM161.979 49.9954C161.95 49.9671 161.928 49.9326 161.914 49.8945C161.9 49.8564 161.895 49.8157 161.899 49.7754V49.6854C161.898 49.6085 161.925 49.5339 161.974 49.4751C162.024 49.4164 162.093 49.3774 162.169 49.3654L162.439 49.2854C162.538 49.2571 162.626 49.1975 162.689 49.1154C162.754 49.0223 162.783 48.9083 162.769 48.7954V44.7454C162.775 44.7296 162.779 44.7126 162.779 44.6954C162.779 44.6782 162.775 44.6612 162.769 44.6454C162.74 44.615 162.701 44.5971 162.659 44.5954H162.189C162.148 44.5975 162.107 44.5905 162.069 44.5749C162.031 44.5593 161.997 44.5356 161.969 44.5054C161.941 44.4744 161.919 44.4381 161.905 44.3986C161.892 44.3591 161.886 44.3172 161.889 44.2754V44.1854C161.887 44.1081 161.91 44.0322 161.953 43.9679C161.995 43.9036 162.057 43.8539 162.129 43.8254L162.269 43.7654C162.351 43.7212 162.423 43.6598 162.479 43.5854C162.529 43.5069 162.559 43.4179 162.569 43.3254L162.639 42.5354C162.671 41.9335 162.941 41.369 163.389 40.9654C163.839 40.607 164.404 40.4224 164.979 40.4454C165.42 40.4198 165.861 40.4951 166.269 40.6654C166.409 40.7354 166.489 40.8154 166.489 40.9254C166.476 40.9909 166.456 41.0547 166.429 41.1154L166.159 41.7854C166.145 41.8418 166.114 41.8922 166.068 41.9284C166.023 41.9647 165.967 41.9847 165.909 41.9854C165.78 41.9736 165.66 41.917 165.569 41.8254C165.273 41.5223 164.88 41.3314 164.459 41.2854C164.338 41.2803 164.218 41.3039 164.109 41.3543C163.999 41.4048 163.903 41.4805 163.829 41.5754C163.655 41.7933 163.566 42.0669 163.579 42.3454C163.579 43.2854 164.089 43.7654 165.099 43.7654H165.149C165.189 43.7614 165.23 43.7665 165.268 43.7803C165.306 43.7942 165.341 43.8164 165.369 43.8454C165.397 43.8745 165.418 43.9091 165.432 43.947C165.446 43.9848 165.452 44.0252 165.449 44.0654V44.2854C165.452 44.3272 165.447 44.3693 165.433 44.4089C165.419 44.4485 165.398 44.4848 165.369 44.5154C165.309 44.5698 165.23 44.5985 165.149 44.5954H163.909C163.867 44.5971 163.828 44.615 163.799 44.6454C163.791 44.6609 163.787 44.678 163.787 44.6954C163.787 44.7128 163.791 44.7299 163.799 44.7454V48.7954C163.79 48.9067 163.814 49.0181 163.869 49.1154C163.9 49.1603 163.94 49.1985 163.987 49.2277C164.033 49.2569 164.085 49.2765 164.139 49.2854L164.539 49.3654C164.578 49.3678 164.615 49.3781 164.65 49.3958C164.684 49.4136 164.715 49.4382 164.739 49.4683C164.764 49.4984 164.781 49.5332 164.792 49.5706C164.802 49.6079 164.804 49.6471 164.799 49.6854V49.7754C164.799 49.8576 164.766 49.9365 164.708 49.9946C164.65 50.0527 164.571 50.0854 164.489 50.0854H162.129C162.086 50.0876 162.044 50.0807 162.004 50.0652C161.965 50.0496 161.929 50.0259 161.899 49.9954H161.979ZM171.769 48.3054C171.723 48.2708 171.666 48.2532 171.609 48.2554C171.471 48.2763 171.347 48.3476 171.259 48.4554C171.069 48.6716 170.833 48.8425 170.569 48.9554C170.253 49.0895 169.912 49.1543 169.569 49.1454C169.105 49.1556 168.651 49.0114 168.279 48.7354C167.922 48.4604 167.657 48.0839 167.519 47.6554C167.509 47.6359 167.504 47.6146 167.503 47.5929C167.503 47.5712 167.507 47.5496 167.515 47.5296C167.524 47.5096 167.537 47.4918 167.553 47.4772C167.569 47.4627 167.588 47.4518 167.609 47.4454L171.419 46.0354C171.489 46.0235 171.554 45.9867 171.599 45.9316C171.645 45.8766 171.67 45.807 171.669 45.7354C171.669 45.6854 171.669 45.6454 171.669 45.6154C171.56 45.0341 171.239 44.514 170.769 44.1554C170.294 43.8002 169.712 43.6169 169.119 43.6354C168.595 43.6276 168.079 43.7662 167.629 44.0354C167.171 44.3116 166.803 44.7145 166.569 45.1954C166.301 45.7321 166.167 46.3257 166.179 46.9254C166.165 47.5233 166.303 48.1149 166.579 48.6454C166.836 49.1271 167.224 49.526 167.699 49.7954C168.198 50.065 168.757 50.2061 169.324 50.2061C169.891 50.2061 170.45 50.065 170.949 49.7954C171.348 49.5669 171.664 49.2164 171.849 48.7954C171.89 48.7041 171.914 48.6056 171.919 48.5054C171.922 48.4573 171.911 48.4093 171.888 48.367C171.865 48.3246 171.831 48.2894 171.789 48.2654L171.769 48.3054ZM169.079 44.4254C169.362 44.4216 169.641 44.5017 169.879 44.6554C170.114 44.8181 170.29 45.0535 170.379 45.3254C170.394 45.3494 170.402 45.3771 170.402 45.4054C170.402 45.4337 170.394 45.4615 170.379 45.4854C170.341 45.5269 170.292 45.5579 170.239 45.5754L167.459 46.6254C167.369 46.6254 167.309 46.6254 167.299 46.5654C167.293 46.5122 167.293 46.4586 167.299 46.4054C167.272 45.8768 167.455 45.359 167.809 44.9654C167.973 44.7891 168.173 44.6497 168.396 44.5566C168.618 44.4635 168.858 44.4188 169.099 44.4254" fill="#FFFCEB"/>
</g>
<defs>
<clipPath id="clip0_2083_54717">
<rect width="172" height="53" fill="white"/>
</clipPath>
</defs>
</svg>
