<svg width="24" height="24" viewBox="0 0 24 24" fill="none" xmlns="http://www.w3.org/2000/svg">
<path fill-rule="evenodd" clip-rule="evenodd" d="M13.7496 4.7465C13.3368 4.57979 12.8952 4.49601 12.45 4.49997C12.0027 4.49336 11.5584 4.5751 11.1428 4.74051C10.7271 4.90592 10.3481 5.15173 10.0276 5.46388C9.7071 5.77602 9.45135 6.14835 9.27502 6.55952C9.09869 6.97069 9.00523 7.41261 9.00002 7.85997C9.00002 8.77099 9.36192 9.6447 10.0061 10.2889C10.6503 10.9331 11.524 11.295 12.435 11.295C13.346 11.295 14.2197 10.9331 14.8639 10.2889C15.5081 9.6447 15.87 8.77099 15.87 7.85997C15.8661 7.41478 15.7745 6.97473 15.6005 6.56494C15.4265 6.15514 15.1735 5.78363 14.8559 5.47163C14.5384 5.15962 14.1624 4.91322 13.7496 4.7465ZM8.9799 4.41037C9.90417 3.49922 11.1522 2.99198 12.45 2.99997C13.0922 2.99602 13.7288 3.11859 14.3236 3.36069C14.9184 3.6028 15.4597 3.95968 15.9166 4.41098C16.3735 4.86227 16.737 5.39914 16.9863 5.99092C17.2357 6.5827 17.3661 7.2178 17.37 7.85997C17.3129 9.12777 16.769 10.3247 15.8517 11.2016C14.9343 12.0786 13.7141 12.568 12.445 12.568C11.1759 12.568 9.95573 12.0786 9.03837 11.2016C8.12101 10.3247 7.57716 9.12777 7.52002 7.85997C7.53059 6.56214 8.05562 5.32152 8.9799 4.41037ZM8.38991 14C9.62465 13.2879 11.0245 12.912 12.4499 12.91C13.875 12.9143 15.2743 13.29 16.5099 14C17.5896 14.6356 18.4739 15.5556 19.0664 16.6595C19.659 17.7634 19.9369 19.0089 19.8699 20.26C19.8673 20.4571 19.7871 20.6454 19.6467 20.7838C19.5064 20.9223 19.3171 21 19.1199 21C18.9218 20.9948 18.7336 20.9124 18.5954 20.7704C18.4572 20.6285 18.3798 20.4381 18.3799 20.24C18.4473 19.2437 18.236 18.2483 17.7697 17.3652C17.3035 16.4821 16.6006 15.7463 15.7399 15.24C14.7358 14.6644 13.5973 14.3642 12.4399 14.37C11.2792 14.3629 10.1372 14.6631 9.12992 15.24C8.27077 15.748 7.56923 16.4842 7.1032 17.3668C6.63717 18.2495 6.42489 19.244 6.48992 20.24C6.49124 20.3385 6.47314 20.4363 6.43667 20.5278C6.40019 20.6193 6.34605 20.7027 6.27734 20.7733C6.20862 20.8438 6.12667 20.9002 6.03618 20.9391C5.94568 20.978 5.84841 20.9987 5.74992 21C5.55272 21 5.36346 20.9223 5.22309 20.7838C5.08272 20.6454 5.00254 20.4571 4.99992 20.26C4.93478 19.0057 5.21675 17.7578 5.81483 16.6534C6.4129 15.549 7.30392 14.6309 8.38991 14Z" fill="black"/>
</svg>
