<svg xmlns="http://www.w3.org/2000/svg" xmlns:xlink="http://www.w3.org/1999/xlink" width="40" height="40" viewBox="0 0 40 40">
  <defs>
    <clipPath id="clip-path">
      <circle id="Ellipse_757" data-name="Ellipse 757" cx="20" cy="20" r="20" transform="translate(276 3401)" fill="#9d9d9d"/>
    </clipPath>
    <radialGradient id="radial-gradient" cx="0.065" cy="0.978" r="1.27" gradientTransform="translate(0)" gradientUnits="objectBoundingBox">
      <stop offset="0.09" stop-color="#fa8f21"/>
      <stop offset="0.78" stop-color="#d82d7e"/>
    </radialGradient>
  </defs>
  <g id="Group_3120" data-name="Group 3120" transform="translate(-261 -3530)">
    <g id="Mask_Group_83" data-name="Mask Group 83" transform="translate(-15 129)" clip-path="url(#clip-path)">
      <path id="Path_36231" data-name="Path 36231" d="M10.33,40.6a13.716,13.716,0,0,1-4.614-.855,7.72,7.72,0,0,1-2.857-1.859A7.661,7.661,0,0,1,1,35.026a13.716,13.716,0,0,1-.855-4.614C.024,27.792,0,27.007,0,20.371s.027-7.42.144-10.041A13.793,13.793,0,0,1,1,5.716,7.75,7.75,0,0,1,2.857,2.857,7.671,7.671,0,0,1,5.715,1,13.716,13.716,0,0,1,10.329.144C12.949.024,13.736,0,20.369,0s7.42.027,10.041.144A13.793,13.793,0,0,1,35.024,1a7.69,7.69,0,0,1,2.857,1.859A7.7,7.7,0,0,1,39.74,5.715a13.716,13.716,0,0,1,.855,4.614c.12,2.621.144,3.406.144,10.041s-.024,7.42-.144,10.041a13.779,13.779,0,0,1-.855,4.614,8.228,8.228,0,0,1-4.716,4.715,13.716,13.716,0,0,1-4.614.855c-2.619.12-3.406.144-10.041.144s-7.42-.023-10.039-.144" transform="translate(275.261 3400.261)" fill="url(#radial-gradient)"/>
    </g>
    <path id="Path_36233" data-name="Path 36233" d="M442.7,449.787a3.422,3.422,0,1,1,3.422,3.422,3.422,3.422,0,0,1-3.422-3.422m-1.85,0a5.272,5.272,0,1,0,5.272-5.272,5.272,5.272,0,0,0-5.272,5.272m9.52-5.481a1.232,1.232,0,1,0,1.232-1.232h0a1.233,1.233,0,0,0-1.232,1.232m-8.4,13.838a5.674,5.674,0,0,1-1.907-.353,3.4,3.4,0,0,1-1.949-1.948,5.668,5.668,0,0,1-.353-1.907c-.05-1.082-.06-1.407-.06-4.149s.011-3.066.06-4.149a5.711,5.711,0,0,1,.353-1.907,3.4,3.4,0,0,1,1.949-1.949,5.668,5.668,0,0,1,1.907-.353c1.082-.05,1.407-.06,4.148-.06s3.066.011,4.149.06a5.714,5.714,0,0,1,1.907.353,3.4,3.4,0,0,1,1.949,1.949,5.669,5.669,0,0,1,.353,1.907c.05,1.083.06,1.407.06,4.149s-.01,3.066-.06,4.149a5.7,5.7,0,0,1-.353,1.907,3.4,3.4,0,0,1-1.949,1.948,5.67,5.67,0,0,1-1.907.353c-1.082.05-1.407.06-4.149.06s-3.066-.01-4.148-.06m-.085-18.562a7.529,7.529,0,0,0-2.492.477,5.249,5.249,0,0,0-3,3,7.53,7.53,0,0,0-.477,2.492c-.051,1.095-.062,1.445-.062,4.233s.012,3.138.062,4.233a7.529,7.529,0,0,0,.477,2.492,5.249,5.249,0,0,0,3,3,7.536,7.536,0,0,0,2.492.477c1.1.05,1.445.062,4.233.062s3.138-.012,4.233-.062a7.531,7.531,0,0,0,2.492-.477,5.249,5.249,0,0,0,3-3,7.506,7.506,0,0,0,.477-2.492c.05-1.1.061-1.445.061-4.233s-.012-3.138-.061-4.233a7.526,7.526,0,0,0-.477-2.492,5.251,5.251,0,0,0-3-3,7.519,7.519,0,0,0-2.492-.477c-1.095-.05-1.445-.062-4.232-.062s-3.138.012-4.234.062" transform="translate(-165.444 3099.931)" fill="#fff"/>
  </g>
</svg>
