<svg xmlns="http://www.w3.org/2000/svg" xmlns:xlink="http://www.w3.org/1999/xlink" width="198.68" height="58.868" viewBox="0 0 198.68 58.868"><defs><linearGradient id="a" x1="0.908" y1="1.032" x2="-0.383" y2="0.36" gradientUnits="objectBoundingBox"><stop offset="0" stop-color="#00a0ff"/><stop offset="0.007" stop-color="#00a1ff"/><stop offset="0.26" stop-color="#00beff"/><stop offset="0.512" stop-color="#00d2ff"/><stop offset="0.76" stop-color="#00dfff"/><stop offset="1" stop-color="#00e3ff"/></linearGradient><linearGradient id="b" x1="1.077" y1="0.729" x2="-1.307" y2="0.729" gradientUnits="objectBoundingBox"><stop offset="0" stop-color="#ffe000"/><stop offset="0.409" stop-color="#ffbd00"/><stop offset="0.775" stop-color="orange"/><stop offset="1" stop-color="#ff9c00"/></linearGradient><linearGradient id="c" x1="0.864" y1="-0.023" x2="-0.499" y2="-1.789" gradientUnits="objectBoundingBox"><stop offset="0" stop-color="#ff3a44"/><stop offset="1" stop-color="#c31162"/></linearGradient><linearGradient id="d" x1="-0.186" y1="2.701" x2="0.423" y2="1.909" gradientUnits="objectBoundingBox"><stop offset="0" stop-color="#32a071"/><stop offset="0.069" stop-color="#2da771"/><stop offset="0.476" stop-color="#15cf74"/><stop offset="0.801" stop-color="#06e775"/><stop offset="1" stop-color="#00f076"/></linearGradient></defs><path d="M191.322,58.868H7.359A7.287,7.287,0,0,1,0,51.51V7.359A7.287,7.287,0,0,1,7.359,0H191.322a7.287,7.287,0,0,1,7.359,7.359V51.51A7.287,7.287,0,0,1,191.322,58.868Z"/><path d="M191.322,1.177A6.218,6.218,0,0,1,197.5,7.359V51.51a6.218,6.218,0,0,1-6.181,6.181H7.359A6.218,6.218,0,0,1,1.177,51.51V7.359A6.218,6.218,0,0,1,7.359,1.177Zm0-1.177H7.359A7.38,7.38,0,0,0,0,7.359V51.51a7.287,7.287,0,0,0,7.359,7.359H191.322a7.287,7.287,0,0,0,7.359-7.359V7.359A7.38,7.38,0,0,0,191.322,0Z" fill="#a6a6a6"/><path d="M50.23,11.757A4.009,4.009,0,0,1,49.2,14.7a4.62,4.62,0,0,1-6.476,0A4.327,4.327,0,0,1,41.4,11.462a4.327,4.327,0,0,1,1.325-3.238A4.327,4.327,0,0,1,45.962,6.9a3.919,3.919,0,0,1,1.766.442,3.2,3.2,0,0,1,1.325,1.03l-.736.736a2.744,2.744,0,0,0-2.355-1.03,2.928,2.928,0,0,0-2.355,1.03,3.032,3.032,0,0,0-1.03,2.5,3.032,3.032,0,0,0,1.03,2.5,3.79,3.79,0,0,0,2.355,1.03,3.228,3.228,0,0,0,2.5-1.03,2.437,2.437,0,0,0,.736-1.766H45.962V11.168H50.23ZM57,8.077H53.026v2.8h3.679V11.9H53.026v2.8H57v1.177H51.849V7.047H57Zm4.857,7.8H60.679v-7.8h-2.5V7.047h6.181v1.03h-2.5Zm6.77,0V7.047H69.8v8.83Zm6.181,0H73.63v-7.8h-2.5V7.047h6.034v1.03h-2.5v7.8ZM88.789,14.7a4.62,4.62,0,0,1-6.475,0,4.327,4.327,0,0,1-1.325-3.238,4.327,4.327,0,0,1,1.325-3.238,4.619,4.619,0,0,1,6.475,0,4.327,4.327,0,0,1,1.325,3.238A4.327,4.327,0,0,1,88.789,14.7ZM83.2,13.964a3.473,3.473,0,0,0,2.355,1.03,2.928,2.928,0,0,0,2.355-1.03,3.551,3.551,0,0,0,1.03-2.5,3.032,3.032,0,0,0-1.03-2.5,3.473,3.473,0,0,0-2.355-1.03A2.928,2.928,0,0,0,83.2,8.96a3.551,3.551,0,0,0-1.03,2.5A3.032,3.032,0,0,0,83.2,13.964Zm8.536,1.913V7.047h1.325l4.268,6.917V7.047H98.5v8.83H97.325L92.762,8.666v7.211Z" transform="translate(19.529 3.255)" fill="#fff" stroke="#fff" stroke-miterlimit="10" stroke-width="0.2"/><path d="M80.836,24.017a6.192,6.192,0,0,0-6.328,6.328,6.281,6.281,0,0,0,6.328,6.328,6.192,6.192,0,0,0,6.328-6.328A6.106,6.106,0,0,0,80.836,24.017Zm0,10.008A3.653,3.653,0,0,1,77.3,30.2a3.653,3.653,0,0,1,3.532-3.826A3.565,3.565,0,0,1,84.368,30.2,3.653,3.653,0,0,1,80.836,34.025ZM67.149,24.017a6.192,6.192,0,0,0-6.328,6.328,6.281,6.281,0,0,0,6.328,6.328,6.192,6.192,0,0,0,6.328-6.328A6.106,6.106,0,0,0,67.149,24.017Zm0,10.008A3.653,3.653,0,0,1,63.617,30.2a3.653,3.653,0,0,1,3.532-3.826A3.565,3.565,0,0,1,70.681,30.2,3.653,3.653,0,0,1,67.149,34.025ZM50.813,25.93v2.649h6.328a5.565,5.565,0,0,1-1.472,3.385,6.514,6.514,0,0,1-4.857,1.913A6.852,6.852,0,0,1,43.9,26.813a6.942,6.942,0,0,1,6.917-7.064,7.3,7.3,0,0,1,4.857,1.913l1.913-1.913A9.431,9.431,0,0,0,50.96,17.1a9.928,9.928,0,0,0-9.86,9.713,9.928,9.928,0,0,0,9.86,9.713,8.47,8.47,0,0,0,6.77-2.8,8.86,8.86,0,0,0,2.355-6.181,5.518,5.518,0,0,0-.147-1.619Zm66.815,2.06a5.718,5.718,0,0,0-5.3-3.974c-3.238,0-5.887,2.5-5.887,6.328a6.159,6.159,0,0,0,6.181,6.328,6.037,6.037,0,0,0,5.151-2.8l-2.06-1.472a3.587,3.587,0,0,1-3.091,1.766,3.193,3.193,0,0,1-3.091-1.913l8.389-3.532Zm-8.536,2.06a3.575,3.575,0,0,1,3.238-3.679,2.6,2.6,0,0,1,2.355,1.325Zm-6.917,6.034h2.8v-18.4h-2.8ZM97.761,25.342a4.846,4.846,0,0,0-3.385-1.472A6.324,6.324,0,0,0,88.342,30.2a6.094,6.094,0,0,0,6.034,6.181,4.226,4.226,0,0,0,3.238-1.472h.147v.883c0,2.355-1.325,3.679-3.385,3.679a3.27,3.27,0,0,1-3.091-2.208l-2.355,1.03a6.071,6.071,0,0,0,5.592,3.679c3.238,0,5.887-1.913,5.887-6.475V24.311H97.761Zm-3.238,8.683A3.653,3.653,0,0,1,90.991,30.2a3.653,3.653,0,0,1,3.532-3.826A3.541,3.541,0,0,1,97.908,30.2,3.541,3.541,0,0,1,94.523,34.025Zm35.91-16.336H123.81v18.4h2.8V29.168h3.826a5.747,5.747,0,1,0,0-11.479Zm.147,8.83h-3.974V20.191h3.974a3.233,3.233,0,0,1,3.238,3.091A3.368,3.368,0,0,1,130.58,26.519ZM147.5,23.87c-2.06,0-4.121.883-4.857,2.8l2.5,1.03a2.6,2.6,0,0,1,2.5-1.325,2.766,2.766,0,0,1,2.943,2.355v.147a5.838,5.838,0,0,0-2.8-.736c-2.649,0-5.3,1.472-5.3,4.121a4.312,4.312,0,0,0,4.562,4.121,4.141,4.141,0,0,0,3.532-1.766h.147v1.472h2.649V29.021A5.57,5.57,0,0,0,147.5,23.87Zm-.294,10.155c-.883,0-2.208-.442-2.208-1.619,0-1.472,1.619-1.913,2.943-1.913a5.691,5.691,0,0,1,2.5.589A3.428,3.428,0,0,1,147.21,34.025Zm15.453-9.713-3.091,7.947h-.147l-3.238-7.947h-2.943L158.1,35.5l-2.8,6.181h2.8l7.506-17.366ZM137.938,36.085h2.8v-18.4h-2.8Z" transform="translate(19.387 8.066)" fill="#fff"/><path d="M10.589,7.5A2.877,2.877,0,0,0,10,9.56V42.085a2.911,2.911,0,0,0,.736,2.06l.147.147L29.132,26.043v-.294Z" transform="translate(4.717 3.538)" fill="url(#a)"/><path d="M28.934,28.309,22.9,22.275v-.442L28.934,15.8l.147.147,7.211,4.121c2.06,1.177,2.06,3.091,0,4.268Z" transform="translate(10.802 7.453)" fill="url(#b)"/><path d="M34.977,26.181,28.8,20,10.4,38.4c.736.736,1.766.736,3.091.147Z" transform="translate(4.906 9.434)" fill="url(#c)"/><path d="M34.977,19.87,13.491,7.655c-1.325-.736-2.355-.589-3.091.147L28.8,26.051Z" transform="translate(4.906 3.383)" fill="url(#d)"/><path d="M34.83,24.1,13.491,36.168a2.407,2.407,0,0,1-2.943,0l-.147.147.147.147a2.407,2.407,0,0,0,2.943,0Z" transform="translate(4.906 11.368)" opacity="0.2"/><path d="M10.589,38.1A2.877,2.877,0,0,1,10,36.042v.147a2.911,2.911,0,0,0,.736,2.06V38.1ZM42.377,21.913l-7.359,4.121.147.147,7.211-4.121A2.446,2.446,0,0,0,43.849,20C43.849,20.736,43.261,21.325,42.377,21.913Z" transform="translate(4.717 9.434)" opacity="0.12"/><path d="M13.679,7.814l28.7,16.336c.883.589,1.472,1.177,1.472,1.913A2.446,2.446,0,0,0,42.377,24L13.679,7.666C11.619,6.489,10,7.372,10,9.727v.147C10,7.666,11.619,6.636,13.679,7.814Z" transform="translate(4.717 3.371)" fill="#fff" opacity="0.25"/></svg>