<svg xmlns="http://www.w3.org/2000/svg" width="40" height="40" viewBox="0 0 40 40"><g transform="translate(-126.444 -2.117)"><circle cx="20" cy="20" r="20" transform="translate(126.444 2.117)" fill="#2daae1"/><path d="M257.769,145.79a10.508,10.508,0,0,1-3.023.829,5.278,5.278,0,0,0,2.314-2.911,10.515,10.515,0,0,1-3.343,1.277,5.265,5.265,0,0,0-9.1,3.6,5.322,5.322,0,0,0,.136,1.2,14.943,14.943,0,0,1-10.847-5.5,5.268,5.268,0,0,0,1.628,7.026,5.239,5.239,0,0,1-2.384-.658v.066a5.265,5.265,0,0,0,4.221,5.16,5.236,5.236,0,0,1-1.387.184,5.342,5.342,0,0,1-.991-.093,5.269,5.269,0,0,0,4.916,3.655,10.6,10.6,0,0,1-7.792,2.179A14.966,14.966,0,0,0,255.156,149.2q0-.342-.016-.681A10.724,10.724,0,0,0,257.769,145.79Z" transform="translate(-98.493 -131.608)" fill="#fff"/></g></svg>